<?xml version="1.0" encoding="UTF-8" standalone="no"?>
<!DOCTYPE svg PUBLIC "-//W3C//DTD SVG 1.1//EN"
"http://www.w3.org/Graphics/SVG/1.1/DTD/svg11.dtd">
<svg viewBox="0 0 909 1286" version="1.1" xmlns="http://www.w3.org/2000/svg" xmlns:xlink="http://www.w3.org/1999/xlink">
<defs>
<clipPath id="c0_4"><path d="M102.9,434.9l0,-236.9l537.3,0l0,236.9Z" /></clipPath>
<clipPath id="c1_4"><path d="M641.3,434.9l0,-236.9l165.5,0l0,236.9Z" /></clipPath>
<clipPath id="c2_4"><path d="M102.9,845.5l0,-409.3l537.3,0l0,409.3Z" /></clipPath>
<clipPath id="c3_4"><path d="M641.3,845.5l0,-409.3l165.5,0l0,409.3Z" /></clipPath>
<clipPath id="c4_4"><path d="M102.9,911.3l0,-64.7l537.3,0l0,64.7Z" /></clipPath>
<clipPath id="c5_4"><path d="M641.3,911.3l0,-64.7l165.5,0l0,64.7Z" /></clipPath>
<clipPath id="c6_4"><path d="M102.9,976.9l0,-64.5l537.3,0l0,64.5Z" /></clipPath>
<clipPath id="c7_4"><path d="M641.3,976.9l0,-64.5l165.5,0l0,64.5Z" /></clipPath>
<style type="text/css"><![CDATA[
.g1_4{
fill: #002060;
}
]]></style>
</defs>
<g fill="#000000" >
<use xlink:href="#f0_s1" transform="matrix(11,0,0,11,110,1207.1)" />
<use xlink:href="#f1_1b" transform="matrix(12,0,0,12,110,170)" />
<use xlink:href="#f1_1x" transform="matrix(12,0,0,12,123.3,170)" />
<use xlink:href="#f1_2a" transform="matrix(12,0,0,12,133.5,170)" />
<use xlink:href="#f1_23" transform="matrix(12,0,0,12,144.7,170)" />
<use xlink:href="#f1_1x" transform="matrix(12,0,0,12,155.9,170)" />
<use xlink:href="#f1_2e" transform="matrix(12,0,0,12,166.1,170)" />
<use xlink:href="#f1_2b" transform="matrix(12,0,0,12,173.3,170)" />
<use xlink:href="#f1_2b" transform="matrix(12,0,0,12,184.5,170)" />
<use xlink:href="#f1_2f" transform="matrix(12,0,0,12,195.7,170)" />
<use xlink:href="#f1_1j" transform="matrix(12,0,0,12,211,170)" />
<use xlink:href="#f1_2b" transform="matrix(12,0,0,12,223.3,170)" />
<use xlink:href="#f1_1z" transform="matrix(12,0,0,12,234.5,170)" />
<use xlink:href="#f1_1z" transform="matrix(12,0,0,12,244.5,170)" />
<use xlink:href="#f1_21" transform="matrix(12,0,0,12,254.8,170)" />
<use xlink:href="#f1_2e" transform="matrix(12,0,0,12,265,170)" />
<use xlink:href="#f1_13" transform="matrix(12,0,0,12,277.1,170)" />
<use xlink:href="#f1_28" transform="matrix(12,0,0,12,290.3,170)" />
<use xlink:href="#f1_2h" transform="matrix(12,0,0,12,295.4,170)" />
<use xlink:href="#f1_1y" transform="matrix(12,0,0,12,306.6,170)" />
<use xlink:href="#f1_h" transform="matrix(12,0,0,12,323.1,170)" />
<use xlink:href="#f1_1f" transform="matrix(12,0,0,12,334.3,170)" />
<use xlink:href="#f1_2c" transform="matrix(12,0,0,12,348.6,170)" />
<use xlink:href="#f1_21" transform="matrix(12,0,0,12,359.8,170)" />
<use xlink:href="#f1_2e" transform="matrix(12,0,0,12,370,170)" />
<use xlink:href="#f1_1x" transform="matrix(12,0,0,12,377.2,170)" />
<use xlink:href="#f1_2g" transform="matrix(12,0,0,12,387.4,170)" />
<use xlink:href="#f1_25" transform="matrix(12,0,0,12,393.5,170)" />
<use xlink:href="#f1_2a" transform="matrix(12,0,0,12,398.6,170)" />
<use xlink:href="#f1_23" transform="matrix(12,0,0,12,409.8,170)" />
<use xlink:href="#f1_12" transform="matrix(12,0,0,12,426.1,170)" />
<use xlink:href="#f1_2h" transform="matrix(12,0,0,12,439.3,170)" />
<use xlink:href="#f1_20" transform="matrix(12,0,0,12,450.5,170)" />
<use xlink:href="#f1_23" transform="matrix(12,0,0,12,461.7,170)" />
<use xlink:href="#f1_21" transform="matrix(12,0,0,12,472.9,170)" />
<use xlink:href="#f1_2g" transform="matrix(12,0,0,12,482.9,170)" />
<use xlink:href="#f1_22" transform="matrix(12,0,0,12,494.1,170)" />
<use xlink:href="#f1_2b" transform="matrix(12,0,0,12,500.2,170)" />
<use xlink:href="#f1_2e" transform="matrix(12,0,0,12,511.4,170)" />
<use xlink:href="#f1_m" transform="matrix(12,0,0,12,523.6,170)" />
<use xlink:href="#f1_k" transform="matrix(12,0,0,12,533.9,170)" />
<use xlink:href="#f1_l" transform="matrix(12,0,0,12,544.1,170)" />
<use xlink:href="#f1_m" transform="matrix(12,0,0,12,554.4,170)" />
</g>
<g clip-path="url(#c0_4)">
<g fill="#000000" >
<use xlink:href="#f1_19" transform="matrix(12,0,0,12,110,236.9)" />
<use xlink:href="#f1_2a" transform="matrix(12,0,0,12,115.1,236.9)" />
<use xlink:href="#f1_1z" transform="matrix(12,0,0,12,126.3,236.9)" />
<use xlink:href="#f1_2b" transform="matrix(12,0,0,12,136.6,236.9)" />
<use xlink:href="#f1_29" transform="matrix(12,0,0,12,147.8,236.9)" />
<use xlink:href="#f1_21" transform="matrix(12,0,0,12,164.1,236.9)" />
<use xlink:href="#f2_1d" transform="matrix(12,0,0,12,110,280)" />
<use xlink:href="#f2_21" transform="matrix(12,0,0,12,125.3,280)" />
<use xlink:href="#f2_29" transform="matrix(12,0,0,12,135.5,280)" />
<use xlink:href="#f2_1y" transform="matrix(12,0,0,12,150.9,280)" />
<use xlink:href="#f2_21" transform="matrix(12,0,0,12,161,280)" />
<use xlink:href="#f2_2e" transform="matrix(12,0,0,12,171.2,280)" />
<use xlink:href="#f2_2f" transform="matrix(12,0,0,12,177.3,280)" />
<use xlink:href="#f2_24" transform="matrix(12,0,0,12,186.5,280)" />
<use xlink:href="#f2_25" transform="matrix(12,0,0,12,196.7,280)" />
<use xlink:href="#f2_2c" transform="matrix(12,0,0,12,200.8,280)" />
<use xlink:href="#f2_22" transform="matrix(12,0,0,12,215.9,280)" />
<use xlink:href="#f2_21" transform="matrix(12,0,0,12,221,280)" />
<use xlink:href="#f2_21" transform="matrix(12,0,0,12,231.3,280)" />
<use xlink:href="#f2_2f" transform="matrix(12,0,0,12,241.6,280)" />
<use xlink:href="#f2_13" transform="matrix(12,0,0,12,110,301.6)" />
<use xlink:href="#f2_1x" transform="matrix(12,0,0,12,123.3,301.6)" />
<use xlink:href="#f2_2a" transform="matrix(12,0,0,12,133.5,301.6)" />
<use xlink:href="#f2_2g" transform="matrix(12,0,0,12,143.8,301.6)" />
<use xlink:href="#f2_21" transform="matrix(12,0,0,12,148.8,301.6)" />
<use xlink:href="#f2_21" transform="matrix(12,0,0,12,159,301.6)" />
<use xlink:href="#f2_2a" transform="matrix(12,0,0,12,169.2,301.6)" />
<use xlink:href="#f2_2f" transform="matrix(12,0,0,12,184.6,301.6)" />
<use xlink:href="#f2_1x" transform="matrix(12,0,0,12,193.7,301.6)" />
<use xlink:href="#f2_28" transform="matrix(12,0,0,12,204,301.6)" />
<use xlink:href="#f2_21" transform="matrix(12,0,0,12,207.9,301.6)" />
<use xlink:href="#f2_2f" transform="matrix(12,0,0,12,218.1,301.6)" />
<use xlink:href="#f2_16" transform="matrix(12,0,0,12,110,323.1)" />
<use xlink:href="#f2_2h" transform="matrix(12,0,0,12,121.2,323.1)" />
<use xlink:href="#f2_2a" transform="matrix(12,0,0,12,131.4,323.1)" />
<use xlink:href="#f2_20" transform="matrix(12,0,0,12,141.7,323.1)" />
<use xlink:href="#f2_2e" transform="matrix(12,0,0,12,152,323.1)" />
<use xlink:href="#f2_1x" transform="matrix(12,0,0,12,158.1,323.1)" />
<use xlink:href="#f2_25" transform="matrix(12,0,0,12,168.3,323.1)" />
<use xlink:href="#f2_2f" transform="matrix(12,0,0,12,172.4,323.1)" />
<use xlink:href="#f2_25" transform="matrix(12,0,0,12,181.5,323.1)" />
<use xlink:href="#f2_2a" transform="matrix(12,0,0,12,185.5,323.1)" />
<use xlink:href="#f2_23" transform="matrix(12,0,0,12,195.8,323.1)" />
<use xlink:href="#f2_21" transform="matrix(12,0,0,12,211,323.1)" />
<use xlink:href="#f2_2i" transform="matrix(12,0,0,12,221.2,323.1)" />
<use xlink:href="#f2_21" transform="matrix(12,0,0,12,230.2,323.1)" />
<use xlink:href="#f2_2a" transform="matrix(12,0,0,12,240.5,323.1)" />
<use xlink:href="#f2_2g" transform="matrix(12,0,0,12,250.7,323.1)" />
<use xlink:href="#f2_2f" transform="matrix(12,0,0,12,255.8,323.1)" />
<use xlink:href="#f2_1j" transform="matrix(12,0,0,12,110,344.7)" />
<use xlink:href="#f2_2c" transform="matrix(12,0,0,12,122.3,344.7)" />
<use xlink:href="#f2_2b" transform="matrix(12,0,0,12,132.6,344.7)" />
<use xlink:href="#f2_2a" transform="matrix(12,0,0,12,142.8,344.7)" />
<use xlink:href="#f2_2f" transform="matrix(12,0,0,12,153,344.7)" />
<use xlink:href="#f2_2b" transform="matrix(12,0,0,12,162,344.7)" />
<use xlink:href="#f2_2e" transform="matrix(12,0,0,12,172.3,344.7)" />
<use xlink:href="#f2_2f" transform="matrix(12,0,0,12,178.4,344.7)" />
<use xlink:href="#f2_24" transform="matrix(12,0,0,12,187.6,344.7)" />
<use xlink:href="#f2_25" transform="matrix(12,0,0,12,197.7,344.7)" />
<use xlink:href="#f2_2c" transform="matrix(12,0,0,12,201.8,344.7)" />
<use xlink:href="#f2_1d" transform="matrix(12,0,0,12,110,366.1)" />
<use xlink:href="#f2_21" transform="matrix(12,0,0,12,125.3,366.1)" />
<use xlink:href="#f2_2e" transform="matrix(12,0,0,12,135.5,366.1)" />
<use xlink:href="#f2_1z" transform="matrix(12,0,0,12,141.6,366.1)" />
<use xlink:href="#f2_24" transform="matrix(12,0,0,12,150.8,366.1)" />
<use xlink:href="#f2_1x" transform="matrix(12,0,0,12,161,366.1)" />
<use xlink:href="#f2_2a" transform="matrix(12,0,0,12,171.2,366.1)" />
<use xlink:href="#f2_20" transform="matrix(12,0,0,12,181.5,366.1)" />
<use xlink:href="#f2_25" transform="matrix(12,0,0,12,191.7,366.1)" />
<use xlink:href="#f2_2f" transform="matrix(12,0,0,12,195.8,366.1)" />
<use xlink:href="#f2_21" transform="matrix(12,0,0,12,205,366.1)" />
<use xlink:href="#f2_2f" transform="matrix(12,0,0,12,220.1,366.1)" />
<use xlink:href="#f2_1x" transform="matrix(12,0,0,12,229.3,366.1)" />
<use xlink:href="#f2_28" transform="matrix(12,0,0,12,239.6,366.1)" />
<use xlink:href="#f2_21" transform="matrix(12,0,0,12,243.6,366.1)" />
<use xlink:href="#f2_2f" transform="matrix(12,0,0,12,253.8,366.1)" />
<use xlink:href="#f1_1k" transform="matrix(12,0,0,12,110,409.3)" />
<use xlink:href="#f1_1f" transform="matrix(12,0,0,12,121.2,409.3)" />
<use xlink:href="#f1_1k" transform="matrix(12,0,0,12,135.5,409.3)" />
<use xlink:href="#f1_11" transform="matrix(12,0,0,12,146.9,409.3)" />
<use xlink:href="#f1_1c" transform="matrix(12,0,0,12,159.7,409.3)" />
</g>
</g>
<g clip-path="url(#c1_4)">
<g fill="#000000" >
<use xlink:href="#f1_8" transform="matrix(12,0,0,12,649,236.9)" />
<use xlink:href="#f2_l" transform="matrix(12,0,0,12,649,280)" />
<use xlink:href="#f2_m" transform="matrix(12,0,0,12,659.2,280)" />
<use xlink:href="#f2_q" transform="matrix(12,0,0,12,669.5,280)" />
<use xlink:href="#f2_k" transform="matrix(12,0,0,12,679.5,280)" />
<use xlink:href="#f2_k" transform="matrix(12,0,0,12,689.8,280)" />
<use xlink:href="#f2_l" transform="matrix(12,0,0,12,649,301.6)" />
<use xlink:href="#f2_k" transform="matrix(12,0,0,12,659.2,301.6)" />
<use xlink:href="#f2_m" transform="matrix(12,0,0,12,669.5,301.6)" />
<use xlink:href="#f2_k" transform="matrix(12,0,0,12,679.5,301.6)" />
<use xlink:href="#f2_k" transform="matrix(12,0,0,12,689.8,301.6)" />
<use xlink:href="#f2_n" transform="matrix(12,0,0,12,649,323.1)" />
<use xlink:href="#f2_l" transform="matrix(12,0,0,12,659.2,323.1)" />
<use xlink:href="#f2_k" transform="matrix(12,0,0,12,669.5,323.1)" />
<use xlink:href="#f2_k" transform="matrix(12,0,0,12,679.5,323.1)" />
<use xlink:href="#f2_l" transform="matrix(12,0,0,12,649,344.7)" />
<use xlink:href="#f2_p" transform="matrix(12,0,0,12,659.2,344.7)" />
<use xlink:href="#f2_k" transform="matrix(12,0,0,12,669.5,344.7)" />
<use xlink:href="#f2_k" transform="matrix(12,0,0,12,679.5,344.7)" />
<use xlink:href="#f2_m" transform="matrix(12,0,0,12,649,366.1)" />
<use xlink:href="#f2_s" transform="matrix(12,0,0,12,659.2,366.1)" />
<use xlink:href="#f2_k" transform="matrix(12,0,0,12,669.5,366.1)" />
<use xlink:href="#f2_k" transform="matrix(12,0,0,12,679.5,366.1)" />
<use xlink:href="#f2_n" transform="matrix(12,0,0,12,649,409.3)" />
<use xlink:href="#f2_k" transform="matrix(12,0,0,12,659.2,409.3)" />
<use xlink:href="#f2_m" transform="matrix(12,0,0,12,669.5,409.3)" />
<use xlink:href="#f2_k" transform="matrix(12,0,0,12,679.5,409.3)" />
<use xlink:href="#f2_k" transform="matrix(12,0,0,12,689.8,409.3)" />
</g>
</g>
<path fill-rule="evenodd" d="M100.7,198l2.2,0l0,-2.4l-2.2,0l0,2.4Z" class="g1_4" />
<path fill-rule="evenodd" d="M100.7,197.8l2.2,0l0,-2.2l-2.2,0l0,2.2Z" class="g1_4" />
<path fill-rule="evenodd" d="M102.9,197.8l537.3,0l0,-2.2l-537.3,0l0,2.2Z" class="g1_4" />
<path fill-rule="evenodd" d="M640.2,198l1.1,0l0,-0.2l-1.1,0l0,0.2Z" class="g1_4" />
<path fill-rule="evenodd" d="M640.2,197.8l2.2,0l0,-2.2l-2.2,0l0,2.2Z" class="g1_4" />
<path fill-rule="evenodd" d="M642.4,197.8l164.4,0l0,-2.2l-164.4,0l0,2.2Z" class="g1_4" />
<path fill-rule="evenodd" d="M806.8,198l2.3,0l0,-2.4l-2.3,0l0,2.4Z" class="g1_4" />
<path fill-rule="evenodd" d="M806.8,197.8l2.3,0l0,-2.2l-2.3,0l0,2.2Z" class="g1_4" />
<path fill-rule="evenodd" d="M100.7,434.9l2.2,0l0,-236.9l-2.2,0l0,236.9Z" class="g1_4" />
<path fill-rule="evenodd" d="M640.2,434.9l1.1,0l0,-236.9l-1.1,0l0,236.9Z" class="g1_4" />
<path fill-rule="evenodd" d="M806.8,434.9l2.3,0l0,-236.9l-2.3,0l0,236.9Z" class="g1_4" />
<g clip-path="url(#c2_4)">
<g fill="#000000" >
<use xlink:href="#f1_15" transform="matrix(12,0,0,12,110,475.1)" />
<use xlink:href="#f1_2k" transform="matrix(12,0,0,12,122.3,475.1)" />
<use xlink:href="#f1_2c" transform="matrix(12,0,0,12,132.6,475.1)" />
<use xlink:href="#f1_21" transform="matrix(12,0,0,12,143.8,475.1)" />
<use xlink:href="#f1_2a" transform="matrix(12,0,0,12,153.9,475.1)" />
<use xlink:href="#f1_2f" transform="matrix(12,0,0,12,165.1,475.1)" />
<use xlink:href="#f1_21" transform="matrix(12,0,0,12,175.3,475.1)" />
<use xlink:href="#f1_2f" transform="matrix(12,0,0,12,185.5,475.1)" />
<use xlink:href="#f2_1g" transform="matrix(12,0,0,12,110,518.2)" />
<use xlink:href="#f2_28" transform="matrix(12,0,0,12,122.3,518.2)" />
<use xlink:href="#f2_1x" transform="matrix(12,0,0,12,126.4,518.2)" />
<use xlink:href="#f2_2l" transform="matrix(12,0,0,12,136.6,518.2)" />
<use xlink:href="#f2_21" transform="matrix(12,0,0,12,145.6,518.2)" />
<use xlink:href="#f2_2e" transform="matrix(12,0,0,12,155.8,518.2)" />
<use xlink:href="#f2_2e" transform="matrix(12,0,0,12,167,518.2)" />
<use xlink:href="#f2_21" transform="matrix(12,0,0,12,173.1,518.2)" />
<use xlink:href="#f2_23" transform="matrix(12,0,0,12,183.3,518.2)" />
<use xlink:href="#f2_25" transform="matrix(12,0,0,12,193.4,518.2)" />
<use xlink:href="#f2_2f" transform="matrix(12,0,0,12,197.5,518.2)" />
<use xlink:href="#f2_2g" transform="matrix(12,0,0,12,206.6,518.2)" />
<use xlink:href="#f2_2e" transform="matrix(12,0,0,12,211.7,518.2)" />
<use xlink:href="#f2_1x" transform="matrix(12,0,0,12,217.8,518.2)" />
<use xlink:href="#f2_2g" transform="matrix(12,0,0,12,228,518.2)" />
<use xlink:href="#f2_25" transform="matrix(12,0,0,12,233.2,518.2)" />
<use xlink:href="#f2_2b" transform="matrix(12,0,0,12,237.2,518.2)" />
<use xlink:href="#f2_2a" transform="matrix(12,0,0,12,247.4,518.2)" />
<use xlink:href="#f2_22" transform="matrix(12,0,0,12,262.8,518.2)" />
<use xlink:href="#f2_21" transform="matrix(12,0,0,12,268,518.2)" />
<use xlink:href="#f2_21" transform="matrix(12,0,0,12,278.2,518.2)" />
<use xlink:href="#f2_2f" transform="matrix(12,0,0,12,288.5,518.2)" />
<use xlink:href="#f2_1k" transform="matrix(12,0,0,12,110,539.8)" />
<use xlink:href="#f2_21" transform="matrix(12,0,0,12,121.4,539.8)" />
<use xlink:href="#f2_1x" transform="matrix(12,0,0,12,131.5,539.8)" />
<use xlink:href="#f2_29" transform="matrix(12,0,0,12,141.7,539.8)" />
<use xlink:href="#f2_2e" transform="matrix(12,0,0,12,162,539.8)" />
<use xlink:href="#f2_21" transform="matrix(12,0,0,12,168.1,539.8)" />
<use xlink:href="#f2_23" transform="matrix(12,0,0,12,178.3,539.8)" />
<use xlink:href="#f2_25" transform="matrix(12,0,0,12,188.5,539.8)" />
<use xlink:href="#f2_2f" transform="matrix(12,0,0,12,192.5,539.8)" />
<use xlink:href="#f2_2g" transform="matrix(12,0,0,12,201.7,539.8)" />
<use xlink:href="#f2_2e" transform="matrix(12,0,0,12,206.8,539.8)" />
<use xlink:href="#f2_1x" transform="matrix(12,0,0,12,212.9,539.8)" />
<use xlink:href="#f2_2g" transform="matrix(12,0,0,12,223.1,539.8)" />
<use xlink:href="#f2_25" transform="matrix(12,0,0,12,228.2,539.8)" />
<use xlink:href="#f2_2b" transform="matrix(12,0,0,12,232.3,539.8)" />
<use xlink:href="#f2_2a" transform="matrix(12,0,0,12,242.5,539.8)" />
<use xlink:href="#f2_22" transform="matrix(12,0,0,12,257.7,539.8)" />
<use xlink:href="#f2_21" transform="matrix(12,0,0,12,262.8,539.8)" />
<use xlink:href="#f2_21" transform="matrix(12,0,0,12,273.1,539.8)" />
<use xlink:href="#f2_2f" transform="matrix(12,0,0,12,283.4,539.8)" />
<use xlink:href="#f2_1c" transform="matrix(12,0,0,12,110,561.3)" />
<use xlink:href="#f2_2b" transform="matrix(12,0,0,12,120.3,561.3)" />
<use xlink:href="#f2_1z" transform="matrix(12,0,0,12,130.5,561.3)" />
<use xlink:href="#f2_1x" transform="matrix(12,0,0,12,139.7,561.3)" />
<use xlink:href="#f2_28" transform="matrix(12,0,0,12,149.9,561.3)" />
<use xlink:href="#f2_1z" transform="matrix(12,0,0,12,159.1,561.3)" />
<use xlink:href="#f2_2b" transform="matrix(12,0,0,12,168.1,561.3)" />
<use xlink:href="#f2_2h" transform="matrix(12,0,0,12,178.3,561.3)" />
<use xlink:href="#f2_2a" transform="matrix(12,0,0,12,188.6,561.3)" />
<use xlink:href="#f2_1z" transform="matrix(12,0,0,12,198.8,561.3)" />
<use xlink:href="#f2_25" transform="matrix(12,0,0,12,208,561.3)" />
<use xlink:href="#f2_28" transform="matrix(12,0,0,12,212.1,561.3)" />
<use xlink:href="#f2_23" transform="matrix(12,0,0,12,221.2,561.3)" />
<use xlink:href="#f2_2e" transform="matrix(12,0,0,12,231.3,561.3)" />
<use xlink:href="#f2_2b" transform="matrix(12,0,0,12,237.4,561.3)" />
<use xlink:href="#f2_2h" transform="matrix(12,0,0,12,247.6,561.3)" />
<use xlink:href="#f2_2a" transform="matrix(12,0,0,12,257.9,561.3)" />
<use xlink:href="#f2_20" transform="matrix(12,0,0,12,267.9,561.3)" />
<use xlink:href="#f2_22" transform="matrix(12,0,0,12,283.1,561.3)" />
<use xlink:href="#f2_21" transform="matrix(12,0,0,12,288.2,561.3)" />
<use xlink:href="#f2_21" transform="matrix(12,0,0,12,298.5,561.3)" />
<use xlink:href="#f2_2f" transform="matrix(12,0,0,12,308.8,561.3)" />
<use xlink:href="#f2_15" transform="matrix(12,0,0,12,110,582.9)" />
<use xlink:href="#f2_2d" transform="matrix(12,0,0,12,122.3,582.9)" />
<use xlink:href="#f2_2h" transform="matrix(12,0,0,12,132.4,582.9)" />
<use xlink:href="#f2_25" transform="matrix(12,0,0,12,142.6,582.9)" />
<use xlink:href="#f2_2c" transform="matrix(12,0,0,12,146.7,582.9)" />
<use xlink:href="#f2_29" transform="matrix(12,0,0,12,156.9,582.9)" />
<use xlink:href="#f2_21" transform="matrix(12,0,0,12,172.3,582.9)" />
<use xlink:href="#f2_2a" transform="matrix(12,0,0,12,182.4,582.9)" />
<use xlink:href="#f2_2g" transform="matrix(12,0,0,12,192.6,582.9)" />
<use xlink:href="#f2_2c" transform="matrix(12,0,0,12,202.9,582.9)" />
<use xlink:href="#f2_2h" transform="matrix(12,0,0,12,213,582.9)" />
<use xlink:href="#f2_2e" transform="matrix(12,0,0,12,223.2,582.9)" />
<use xlink:href="#f2_1z" transform="matrix(12,0,0,12,229.3,582.9)" />
<use xlink:href="#f2_24" transform="matrix(12,0,0,12,238.5,582.9)" />
<use xlink:href="#f2_1x" transform="matrix(12,0,0,12,248.7,582.9)" />
<use xlink:href="#f2_2f" transform="matrix(12,0,0,12,259,582.9)" />
<use xlink:href="#f2_21" transform="matrix(12,0,0,12,267.9,582.9)" />
<use xlink:href="#f2_1l" transform="matrix(12,0,0,12,110,604.3)" />
<use xlink:href="#f2_2g" transform="matrix(12,0,0,12,123.3,604.3)" />
<use xlink:href="#f2_25" transform="matrix(12,0,0,12,128.4,604.3)" />
<use xlink:href="#f2_28" transform="matrix(12,0,0,12,132.4,604.3)" />
<use xlink:href="#f2_25" transform="matrix(12,0,0,12,136.4,604.3)" />
<use xlink:href="#f2_2g" transform="matrix(12,0,0,12,140.5,604.3)" />
<use xlink:href="#f2_25" transform="matrix(12,0,0,12,145.6,604.3)" />
<use xlink:href="#f2_21" transform="matrix(12,0,0,12,149.7,604.3)" />
<use xlink:href="#f2_2f" transform="matrix(12,0,0,12,159.9,604.3)" />
<use xlink:href="#f2_13" transform="matrix(12,0,0,12,110,626)" />
<use xlink:href="#f2_1x" transform="matrix(12,0,0,12,123.3,626)" />
<use xlink:href="#f2_2a" transform="matrix(12,0,0,12,133.5,626)" />
<use xlink:href="#f2_2g" transform="matrix(12,0,0,12,143.8,626)" />
<use xlink:href="#f2_21" transform="matrix(12,0,0,12,148.8,626)" />
<use xlink:href="#f2_21" transform="matrix(12,0,0,12,159,626)" />
<use xlink:href="#f2_2a" transform="matrix(12,0,0,12,169.2,626)" />
<use xlink:href="#f2_2f" transform="matrix(12,0,0,12,184.6,626)" />
<use xlink:href="#f2_2h" transform="matrix(12,0,0,12,193.7,626)" />
<use xlink:href="#f2_2c" transform="matrix(12,0,0,12,203.8,626)" />
<use xlink:href="#f2_2c" transform="matrix(12,0,0,12,214.1,626)" />
<use xlink:href="#f2_28" transform="matrix(12,0,0,12,224.3,626)" />
<use xlink:href="#f2_25" transform="matrix(12,0,0,12,228.4,626)" />
<use xlink:href="#f2_21" transform="matrix(12,0,0,12,232.4,626)" />
<use xlink:href="#f2_2f" transform="matrix(12,0,0,12,242.7,626)" />
<use xlink:href="#f2_1d" transform="matrix(12,0,0,12,110,647.5)" />
<use xlink:href="#f2_21" transform="matrix(12,0,0,12,125.3,647.5)" />
<use xlink:href="#f2_2e" transform="matrix(12,0,0,12,135.5,647.5)" />
<use xlink:href="#f2_1z" transform="matrix(12,0,0,12,141.6,647.5)" />
<use xlink:href="#f2_24" transform="matrix(12,0,0,12,150.8,647.5)" />
<use xlink:href="#f2_1x" transform="matrix(12,0,0,12,161,647.5)" />
<use xlink:href="#f2_2a" transform="matrix(12,0,0,12,171.2,647.5)" />
<use xlink:href="#f2_20" transform="matrix(12,0,0,12,181.5,647.5)" />
<use xlink:href="#f2_25" transform="matrix(12,0,0,12,191.7,647.5)" />
<use xlink:href="#f2_2f" transform="matrix(12,0,0,12,195.8,647.5)" />
<use xlink:href="#f2_21" transform="matrix(12,0,0,12,205,647.5)" />
<use xlink:href="#f2_15" transform="matrix(12,0,0,12,110,669.1)" />
<use xlink:href="#f2_2i" transform="matrix(12,0,0,12,122.3,669.1)" />
<use xlink:href="#f2_21" transform="matrix(12,0,0,12,131.3,669.1)" />
<use xlink:href="#f2_2a" transform="matrix(12,0,0,12,141.5,669.1)" />
<use xlink:href="#f2_2g" transform="matrix(12,0,0,12,151.8,669.1)" />
<use xlink:href="#f2_2f" transform="matrix(12,0,0,12,156.9,669.1)" />
<use xlink:href="#f2_1z" transform="matrix(12,0,0,12,171.2,669.1)" />
<use xlink:href="#f2_2b" transform="matrix(12,0,0,12,180.4,669.1)" />
<use xlink:href="#f2_2f" transform="matrix(12,0,0,12,190.6,669.1)" />
<use xlink:href="#f2_2g" transform="matrix(12,0,0,12,199.8,669.1)" />
<use xlink:href="#f2_2f" transform="matrix(12,0,0,12,204.9,669.1)" />
<use xlink:href="#f2_1n" transform="matrix(12,0,0,12,110,690.5)" />
<use xlink:href="#f2_21" transform="matrix(12,0,0,12,127.8,690.5)" />
<use xlink:href="#f2_1y" transform="matrix(12,0,0,12,137.9,690.5)" />
<use xlink:href="#f2_24" transform="matrix(12,0,0,12,152.9,690.5)" />
<use xlink:href="#f2_2b" transform="matrix(12,0,0,12,163.2,690.5)" />
<use xlink:href="#f2_2f" transform="matrix(12,0,0,12,173.4,690.5)" />
<use xlink:href="#f2_2g" transform="matrix(12,0,0,12,182.4,690.5)" />
<use xlink:href="#f2_25" transform="matrix(12,0,0,12,187.5,690.5)" />
<use xlink:href="#f2_2a" transform="matrix(12,0,0,12,191.6,690.5)" />
<use xlink:href="#f2_23" transform="matrix(12,0,0,12,201.8,690.5)" />
<use xlink:href="#f2_1g" transform="matrix(12,0,0,12,110,712)" />
<use xlink:href="#f2_1f" transform="matrix(12,0,0,12,122.3,712)" />
<use xlink:href="#f2_12" transform="matrix(12,0,0,12,141.7,712)" />
<use xlink:href="#f2_2b" transform="matrix(12,0,0,12,154,712)" />
<use xlink:href="#f2_2k" transform="matrix(12,0,0,12,164.2,712)" />
<use xlink:href="#f2_19" transform="matrix(12,0,0,12,110,733.6)" />
<use xlink:href="#f2_2a" transform="matrix(12,0,0,12,115.1,733.6)" />
<use xlink:href="#f2_2f" transform="matrix(12,0,0,12,125.4,733.6)" />
<use xlink:href="#f2_2h" transform="matrix(12,0,0,12,134.6,733.6)" />
<use xlink:href="#f2_2e" transform="matrix(12,0,0,12,144.8,733.6)" />
<use xlink:href="#f2_1x" transform="matrix(12,0,0,12,150.9,733.6)" />
<use xlink:href="#f2_2a" transform="matrix(12,0,0,12,161.1,733.6)" />
<use xlink:href="#f2_1z" transform="matrix(12,0,0,12,171.4,733.6)" />
<use xlink:href="#f2_21" transform="matrix(12,0,0,12,180.4,733.6)" />
<use xlink:href="#f2_1g" transform="matrix(12,0,0,12,110,755.1)" />
<use xlink:href="#f2_2e" transform="matrix(12,0,0,12,122.3,755.1)" />
<use xlink:href="#f2_25" transform="matrix(12,0,0,12,128.4,755.1)" />
<use xlink:href="#f2_2a" transform="matrix(12,0,0,12,132.4,755.1)" />
<use xlink:href="#f2_2g" transform="matrix(12,0,0,12,142.6,755.1)" />
<use xlink:href="#f2_25" transform="matrix(12,0,0,12,147.7,755.1)" />
<use xlink:href="#f2_2a" transform="matrix(12,0,0,12,151.8,755.1)" />
<use xlink:href="#f2_23" transform="matrix(12,0,0,12,162,755.1)" />
<use xlink:href="#f2_1x" transform="matrix(12,0,0,12,177.2,755.1)" />
<use xlink:href="#f2_2a" transform="matrix(12,0,0,12,187.5,755.1)" />
<use xlink:href="#f2_20" transform="matrix(12,0,0,12,197.8,755.1)" />
<use xlink:href="#f2_2c" transform="matrix(12,0,0,12,213,755.1)" />
<use xlink:href="#f2_2b" transform="matrix(12,0,0,12,223.2,755.1)" />
<use xlink:href="#f2_2f" transform="matrix(12,0,0,12,233.5,755.1)" />
<use xlink:href="#f2_2g" transform="matrix(12,0,0,12,242.6,755.1)" />
<use xlink:href="#f2_1x" transform="matrix(12,0,0,12,247.6,755.1)" />
<use xlink:href="#f2_23" transform="matrix(12,0,0,12,257.8,755.1)" />
<use xlink:href="#f2_21" transform="matrix(12,0,0,12,267.9,755.1)" />
<use xlink:href="#f2_1i" transform="matrix(12,0,0,12,110,776.2)" />
<use xlink:href="#f2_21" transform="matrix(12,0,0,12,123.3,776.2)" />
<use xlink:href="#f2_2c" transform="matrix(12,0,0,12,133.5,776.2)" />
<use xlink:href="#f2_28" transform="matrix(12,0,0,12,143.8,776.2)" />
<use xlink:href="#f2_1x" transform="matrix(12,0,0,12,147.8,776.2)" />
<use xlink:href="#f2_1z" transform="matrix(12,0,0,12,158,776.2)" />
<use xlink:href="#f2_21" transform="matrix(12,0,0,12,167.2,776.2)" />
<use xlink:href="#f2_29" transform="matrix(12,0,0,12,177.3,776.2)" />
<use xlink:href="#f2_21" transform="matrix(12,0,0,12,192.7,776.2)" />
<use xlink:href="#f2_2a" transform="matrix(12,0,0,12,202.8,776.2)" />
<use xlink:href="#f2_2g" transform="matrix(12,0,0,12,213,776.2)" />
<use xlink:href="#f2_2c" transform="matrix(12,0,0,12,223.3,776.2)" />
<use xlink:href="#f2_28" transform="matrix(12,0,0,12,233.5,776.2)" />
<use xlink:href="#f2_1x" transform="matrix(12,0,0,12,237.4,776.2)" />
<use xlink:href="#f2_2l" transform="matrix(12,0,0,12,247.6,776.2)" />
<use xlink:href="#f2_25" transform="matrix(12,0,0,12,256.6,776.2)" />
<use xlink:href="#f2_2a" transform="matrix(12,0,0,12,260.7,776.2)" />
<use xlink:href="#f2_23" transform="matrix(12,0,0,12,270.9,776.2)" />
<use xlink:href="#f2_2f" transform="matrix(12,0,0,12,286.1,776.2)" />
<use xlink:href="#f2_2g" transform="matrix(12,0,0,12,295.4,776.2)" />
<use xlink:href="#f2_2e" transform="matrix(12,0,0,12,300.5,776.2)" />
<use xlink:href="#f2_25" transform="matrix(12,0,0,12,306.6,776.2)" />
<use xlink:href="#f2_2c" transform="matrix(12,0,0,12,310.7,776.2)" />
<use xlink:href="#f2_2f" transform="matrix(12,0,0,12,320.9,776.2)" />
<use xlink:href="#f1_1k" transform="matrix(12,0,0,12,110,819.2)" />
<use xlink:href="#f1_1f" transform="matrix(12,0,0,12,121.2,819.2)" />
<use xlink:href="#f1_1k" transform="matrix(12,0,0,12,135.5,819.2)" />
<use xlink:href="#f1_11" transform="matrix(12,0,0,12,146.9,819.2)" />
<use xlink:href="#f1_1c" transform="matrix(12,0,0,12,159.7,819.2)" />
</g>
</g>
<g clip-path="url(#c3_4)">
<g fill="#000000" >
<use xlink:href="#f2_t" transform="matrix(12,0,0,12,649,518.2)" />
<use xlink:href="#f2_o" transform="matrix(12,0,0,12,659.2,518.2)" />
<use xlink:href="#f2_p" transform="matrix(12,0,0,12,669.5,518.2)" />
<use xlink:href="#f2_k" transform="matrix(12,0,0,12,679.5,518.2)" />
<use xlink:href="#f2_l" transform="matrix(12,0,0,12,649,539.8)" />
<use xlink:href="#f2_s" transform="matrix(12,0,0,12,659.2,539.8)" />
<use xlink:href="#f2_k" transform="matrix(12,0,0,12,669.5,539.8)" />
<use xlink:href="#f2_k" transform="matrix(12,0,0,12,679.5,539.8)" />
<use xlink:href="#f2_s" transform="matrix(12,0,0,12,649,561.3)" />
<use xlink:href="#f2_s" transform="matrix(12,0,0,12,659.2,561.3)" />
<use xlink:href="#f2_k" transform="matrix(12,0,0,12,669.5,561.3)" />
<use xlink:href="#f2_m" transform="matrix(12,0,0,12,649,582.9)" />
<use xlink:href="#f2_q" transform="matrix(12,0,0,12,659.2,582.9)" />
<use xlink:href="#f2_s" transform="matrix(12,0,0,12,669.5,582.9)" />
<use xlink:href="#f2_k" transform="matrix(12,0,0,12,679.5,582.9)" />
<use xlink:href="#f2_t" transform="matrix(12,0,0,12,649,604.3)" />
<use xlink:href="#f2_n" transform="matrix(12,0,0,12,659.2,604.3)" />
<use xlink:href="#f2_k" transform="matrix(12,0,0,12,669.5,604.3)" />
<use xlink:href="#f2_p" transform="matrix(12,0,0,12,649,626)" />
<use xlink:href="#f2_q" transform="matrix(12,0,0,12,659.2,626)" />
<use xlink:href="#f2_l" transform="matrix(12,0,0,12,669.5,626)" />
<use xlink:href="#f2_k" transform="matrix(12,0,0,12,679.5,626)" />
<use xlink:href="#f2_l" transform="matrix(12,0,0,12,649,647.5)" />
<use xlink:href="#f2_p" transform="matrix(12,0,0,12,659.2,647.5)" />
<use xlink:href="#f2_o" transform="matrix(12,0,0,12,669.5,647.5)" />
<use xlink:href="#f2_k" transform="matrix(12,0,0,12,679.5,647.5)" />
<use xlink:href="#f2_l" transform="matrix(12,0,0,12,649,669.1)" />
<use xlink:href="#f2_r" transform="matrix(12,0,0,12,659.2,669.1)" />
<use xlink:href="#f2_k" transform="matrix(12,0,0,12,669.5,669.1)" />
<use xlink:href="#f2_p" transform="matrix(12,0,0,12,679.5,669.1)" />
<use xlink:href="#f2_l" transform="matrix(12,0,0,12,649,690.5)" />
<use xlink:href="#f2_t" transform="matrix(12,0,0,12,659.2,690.5)" />
<use xlink:href="#f2_k" transform="matrix(12,0,0,12,669.5,690.5)" />
<use xlink:href="#f2_l" transform="matrix(12,0,0,12,649,712)" />
<use xlink:href="#f2_n" transform="matrix(12,0,0,12,659.2,712)" />
<use xlink:href="#f2_p" transform="matrix(12,0,0,12,669.5,712)" />
<use xlink:href="#f2_q" transform="matrix(12,0,0,12,649,733.6)" />
<use xlink:href="#f2_o" transform="matrix(12,0,0,12,659.2,733.6)" />
<use xlink:href="#f2_p" transform="matrix(12,0,0,12,669.5,733.6)" />
<use xlink:href="#f2_l" transform="matrix(12,0,0,12,649,755.1)" />
<use xlink:href="#f2_l" transform="matrix(12,0,0,12,659.2,755.1)" />
<use xlink:href="#f2_k" transform="matrix(12,0,0,12,669.5,755.1)" />
<use xlink:href="#f2_p" transform="matrix(12,0,0,12,649,776.7)" />
<use xlink:href="#f2_t" transform="matrix(12,0,0,12,659.2,776.7)" />
<use xlink:href="#f2_p" transform="matrix(12,0,0,12,669.5,776.7)" />
<use xlink:href="#f2_m" transform="matrix(12,0,0,12,649,819.8)" />
<use xlink:href="#f2_q" transform="matrix(12,0,0,12,659.2,819.8)" />
<use xlink:href="#f2_m" transform="matrix(12,0,0,12,669.5,819.8)" />
<use xlink:href="#f2_r" transform="matrix(12,0,0,12,679.5,819.8)" />
<use xlink:href="#f2_k" transform="matrix(12,0,0,12,689.8,819.8)" />
</g>
</g>
<path fill-rule="evenodd" d="M100.7,436l2.2,0l0,-1.1l-2.2,0l0,1.1Z" class="g1_4" />
<path fill-rule="evenodd" d="M102.9,436l537.3,0l0,-1.1l-537.3,0l0,1.1Z" class="g1_4" />
<path fill-rule="evenodd" d="M640.2,436l1.1,0l0,-1.1l-1.1,0l0,1.1Z" class="g1_4" />
<path fill-rule="evenodd" d="M641.3,436l165.5,0l0,-1.1l-165.5,0l0,1.1Z" class="g1_4" />
<path fill-rule="evenodd" d="M806.8,436l2.3,0l0,-1.1l-2.3,0l0,1.1Z" class="g1_4" />
<path fill-rule="evenodd" d="M100.7,845.5l2.2,0l0,-409.5l-2.2,0l0,409.5Z" class="g1_4" />
<path fill-rule="evenodd" d="M640.2,845.5l1.1,0l0,-409.5l-1.1,0l0,409.5Z" class="g1_4" />
<path fill-rule="evenodd" d="M806.8,845.5l2.3,0l0,-409.5l-2.3,0l0,409.5Z" class="g1_4" />
<g clip-path="url(#c4_4)">
<g fill="#000000" >
<use xlink:href="#f1_1g" transform="matrix(12,0,0,12,110,885.7)" />
<use xlink:href="#f1_2e" transform="matrix(12,0,0,12,122.3,885.7)" />
<use xlink:href="#f1_2b" transform="matrix(12,0,0,12,129.4,885.7)" />
<use xlink:href="#f1_26" transform="matrix(12,0,0,12,140.6,885.7)" />
<use xlink:href="#f1_21" transform="matrix(12,0,0,12,145.6,885.7)" />
<use xlink:href="#f1_1z" transform="matrix(12,0,0,12,155.8,885.7)" />
<use xlink:href="#f1_2g" transform="matrix(12,0,0,12,166.1,885.7)" />
<use xlink:href="#f1_21" transform="matrix(12,0,0,12,172.2,885.7)" />
<use xlink:href="#f1_20" transform="matrix(12,0,0,12,182.4,885.7)" />
<use xlink:href="#f3_4y" transform="matrix(12,0,0,12,198.8,885.7)" />
<use xlink:href="#f1_1j" transform="matrix(12,0,0,12,214.2,885.7)" />
<use xlink:href="#f1_2h" transform="matrix(12,0,0,12,226.4,885.7)" />
<use xlink:href="#f1_2e" transform="matrix(12,0,0,12,237.6,885.7)" />
<use xlink:href="#f1_2c" transform="matrix(12,0,0,12,244.8,885.7)" />
<use xlink:href="#f1_28" transform="matrix(12,0,0,12,256,885.7)" />
<use xlink:href="#f1_2h" transform="matrix(12,0,0,12,261.1,885.7)" />
<use xlink:href="#f1_2f" transform="matrix(12,0,0,12,272.1,885.7)" />
</g>
</g>
<g clip-path="url(#c5_4)">
<g fill="#000000" >
<use xlink:href="#f1_n" transform="matrix(12,0,0,12,649,885.7)" />
<use xlink:href="#f1_t" transform="matrix(12,0,0,12,659.2,885.7)" />
<use xlink:href="#f1_n" transform="matrix(12,0,0,12,669.5,885.7)" />
<use xlink:href="#f1_k" transform="matrix(12,0,0,12,679.5,885.7)" />
</g>
</g>
<path fill-rule="evenodd" d="M100.7,846.6l2.2,0l0,-1.1l-2.2,0l0,1.1Z" class="g1_4" />
<path fill-rule="evenodd" d="M102.9,846.6l537.3,0l0,-1.1l-537.3,0l0,1.1Z" class="g1_4" />
<path fill-rule="evenodd" d="M640.2,846.6l1.1,0l0,-1.1l-1.1,0l0,1.1Z" class="g1_4" />
<path fill-rule="evenodd" d="M641.3,846.6l165.5,0l0,-1.1l-165.5,0l0,1.1Z" class="g1_4" />
<path fill-rule="evenodd" d="M806.8,846.6l2.3,0l0,-1.1l-2.3,0l0,1.1Z" class="g1_4" />
<path fill-rule="evenodd" d="M100.7,911.3l2.2,0l0,-64.7l-2.2,0l0,64.7Z" class="g1_4" />
<path fill-rule="evenodd" d="M640.2,911.3l1.1,0l0,-64.7l-1.1,0l0,64.7Z" class="g1_4" />
<path fill-rule="evenodd" d="M806.8,911.3l2.3,0l0,-64.7l-2.3,0l0,64.7Z" class="g1_4" />
<g clip-path="url(#c6_4)">
<g fill="#000000" >
<use xlink:href="#f1_1g" transform="matrix(12,0,0,12,110,951.3)" />
<use xlink:href="#f1_2e" transform="matrix(12,0,0,12,122.3,951.3)" />
<use xlink:href="#f1_2b" transform="matrix(12,0,0,12,129.4,951.3)" />
<use xlink:href="#f1_26" transform="matrix(12,0,0,12,140.6,951.3)" />
<use xlink:href="#f1_21" transform="matrix(12,0,0,12,145.6,951.3)" />
<use xlink:href="#f1_1z" transform="matrix(12,0,0,12,155.8,951.3)" />
<use xlink:href="#f1_2g" transform="matrix(12,0,0,12,166.1,951.3)" />
<use xlink:href="#f1_21" transform="matrix(12,0,0,12,172.2,951.3)" />
<use xlink:href="#f1_20" transform="matrix(12,0,0,12,182.4,951.3)" />
<use xlink:href="#f3_4y" transform="matrix(12,0,0,12,198.8,951.3)" />
<use xlink:href="#f1_c" transform="matrix(12,0,0,12,214.2,951.3)" />
<use xlink:href="#f1_14" transform="matrix(12,0,0,12,220.3,951.3)" />
<use xlink:href="#f1_21" transform="matrix(12,0,0,12,233.4,951.3)" />
<use xlink:href="#f1_22" transform="matrix(12,0,0,12,243.7,951.3)" />
<use xlink:href="#f1_25" transform="matrix(12,0,0,12,249.8,951.3)" />
<use xlink:href="#f1_1z" transform="matrix(12,0,0,12,254.9,951.3)" />
<use xlink:href="#f1_25" transform="matrix(12,0,0,12,265.1,951.3)" />
<use xlink:href="#f1_2g" transform="matrix(12,0,0,12,270.2,951.3)" />
<use xlink:href="#f1_d" transform="matrix(12,0,0,12,276.3,951.3)" />
</g>
</g>
<g clip-path="url(#c7_4)">
<g fill="#000000" >
<use xlink:href="#f1_h" transform="matrix(12,0,0,12,649,951.3)" />
<use xlink:href="#f1_h" transform="matrix(12,0,0,12,655.1,951.3)" />
<use xlink:href="#f1_h" transform="matrix(12,0,0,12,661.1,951.3)" />
<use xlink:href="#f1_h" transform="matrix(12,0,0,12,667.2,951.3)" />
<use xlink:href="#f1_h" transform="matrix(12,0,0,12,673.3,951.3)" />
<use xlink:href="#f1_h" transform="matrix(12,0,0,12,679.4,951.3)" />
</g>
</g>
<path fill-rule="evenodd" d="M100.7,912.4l2.2,0l0,-1.1l-2.2,0l0,1.1Z" class="g1_4" />
<path fill-rule="evenodd" d="M102.9,912.4l537.3,0l0,-1.1l-537.3,0l0,1.1Z" class="g1_4" />
<path fill-rule="evenodd" d="M640.2,912.4l1.1,0l0,-1.1l-1.1,0l0,1.1Z" class="g1_4" />
<path fill-rule="evenodd" d="M641.3,912.4l165.5,0l0,-1.1l-165.5,0l0,1.1Z" class="g1_4" />
<path fill-rule="evenodd" d="M806.8,912.4l2.3,0l0,-1.1l-2.3,0l0,1.1Z" class="g1_4" />
<path fill-rule="evenodd" d="M100.7,977.1l2.2,0l0,-64.7l-2.2,0l0,64.7Z" class="g1_4" />
<path fill-rule="evenodd" d="M100.7,979.3l2.2,0l0,-2.2l-2.2,0l0,2.2Z" class="g1_4" />
<path fill-rule="evenodd" d="M100.7,979.3l2.2,0l0,-2.2l-2.2,0l0,2.2Z" class="g1_4" />
<path fill-rule="evenodd" d="M102.9,979.3l537.3,0l0,-2.2l-537.3,0l0,2.2Z" class="g1_4" />
<path fill-rule="evenodd" d="M640.2,977.1l1.1,0l0,-64.7l-1.1,0l0,64.7Z" class="g1_4" />
<path fill-rule="evenodd" d="M640.2,979.3l2.2,0l0,-2.2l-2.2,0l0,2.2Z" class="g1_4" />
<path fill-rule="evenodd" d="M642.4,979.3l164.4,0l0,-2.2l-164.4,0l0,2.2Z" class="g1_4" />
<path fill-rule="evenodd" d="M806.8,977.1l2.3,0l0,-64.7l-2.3,0l0,64.7Z" class="g1_4" />
<path fill-rule="evenodd" d="M806.8,979.3l2.3,0l0,-2.2l-2.3,0l0,2.2Z" class="g1_4" />
<path fill-rule="evenodd" d="M806.8,979.3l2.3,0l0,-2.2l-2.3,0l0,2.2Z" class="g1_4" />
<g fill="#000000" >
<use xlink:href="#f2_19" transform="matrix(12,0,0,12,110,1018.2)" />
<use xlink:href="#f2_2a" transform="matrix(12,0,0,12,115.1,1018.2)" />
<use xlink:href="#f2_1x" transform="matrix(12,0,0,12,130.5,1018.2)" />
<use xlink:href="#f2_20" transform="matrix(12,0,0,12,140.6,1018.2)" />
<use xlink:href="#f2_20" transform="matrix(12,0,0,12,150.9,1018.2)" />
<use xlink:href="#f2_25" transform="matrix(12,0,0,12,161.1,1018.2)" />
<use xlink:href="#f2_2g" transform="matrix(12,0,0,12,165.2,1018.2)" />
<use xlink:href="#f2_25" transform="matrix(12,0,0,12,170.3,1018.2)" />
<use xlink:href="#f2_2b" transform="matrix(12,0,0,12,174.4,1018.2)" />
<use xlink:href="#f2_2a" transform="matrix(12,0,0,12,184.6,1018.2)" />
<use xlink:href="#f2_2g" transform="matrix(12,0,0,12,199.8,1018.2)" />
<use xlink:href="#f2_2b" transform="matrix(12,0,0,12,204.9,1018.2)" />
<use xlink:href="#f2_2g" transform="matrix(12,0,0,12,220.1,1018.2)" />
<use xlink:href="#f2_24" transform="matrix(12,0,0,12,225.3,1018.2)" />
<use xlink:href="#f2_21" transform="matrix(12,0,0,12,235.5,1018.2)" />
<use xlink:href="#f2_1x" transform="matrix(12,0,0,12,250.7,1018.2)" />
<use xlink:href="#f2_2a" transform="matrix(12,0,0,12,261,1018.2)" />
<use xlink:href="#f2_2a" transform="matrix(12,0,0,12,271.1,1018.2)" />
<use xlink:href="#f2_2h" transform="matrix(12,0,0,12,281.3,1018.2)" />
<use xlink:href="#f2_1x" transform="matrix(12,0,0,12,291.4,1018.2)" />
<use xlink:href="#f2_28" transform="matrix(12,0,0,12,301.6,1018.2)" />
<use xlink:href="#f2_2b" transform="matrix(12,0,0,12,310.8,1018.2)" />
<use xlink:href="#f2_2c" transform="matrix(12,0,0,12,321.1,1018.2)" />
<use xlink:href="#f2_21" transform="matrix(12,0,0,12,331.1,1018.2)" />
<use xlink:href="#f2_2e" transform="matrix(12,0,0,12,341.4,1018.2)" />
<use xlink:href="#f2_1x" transform="matrix(12,0,0,12,347.5,1018.2)" />
<use xlink:href="#f2_2g" transform="matrix(12,0,0,12,357.7,1018.2)" />
<use xlink:href="#f2_25" transform="matrix(12,0,0,12,362.8,1018.2)" />
<use xlink:href="#f2_2a" transform="matrix(12,0,0,12,366.9,1018.2)" />
<use xlink:href="#f2_23" transform="matrix(12,0,0,12,377.1,1018.2)" />
<use xlink:href="#f2_1y" transform="matrix(12,0,0,12,392.3,1018.2)" />
<use xlink:href="#f2_2h" transform="matrix(12,0,0,12,402.6,1018.2)" />
<use xlink:href="#f2_20" transform="matrix(12,0,0,12,412.7,1018.2)" />
<use xlink:href="#f2_23" transform="matrix(12,0,0,12,422.9,1018.2)" />
<use xlink:href="#f2_21" transform="matrix(12,0,0,12,433,1018.2)" />
<use xlink:href="#f2_2g" transform="matrix(12,0,0,12,443.2,1018.2)" />
<use xlink:href="#f2_g" transform="matrix(12,0,0,12,448.3,1018.2)" />
<use xlink:href="#f2_2g" transform="matrix(12,0,0,12,458.6,1018.2)" />
<use xlink:href="#f2_24" transform="matrix(12,0,0,12,463.6,1018.2)" />
<use xlink:href="#f2_21" transform="matrix(12,0,0,12,473.7,1018.2)" />
<use xlink:href="#f2_1z" transform="matrix(12,0,0,12,489,1018.2)" />
<use xlink:href="#f2_28" transform="matrix(12,0,0,12,498.2,1018.2)" />
<use xlink:href="#f2_2h" transform="matrix(12,0,0,12,502.2,1018.2)" />
<use xlink:href="#f2_1y" transform="matrix(12,0,0,12,512.5,1018.2)" />
<use xlink:href="#f2_2g" transform="matrix(12,0,0,12,527.7,1018.2)" />
<use xlink:href="#f2_2e" transform="matrix(12,0,0,12,532.8,1018.2)" />
<use xlink:href="#f2_21" transform="matrix(12,0,0,12,538.9,1018.2)" />
<use xlink:href="#f2_1x" transform="matrix(12,0,0,12,549.1,1018.2)" />
<use xlink:href="#f2_2f" transform="matrix(12,0,0,12,559.4,1018.2)" />
<use xlink:href="#f2_2h" transform="matrix(12,0,0,12,568.6,1018.2)" />
<use xlink:href="#f2_2e" transform="matrix(12,0,0,12,578.8,1018.2)" />
<use xlink:href="#f2_21" transform="matrix(12,0,0,12,584.9,1018.2)" />
<use xlink:href="#f2_2e" transform="matrix(12,0,0,12,595.1,1018.2)" />
<use xlink:href="#f2_2f" transform="matrix(12,0,0,12,606.3,1018.2)" />
<use xlink:href="#f2_24" transform="matrix(12,0,0,12,615.3,1018.2)" />
<use xlink:href="#f2_2b" transform="matrix(12,0,0,12,625.5,1018.2)" />
<use xlink:href="#f2_2h" transform="matrix(12,0,0,12,635.6,1018.2)" />
<use xlink:href="#f2_28" transform="matrix(12,0,0,12,645.9,1018.2)" />
<use xlink:href="#f2_20" transform="matrix(12,0,0,12,649.9,1018.2)" />
<use xlink:href="#f2_1x" transform="matrix(12,0,0,12,665.1,1018.2)" />
<use xlink:href="#f2_28" transform="matrix(12,0,0,12,675.4,1018.2)" />
<use xlink:href="#f2_2f" transform="matrix(12,0,0,12,679.4,1018.2)" />
<use xlink:href="#f2_2b" transform="matrix(12,0,0,12,688.6,1018.2)" />
<use xlink:href="#f2_24" transform="matrix(12,0,0,12,703.9,1018.2)" />
<use xlink:href="#f2_1x" transform="matrix(12,0,0,12,714,1018.2)" />
<use xlink:href="#f2_2i" transform="matrix(12,0,0,12,724.3,1018.2)" />
<use xlink:href="#f2_21" transform="matrix(12,0,0,12,733.3,1018.2)" />
<use xlink:href="#f2_25" transform="matrix(12,0,0,12,748.6,1018.2)" />
<use xlink:href="#f2_2a" transform="matrix(12,0,0,12,752.7,1018.2)" />
<use xlink:href="#f2_2c" transform="matrix(12,0,0,12,110,1039.3)" />
<use xlink:href="#f2_28" transform="matrix(12,0,0,12,120.3,1039.3)" />
<use xlink:href="#f2_1x" transform="matrix(12,0,0,12,124.4,1039.3)" />
<use xlink:href="#f2_1z" transform="matrix(12,0,0,12,134.5,1039.3)" />
<use xlink:href="#f2_21" transform="matrix(12,0,0,12,143.7,1039.3)" />
<use xlink:href="#f2_1x" transform="matrix(12,0,0,12,159,1039.3)" />
<use xlink:href="#f2_29" transform="matrix(12,0,0,12,174.3,1039.3)" />
<use xlink:href="#f2_2b" transform="matrix(12,0,0,12,189.6,1039.3)" />
<use xlink:href="#f2_2a" transform="matrix(12,0,0,12,199.8,1039.3)" />
<use xlink:href="#f2_2g" transform="matrix(12,0,0,12,210.1,1039.3)" />
<use xlink:href="#f2_24" transform="matrix(12,0,0,12,215,1039.3)" />
<use xlink:href="#f2_h" transform="matrix(12,0,0,12,225.3,1039.3)" />
<use xlink:href="#f2_1y" transform="matrix(12,0,0,12,231.4,1039.3)" />
<use xlink:href="#f2_2l" transform="matrix(12,0,0,12,241.7,1039.3)" />
<use xlink:href="#f2_h" transform="matrix(12,0,0,12,250.7,1039.3)" />
<use xlink:href="#f2_29" transform="matrix(12,0,0,12,256.7,1039.3)" />
<use xlink:href="#f2_2b" transform="matrix(12,0,0,12,272.1,1039.3)" />
<use xlink:href="#f2_2a" transform="matrix(12,0,0,12,282.4,1039.3)" />
<use xlink:href="#f2_2g" transform="matrix(12,0,0,12,292.6,1039.3)" />
<use xlink:href="#f2_24" transform="matrix(12,0,0,12,297.6,1039.3)" />
<use xlink:href="#f2_1y" transform="matrix(12,0,0,12,312.9,1039.3)" />
<use xlink:href="#f2_2e" transform="matrix(12,0,0,12,323.2,1039.3)" />
<use xlink:href="#f2_21" transform="matrix(12,0,0,12,329.3,1039.3)" />
<use xlink:href="#f2_1x" transform="matrix(12,0,0,12,339.5,1039.3)" />
<use xlink:href="#f2_27" transform="matrix(12,0,0,12,349.8,1039.3)" />
<use xlink:href="#f2_h" transform="matrix(12,0,0,12,359,1039.3)" />
<use xlink:href="#f2_20" transform="matrix(12,0,0,12,364.9,1039.3)" />
<use xlink:href="#f2_2b" transform="matrix(12,0,0,12,375.2,1039.3)" />
<use xlink:href="#f2_2j" transform="matrix(12,0,0,12,385.4,1039.3)" />
<use xlink:href="#f2_2a" transform="matrix(12,0,0,12,398.4,1039.3)" />
<use xlink:href="#f2_2b" transform="matrix(12,0,0,12,413.8,1039.3)" />
<use xlink:href="#f2_22" transform="matrix(12,0,0,12,423.9,1039.3)" />
<use xlink:href="#f2_28" transform="matrix(12,0,0,12,434.3,1039.3)" />
<use xlink:href="#f2_25" transform="matrix(12,0,0,12,438.4,1039.3)" />
<use xlink:href="#f2_27" transform="matrix(12,0,0,12,442.4,1039.3)" />
<use xlink:href="#f2_21" transform="matrix(12,0,0,12,451.6,1039.3)" />
<use xlink:href="#f2_28" transform="matrix(12,0,0,12,461.8,1039.3)" />
<use xlink:href="#f2_2l" transform="matrix(12,0,0,12,465.9,1039.3)" />
<use xlink:href="#f2_21" transform="matrix(12,0,0,12,479.9,1039.3)" />
<use xlink:href="#f2_2k" transform="matrix(12,0,0,12,490.2,1039.3)" />
<use xlink:href="#f2_2c" transform="matrix(12,0,0,12,499.2,1039.3)" />
<use xlink:href="#f2_21" transform="matrix(12,0,0,12,509.4,1039.3)" />
<use xlink:href="#f2_2a" transform="matrix(12,0,0,12,519.7,1039.3)" />
<use xlink:href="#f2_2f" transform="matrix(12,0,0,12,529.9,1039.3)" />
<use xlink:href="#f2_21" transform="matrix(12,0,0,12,539.1,1039.3)" />
<use xlink:href="#f2_2f" transform="matrix(12,0,0,12,549.4,1039.3)" />
<use xlink:href="#f2_1x" transform="matrix(12,0,0,12,563.6,1039.3)" />
<use xlink:href="#f2_2a" transform="matrix(12,0,0,12,573.7,1039.3)" />
<use xlink:href="#f2_20" transform="matrix(12,0,0,12,584,1039.3)" />
<use xlink:href="#f2_2e" transform="matrix(12,0,0,12,599.3,1039.3)" />
<use xlink:href="#f2_21" transform="matrix(12,0,0,12,605.2,1039.3)" />
<use xlink:href="#f2_2i" transform="matrix(12,0,0,12,615.5,1039.3)" />
<use xlink:href="#f2_21" transform="matrix(12,0,0,12,624.5,1039.3)" />
<use xlink:href="#f2_2a" transform="matrix(12,0,0,12,634.7,1039.3)" />
<use xlink:href="#f2_2h" transform="matrix(12,0,0,12,645,1039.3)" />
<use xlink:href="#f2_21" transform="matrix(12,0,0,12,655.2,1039.3)" />
<use xlink:href="#f2_1x" transform="matrix(12,0,0,12,670.4,1039.3)" />
<use xlink:href="#f2_28" transform="matrix(12,0,0,12,680.7,1039.3)" />
<use xlink:href="#f2_25" transform="matrix(12,0,0,12,684.8,1039.3)" />
<use xlink:href="#f2_23" transform="matrix(12,0,0,12,688.7,1039.3)" />
<use xlink:href="#f2_2a" transform="matrix(12,0,0,12,698.8,1039.3)" />
<use xlink:href="#f2_21" transform="matrix(12,0,0,12,709.1,1039.3)" />
<use xlink:href="#f2_20" transform="matrix(12,0,0,12,719.3,1039.3)" />
<use xlink:href="#f2_2g" transform="matrix(12,0,0,12,734.7,1039.3)" />
<use xlink:href="#f2_2b" transform="matrix(12,0,0,12,739.8,1039.3)" />
<use xlink:href="#f2_2g" transform="matrix(12,0,0,12,755,1039.3)" />
<use xlink:href="#f2_24" transform="matrix(12,0,0,12,760.2,1039.3)" />
<use xlink:href="#f2_21" transform="matrix(12,0,0,12,770.2,1039.3)" />
<use xlink:href="#f2_2b" transform="matrix(12,0,0,12,110,1060.4)" />
<use xlink:href="#f2_2i" transform="matrix(12,0,0,12,120.3,1060.4)" />
<use xlink:href="#f2_21" transform="matrix(12,0,0,12,129.3,1060.4)" />
<use xlink:href="#f2_2e" transform="matrix(12,0,0,12,139.5,1060.4)" />
<use xlink:href="#f2_1x" transform="matrix(12,0,0,12,145.6,1060.4)" />
<use xlink:href="#f2_28" transform="matrix(12,0,0,12,155.8,1060.4)" />
<use xlink:href="#f2_28" transform="matrix(12,0,0,12,159.9,1060.4)" />
<use xlink:href="#f2_1y" transform="matrix(12,0,0,12,169,1060.4)" />
<use xlink:href="#f2_2h" transform="matrix(12,0,0,12,179.3,1060.4)" />
<use xlink:href="#f2_20" transform="matrix(12,0,0,12,189.5,1060.4)" />
<use xlink:href="#f2_23" transform="matrix(12,0,0,12,199.8,1060.4)" />
<use xlink:href="#f2_21" transform="matrix(12,0,0,12,209.9,1060.4)" />
<use xlink:href="#f2_2g" transform="matrix(12,0,0,12,220.1,1060.4)" />
<use xlink:href="#f2_22" transform="matrix(12,0,0,12,230.2,1060.4)" />
<use xlink:href="#f2_25" transform="matrix(12,0,0,12,235.5,1060.4)" />
<use xlink:href="#f2_23" transform="matrix(12,0,0,12,239.6,1060.4)" />
<use xlink:href="#f2_2h" transform="matrix(12,0,0,12,249.6,1060.4)" />
<use xlink:href="#f2_2e" transform="matrix(12,0,0,12,259.9,1060.4)" />
<use xlink:href="#f2_21" transform="matrix(12,0,0,12,266,1060.4)" />
<use xlink:href="#f2_2f" transform="matrix(12,0,0,12,276.2,1060.4)" />
</g>
<defs>
	<path d="M468.9,326.6l0,530.6l-1.5,0L153.3,326.6ZM530.1,-4.8c0,0,-17.9,0,-29.8,1.5c0,0,-12,1.5,-19,4.4c0,0,-7.1,2.9,-9.8,7c0,0,-2.6,4.2,-2.6,10.1l0,202.8L70.5,221c0,0,-8.9,0,-14.9,2.2c0,0,-6,2.2,-10.8,8.2c0,0,-4.9,5.9,-6.7,17.1c0,0,-1.9,11.2,-1.9,29c0,0,0,14.2,0.7,25.3c0,0,0.8,11.2,3,20.5c0,0,2.3,9.3,6,17.9c0,0,3.7,8.5,8.9,18.2L402.5,946.8c0,0,3.8,6,10.9,10.4c0,0,7,4.5,18.2,7.5c0,0,11.2,3,27.6,4.1c0,0,16.5,1.2,38.8,1.2c0,0,24.6,0,42.9,-1.9c0,0,18.3,-1.9,29.5,-4.9c0,0,11.2,-3,17.1,-7.8c0,0,6,-4.9,6,-11.6l0,-617.2l108.9,0c0,0,12.7,0,20.5,-13c0,0,7.9,-13.1,7.9,-39.8c0,0,0,-24.6,-7.5,-38.7c0,0,-7.4,-14.1,-20.9,-14.1l-108.9,0l0,-202.8c0,0,0,-5.9,-3,-10c0,0,-2.9,-4.2,-10.4,-7.1c0,0,-7.5,-2.9,-19.4,-4.4c0,0,-11.9,-1.5,-30.6,-1.5Z" 
	id="f0_s1"
	transform="scale(0.001,-0.001)" />

	<path d="M102.2,0l0,1051.1l220.1,0l0,-476.7L796,1051.1l256.6,0L603.5,606.5L1089.1,0L829.5,0L452.1,482.7L322.3,383.4L322.3,0Z" 
	id="f1_1b"
	transform="scale(0.001,-0.001)" />

	<path d="M360.3,132c0,0,49.3,0,89.9,26.8c0,0,40.7,26.8,63.8,74.1c0,0,23.1,47.3,23.1,100.2l0,40.9L429.7,372.5c0,0,-73.1,-2.9,-103.7,-16c0,0,-30.6,-13,-46.6,-39.8c0,0,-16.1,-26.8,-16.1,-71.5c0,0,0,-57.3,26.5,-85.3c0,0,26.5,-27.9,70.5,-27.9ZM293.2,-14.6c0,0,-117.2,0,-182.8,63.7c0,0,-65.6,63.9,-65.6,179.6c0,0,0,125.4,81.6,191c0,0,81.7,65.7,236.9,67.2l173.8,3l0,40.9c0,0,0,79,-27.6,117.3c0,0,-27.6,38.3,-90.3,38.3c0,0,-58.1,0,-85.4,-26.4c0,0,-27.2,-26.5,-33.9,-87.6L81.3,582.8c0,0,20.2,117.9,107.8,178.7c0,0,87.7,60.8,239.1,60.8c0,0,152.9,0,235.7,-75.3c0,0,82.8,-75.3,82.8,-213.9l0,-293.8c0,0,0,-67.8,15.3,-93.5c0,0,15.3,-25.7,51.1,-25.7c0,0,23.9,0,46.3,4.4l0,-113.7c0,0,-18.7,-4.5,-33.6,-8.3c0,0,-14.9,-3.6,-29.8,-5.9c0,0,-15,-2.2,-31.7,-3.7c0,0,-16.8,-1.5,-39.2,-1.5c0,0,-79.1,0,-116.7,38.7c0,0,-37.7,38.8,-45.2,114.1l-4.5,0c0,0,-88,-158.8,-265.5,-158.8Z" 
	id="f1_1x"
	transform="scale(0.001,-0.001)" />

	<path d="M106.7,0l0,627c0,0,0,64.9,-1.9,106.4c0,0,-1.9,41.4,-4.1,74.2l199.9,0c0,0,2.3,-14.2,6,-76.1c0,0,3.7,-62,3.7,-85.2l3,0c0,0,42.5,92.5,106.7,134.2c0,0,64.1,41.8,152.9,41.8c0,0,128.3,0,196.9,-79c0,0,68.7,-79,68.7,-231.1L838.5,0L629.6,0l0,452.5c0,0,0,212.4,-144,212.4c0,0,-76,0,-122.7,-65.2c0,0,-46.6,-65.3,-46.6,-167.4L316.3,0Z" 
	id="f1_2a"
	transform="scale(0.001,-0.001)" />

	<path d="M447.6,147.6c0,0,83.5,0,127.9,69.7c0,0,44.4,69.6,44.4,197.7c0,0,0,124.3,-44.4,194c0,0,-44.4,69.6,-126.4,69.6c0,0,-167.9,0,-167.9,-268.1c0,0,0,-262.9,166.4,-262.9Zm-3,-471.1c0,0,-147.7,0,-237.6,56.3c0,0,-89.9,56.3,-110.8,160.8l209.7,24.6c0,0,11.1,-48.1,48.1,-75.5c0,0,36.9,-27.4,96.6,-27.4c0,0,87.3,0,127.5,53.6c0,0,40.3,53.7,40.3,159.3l0,42.5l1.5,79.7l-1.5,0C618.4,150.4,549.1,2,358.8,2c0,0,-141,0,-218.5,105.8c0,0,-77.6,105.8,-77.6,302.5c0,0,0,197.4,79.8,304.7c0,0,79.8,107.3,232,107.3c0,0,176,0,243.9,-145.4l3.8,0c0,0,0,26.3,3.3,71.3c0,0,3.4,45.1,7.1,59.4l198.4,0c0,0,-4.4,-80.5,-4.4,-186.5l0,-596.3c0,0,0,-172.2,-97.8,-260.3c0,0,-97.7,-88,-284.2,-88Z" 
	id="f1_23"
	transform="scale(0.001,-0.001)" />

	<path d="M106.7,0l0,618c0,0,0,66.5,-1.9,110.9c0,0,-1.9,44.4,-4.1,78.7l199.9,0c0,0,2.3,-13.5,6,-82.1c0,0,3.7,-68.7,3.7,-91.2l3,0c0,0,30.6,85.1,54.5,119.8c0,0,23.8,34.6,56.7,51.4c0,0,32.8,16.8,82,16.8c0,0,40.3,0,64.9,-11.2l0,-175c0,0,-50.7,11.2,-89.5,11.2c0,0,-78.3,0,-122,-63.4c0,0,-43.6,-63.4,-43.6,-187.9l0,-396Z" 
	id="f1_2e"
	transform="scale(0.001,-0.001)" />

	<path d="M461,129.1c0,0,193.2,0,193.2,275.9c0,0,0,143.9,-47,208.7c0,0,-47,64.9,-136.5,64.9c0,0,-190.9,0,-190.9,-273.6c0,0,0,-135,46.6,-205.5c0,0,46.6,-70.4,134.6,-70.4Zm2.3,-143.7c0,0,-188.8,0,-296.2,111.8c0,0,-107.4,111.9,-107.4,307.4c0,0,0,194.7,107.4,306.2c0,0,107.4,111.5,300.6,111.5c0,0,197.7,0,301.8,-107.8c0,0,104.1,-107.8,104.1,-309.9c0,0,0,-196.2,-109,-307.7c0,0,-108.9,-111.5,-301.3,-111.5Z" 
	id="f1_2b"
	transform="scale(0.001,-0.001)" />

	<path d="M426,-14.6c0,0,-166.4,0,-254.8,52.4c0,0,-88.4,52.5,-117.5,163.5L238,228.8c0,0,15.6,-57.1,54.1,-80.9c0,0,38.4,-23.7,133.9,-23.7c0,0,88,0,128.3,22.3c0,0,40.3,22.3,40.3,69.9c0,0,0,38.7,-32.5,61.5c0,0,-32.4,22.7,-110,38.4c0,0,-177.6,35,-239.5,65.2c0,0,-61.9,30.1,-94.4,78.2c0,0,-32.4,48.1,-32.4,118.2c0,0,0,115.5,89.1,179.9c0,0,89.2,64.5,252.6,64.5c0,0,143.9,0,231.6,-56c0,0,87.6,-56.1,109.3,-162.2L582.6,584.7c0,0,-8.9,49.8,-44,74.3c0,0,-35.1,24.5,-111.1,24.5c0,0,-74.6,0,-111.9,-19.1c0,0,-37.3,-19.2,-37.3,-64.2c0,0,0,-35,28.7,-55.5c0,0,28.7,-20.5,96.6,-33.9c0,0,94.7,-19.4,168.2,-39.9c0,0,73.5,-20.5,117.9,-48.8c0,0,44.4,-28.3,70.8,-72.7c0,0,26.5,-44.3,26.5,-113.6c0,0,0,-117.1,-95.8,-183.7c0,0,-95.9,-66.7,-265.2,-66.7Z" 
	id="f1_2f"
	transform="scale(0.001,-0.001)" />

	<path d="M508.8,-14.6c0,0,-202.2,0,-317.1,71.5c0,0,-114.9,71.6,-147.7,217L256.6,309c0,0,21.7,-83.3,84.3,-120.9c0,0,62.7,-37.5,173.8,-37.5c0,0,230.5,0,230.5,139.8c0,0,0,44.7,-26.4,73.8c0,0,-26.5,29.1,-74.6,48.5c0,0,-48.2,19.4,-184.7,47c0,0,-117.8,27.6,-164.1,44.3c0,0,-46.2,16.8,-83.5,39.6c0,0,-37.3,22.7,-63.4,54.8c0,0,-26.2,32.1,-40.7,75.3c0,0,-14.5,43.3,-14.5,99.2c0,0,0,142.5,107,218.2c0,0,107,75.7,311.4,75.7c0,0,195.5,0,293.6,-61.2c0,0,98.1,-61.2,126.4,-202.1L718.4,774.4c0,0,-16.4,68.1,-66.8,102.5c0,0,-50.3,34.4,-144.3,34.4c0,0,-200,0,-200,-125.7c0,0,0,-41.1,21.3,-67.1c0,0,21.3,-26.1,63,-44.4c0,0,41.8,-18.3,169.4,-45.9c0,0,151.4,-32,216.7,-59.3c0,0,65.3,-27.2,103.3,-63.4c0,0,38.1,-36.1,58.2,-86.5c0,0,20.1,-50.3,20.1,-116c0,0,0,-154.3,-114.5,-236c0,0,-114.5,-81.6,-336,-81.6Z" 
	id="f1_1j"
	transform="scale(0.001,-0.001)" />

	<path d="M443.1,-14.6c0,0,-183.5,0,-283.5,109.2c0,0,-99.9,109.3,-99.9,304.7c0,0,0,200,100.7,311.5c0,0,100.7,111.5,285.7,111.5c0,0,142.5,0,235.7,-71.6c0,0,93.3,-71.6,117.2,-197.6L587.8,542.7c0,0,-8.9,61.9,-44.7,98.9c0,0,-35.8,37,-101.5,37c0,0,-161.8,0,-161.8,-270.7c0,0,0,-278.8,164.8,-278.8c0,0,59.7,0,100,37.6c0,0,40.2,37.5,50,112L804.9,269c0,0,-11.2,-82.9,-59.3,-147.8c0,0,-48.1,-65,-126.4,-100.4c0,0,-78.4,-35.4,-176.1,-35.4Z" 
	id="f1_1z"
	transform="scale(0.001,-0.001)" />

	<path d="M594.6,494.8c0,0,-6,98.2,-47,147.4c0,0,-41.1,49.1,-110.5,49.1c0,0,-73.8,0,-113.7,-51.8c0,0,-39.9,-51.7,-42.2,-144.7ZM437.1,-14.6c0,0,-182,0,-279.7,107.7c0,0,-97.7,107.8,-97.7,314.4c0,0,0,200,99.2,307.4c0,0,99.2,107.4,281.2,107.4c0,0,173.9,0,265.6,-115.2c0,0,91.8,-115.2,91.8,-337.4l0,-6l-517.7,0c0,0,0,-118.1,43.6,-178.3c0,0,43.6,-60.2,124.2,-60.2c0,0,111.1,0,140.2,96.8L785.5,204.8c0,0,-85.8,-219.4,-348.4,-219.4Z" 
	id="f1_21"
	transform="scale(0.001,-0.001)" />

	<path d="M593.1,-14.6c0,0,-253.7,0,-392,143.5c0,0,-138.4,143.6,-138.4,401.6c0,0,0,258.8,133.5,397.5c0,0,133.5,138.8,387.2,138.8c0,0,185,0,301.3,-74.2c0,0,116.4,-74.2,163.4,-218.1L854.2,721.6c0,0,-24.7,79,-96.7,125.5c0,0,-71.9,46.6,-169.7,46.6c0,0,-149.2,0,-226.4,-92.5c0,0,-77.2,-92.4,-77.2,-270.7c0,0,0,-181.2,79.5,-276.6c0,0,79.4,-95.5,229.4,-95.5c0,0,199.1,0,276.7,199.5l191.7,-72.3c0,0,-61.9,-152,-181.6,-226.1c0,0,-119.7,-74.1,-286.8,-74.1Z" 
	id="f1_13"
	transform="scale(0.001,-0.001)" />

	<path d="M106.7,0l0,1106.8l209.6,0L316.3,0Z" 
	id="f1_28"
	transform="scale(0.001,-0.001)" />

	<path d="M360.3,-14.6c0,0,-128.3,0,-196.9,78.7c0,0,-68.7,78.7,-68.7,230.9l0,512.6l209.6,0l0,-452.4c0,0,0,-212.4,143.3,-212.4c0,0,76.1,0,122.7,65.2c0,0,46.6,65.2,46.6,167.3l0,432.3l209.7,0l0,-627c0,0,0,-103,5.9,-180.6L632.6,0c0,0,-9,107.6,-9,160.6l-3.7,0c0,0,-41.8,-91.7,-106.3,-133.5c0,0,-64.5,-41.7,-153.3,-41.7Z" 
	id="f1_2h"
	transform="scale(0.001,-0.001)" />

	<path d="M485.6,129.1c0,0,166.4,0,166.4,277.9c0,0,0,137,-40.3,203.3c0,0,-40.3,66.3,-124.6,66.3c0,0,-85,0,-129.4,-71.1c0,0,-44.4,-71.2,-44.4,-205.3c0,0,0,-128.1,43.7,-199.6c0,0,43.6,-71.5,128.6,-71.5ZM561,-14.6c0,0,-85.8,0,-148.5,37.2c0,0,-62.7,37.3,-96.2,107.5l-1.5,0c0,0,0,-26.2,-3.4,-71.8c0,0,-3.3,-45.6,-7.1,-58.3L100.7,0c0,0,6,69.4,6,184.2l0,922.6l209.6,0l0,-308.5l-3,-131.2l3,0c0,0,70.9,155.2,258.1,155.2c0,0,143.2,0,219.7,-108.5c0,0,76.5,-108.6,76.5,-307c0,0,0,-199.9,-80.2,-310.7c0,0,-80.2,-110.7,-229.4,-110.7Z" 
	id="f1_1y"
	transform="scale(0.001,-0.001)" />

	<path d="M59.7,305.1l0,181.8l387.9,0l0,-181.8Z" 
	id="f1_h"
	transform="scale(0.001,-0.001)" />

	<path d="M591.6,158.4c0,0,147.7,0,227.9,97c0,0,80.2,96.9,80.2,275.1c0,0,0,170.1,-80.6,266.6c0,0,-80.6,96.6,-226,96.6c0,0,-147.8,0,-228.3,-95.8c0,0,-80.6,-95.9,-80.6,-267.4c0,0,0,-173,82.5,-272.5c0,0,82.4,-99.6,224.9,-99.6Zm0,-173c0,0,-247.7,0,-388.3,145.7c0,0,-140.6,145.8,-140.6,399.4c0,0,0,252.9,140.2,394.6c0,0,140.3,141.7,390.2,141.7c0,0,249.9,0,390.5,-143.2c0,0,140.6,-143.2,140.6,-393.1c0,0,0,-164,-64.9,-288.6c0,0,-64.9,-124.6,-185.7,-190.6c0,0,-120.9,-65.9,-282,-65.9Z" 
	id="f1_1f"
	transform="scale(0.001,-0.001)" />

	<path d="M484.1,129.1c0,0,167.9,0,167.9,278.5c0,0,0,271,-166.4,271c0,0,-83.5,0,-127.9,-73c0,0,-44.4,-73,-44.4,-204c0,0,0,-130.3,44.4,-201.4c0,0,44.4,-71.1,126.4,-71.1ZM106.7,-316.7l0,938.6c0,0,0,114.1,-6,185.7l203.6,0c0,0,3.8,-13.4,6.4,-53.1c0,0,2.6,-39.7,2.6,-78.7l3,0c0,0,70.9,148.5,258.1,148.5c0,0,141,0,218.6,-108.5c0,0,77.6,-108.5,77.6,-308.4c0,0,0,-202.1,-81,-312.1c0,0,-80.9,-109.9,-228.6,-109.9c0,0,-85.1,0,-148.1,36.9c0,0,-63.1,36.9,-96.6,106.3l-4.5,0c0,0,4.5,-22.4,4.5,-135.7l0,-309.6Z" 
	id="f1_2c"
	transform="scale(0.001,-0.001)" />

	<path d="M313.3,-13.6c0,0,-92.5,0,-142.5,50.3c0,0,-50,50.4,-50,152.7l0,476.5l-102.1,0l0,141.7l112.6,0l65.6,189.7l131.3,0l0,-189.7l153,0l0,-141.7l-153,0l0,-420.6c0,0,0,-59.1,22.4,-87.2c0,0,22.4,-28,69.4,-28c0,0,24.6,0,70.1,10.4l0,-129c0,0,-77.6,-25.1,-176.8,-25.1Z" 
	id="f1_2g"
	transform="scale(0.001,-0.001)" />

	<path d="M106.7,0l0,807.6l209.6,0L316.3,0Zm0,952.4l0,154.4l209.6,0l0,-154.4Z" 
	id="f1_25"
	transform="scale(0.001,-0.001)" />

	<path d="M609.5,163.3c0,0,105.9,0,154.8,38.5c0,0,48.8,38.5,48.8,115.6c0,0,0,148,-211.8,148l-279,0l0,-302.1ZM574.4,627.7c0,0,93.3,0,135.4,32.5c0,0,42.2,32.4,42.2,97.2c0,0,0,70.8,-45.2,100.6c0,0,-45.1,29.8,-133.9,29.8l-250.6,0l0,-260.1ZM102.2,0l0,1051.1l481.2,0c0,0,192.4,0,291.3,-66.7c0,0,98.8,-66.7,98.8,-197.1c0,0,0,-89.4,-49.6,-150.9c0,0,-49.6,-61.5,-151.1,-83.1c0,0,127.6,-14.9,194.4,-80.3c0,0,66.7,-65.3,66.7,-172.8c0,0,0,-143.4,-107.4,-221.8C926.5,78.4,819.1,0,628.1,0Z" 
	id="f1_12"
	transform="scale(0.001,-0.001)" />

	<path d="M446.1,129.1c0,0,82.8,0,128.3,72.6c0,0,45.5,72.6,45.5,206.7c0,0,0,130.4,-43.6,200.8c0,0,-43.7,70.4,-128.7,70.4c0,0,-84.3,0,-125.3,-68.2c0,0,-41.1,-68.2,-41.1,-208.2c0,0,0,-274.1,164.9,-274.1ZM357.3,-14.6c0,0,-141,0,-217.8,110c0,0,-76.8,110,-76.8,307.7c0,0,0,200.6,80.9,309.9c0,0,80.9,109.3,229.4,109.3c0,0,85.8,0,148.1,-35.8c0,0,62.3,-35.8,95.8,-106.7l1.5,0l-1.5,132.7l0,294.3l209.7,0l0,-930.8c0,0,0,-74.6,5.9,-176L629.6,0c0,0,-3,11.2,-7.1,56.4c0,0,-4.1,45.3,-4.1,75.2l-3,0c0,0,-67.8,-146.2,-258.1,-146.2Z" 
	id="f1_20"
	transform="scale(0.001,-0.001)" />

	<path d="M144,0l0,665.9l-117.9,0l0,141.7l117.9,0l0,84.1c0,0,0,109.4,58.2,162.3c0,0,58.1,52.8,176.8,52.8c0,0,58.9,0,132.7,-11.9l0,-134.6c0,0,-30.5,6.7,-61.1,6.7c0,0,-53.7,0,-75.7,-21.2c0,0,-22,-21.2,-22,-74.9l0,-63.3l158.8,0l0,-141.7l-158.8,0L352.9,0Z" 
	id="f1_22"
	transform="scale(0.001,-0.001)" />

	<path d="M53,0l0,145.5c0,0,41,90.2,116.7,176c0,0,75.7,85.8,190.6,179.1c0,0,110.4,89.5,154.8,147.7c0,0,44.4,58.1,44.4,114.1c0,0,0,138.1,-138,138.1c0,0,-67.2,0,-102.6,-36.4c0,0,-35.4,-36.4,-45.9,-109.3l-211.1,12c0,0,17.9,146.2,109.3,223.1c0,0,91.4,76.9,248.8,76.9c0,0,170.1,0,261.1,-77.6c0,0,91,-77.7,91,-217.9c0,0,0,-73.9,-29.1,-133.6c0,0,-29.1,-59.7,-74.6,-110.1c0,0,-45.5,-50.3,-101.1,-94.4c0,0,-55.6,-44,-107.8,-85.8c0,0,-52.2,-41.7,-95.1,-84.3c0,0,-42.9,-42.5,-63.8,-91l487.9,0L788.5,0Z" 
	id="f1_m"
	transform="scale(0.001,-0.001)" />

	<path d="M423,150.6c0,0,59.7,0,92.1,36.9c0,0,32.5,36.9,47,118.1c0,0,14.5,81.2,14.5,220.6c0,0,0,145.3,-14.1,225.8c0,0,-14.2,80.4,-45.5,115.5c0,0,-31.4,35,-91,35c0,0,-63.5,0,-95.9,-35.4c0,0,-32.5,-35.4,-46.3,-115.5c0,0,-13.7,-80.1,-13.7,-225.4c0,0,0,-143.9,14.5,-224.7c0,0,14.5,-80.9,46.2,-115.9c0,0,31.7,-35,92.2,-35ZM421.5,-14.6c0,0,-361.1,0,-361.1,540.6c0,0,0,188.7,39.6,308c0,0,39.5,119.4,118.6,176.1c0,0,79,56.7,208.9,56.7c0,0,186.5,0,273,-135c0,0,86.5,-135,86.5,-405.8c0,0,0,-266.2,-91.4,-403.4c0,0,-91.3,-137.2,-274.1,-137.2Z" 
	id="f1_k"
	transform="scale(0.001,-0.001)" />

	<path d="M96.2,0l0,155.5l260.4,0l0,717.3L104.4,715.7l0,164.9l263.4,170.5l198.4,0l0,-895.6l241,0L807.2,0Z" 
	id="f1_l"
	transform="scale(0.001,-0.001)" />

	<path d="M102.2,0l0,1051.1l220.1,0L322.3,0Z" 
	id="f1_19"
	transform="scale(0.001,-0.001)" />

	<path d="M106.7,0l0,627c0,0,0,64.9,-1.9,106.4c0,0,-1.9,41.4,-4.1,74.2l199.9,0c0,0,2.3,-14.2,6,-76.1c0,0,3.7,-62,3.7,-85.2l3,0c0,0,38.8,92.5,96.6,134.2c0,0,57.8,41.8,138.4,41.8c0,0,185,0,224.5,-176l4.5,0c0,0,41,94,98.5,135c0,0,57.4,41,146.2,41c0,0,117.9,0,179.8,-80.1c0,0,61.9,-80.2,61.9,-230L1263.7,0L1055.6,0l0,452.5c0,0,0,212.4,-122.4,212.4c0,0,-61.1,0,-100.3,-59.3c0,0,-39.2,-59.2,-42.9,-163.6L790,0L581.9,0l0,452.5c0,0,0,212.4,-122.4,212.4c0,0,-63.4,0,-103.3,-64.8c0,0,-39.9,-64.9,-39.9,-167.8L316.3,0Z" 
	id="f1_29"
	transform="scale(0.001,-0.001)" />

	<path d="M125.3,0l0,1051.1l187.3,0L592.3,322.3c0,0,14.9,-44,28.7,-94.4c0,0,13.8,-50.3,18.3,-72.7c0,0,6,29.8,25,90.6c0,0,19,60.8,25.7,76.5l274.6,728.8l182.7,0L1147.3,0L1019,0l0,701.2c0,0,0,116.4,6.7,223.8c0,0,-36.5,-133.5,-65.6,-208.8L688.5,0L588.6,0L313.3,716.2L271.5,843l-24.6,82l2.3,-82.8l2.9,-141L252.1,0Z" 
	id="f2_1d"
	transform="scale(0.001,-0.001)" />

	<path d="M643,478.1c0,0,-11.2,128,-64.9,186.7c0,0,-53.7,58.8,-154.4,58.8c0,0,-97.7,0,-154.8,-65.5c0,0,-57,-65.5,-61.5,-180ZM431.2,-14.6c0,0,-179.1,0,-272.7,106.6c0,0,-93.6,106.7,-93.6,317c0,0,0,200,93.6,306.6c0,0,93.6,106.7,267.5,106.7c0,0,355.8,0,355.8,-428.9l0,-17.9l-575.9,0c0,0,0,-138.3,57.4,-213.4c0,0,57.5,-75.1,167.9,-75.1c0,0,87.3,0,139.9,34.9c0,0,52.5,34.9,71.2,88.3L760.2,176.6c0,0,-72.4,-191.2,-329,-191.2Z" 
	id="f2_21"
	transform="scale(0.001,-0.001)" />

	<path d="M105.9,0l0,635.2c0,0,0,141.1,-4.4,172.4l126.8,0c0,0,0.7,-3.7,1.5,-20.2c0,0,0.7,-16.4,1.8,-37.7c0,0,1.1,-21.3,2.6,-80.4l2.3,0c0,0,43.3,85.8,99.2,119.4c0,0,55.9,33.6,136.5,33.6c0,0,91.8,0,145.1,-36.6c0,0,53.3,-36.5,74.2,-116.4l2.3,0c0,0,41.7,81.4,101,117.2c0,0,59.4,35.8,143.7,35.8c0,0,122.3,0,177.9,-66.4c0,0,55.5,-66.4,55.5,-217.9l0,-538L1039.2,0l0,512c0,0,0,117.1,-32.1,161.9c0,0,-32.1,44.8,-115.6,44.8c0,0,-88.1,0,-136.9,-65.3c0,0,-48.9,-65.3,-48.9,-185.5L705.7,0L572.9,0l0,512c0,0,0,117.1,-32.1,161.9c0,0,-32,44.8,-115.6,44.8c0,0,-85.8,0,-135.7,-65.7c0,0,-50,-65.7,-50,-185.1L239.5,0Z" 
	id="f2_29"
	transform="scale(0.001,-0.001)" />

	<path d="M452.8,84.1c0,0,101.5,0,146.6,75c0,0,45.1,75,45.1,243.8c0,0,0,169.5,-44.7,242.6c0,0,-44.8,73.2,-145.5,73.2c0,0,-113.4,0,-165.2,-77.7c0,0,-51.9,-77.6,-51.9,-246.3c0,0,0,-159.1,50.7,-234.8c0,0,50.8,-75.8,164.9,-75.8Zm35.8,-98.7c0,0,-91.7,0,-152.5,33.1c0,0,-60.8,33.2,-98.9,107.1l-1.5,0c0,0,0,-23.2,-2.9,-70.7c0,0,-3,-47.4,-4.5,-54.9L98.5,0c0,0,4.4,40.3,4.4,166.3l0,940.5l134.3,0l0,-315.2c0,0,0,-48.4,-3,-114l3,0c0,0,37.3,77.6,98.9,111.1c0,0,61.5,33.6,152.5,33.6c0,0,152.9,0,224.9,-102.9c0,0,72,-103,72,-311.9c0,0,0,-422.1,-296.9,-422.1Z" 
	id="f2_1y"
	transform="scale(0.001,-0.001)" />

	<path d="M105.9,0l0,619.5c0,0,0,85.1,-4.4,188.1l126.8,0c0,0,5.9,-137.4,5.9,-165.1l3,0c0,0,32.1,103.7,73.9,141.8c0,0,41.8,38,117.8,38c0,0,26.9,0,54.5,-7.5l0,-123c0,0,-26.9,7.4,-71.6,7.4c0,0,-83.6,0,-127.6,-72c0,0,-44,-72,-44,-206.3L240.2,0Z" 
	id="f2_2e"
	transform="scale(0.001,-0.001)" />

	<path d="M381.2,-14.6c0,0,-150.7,0,-232.4,49.6c0,0,-81.7,49.6,-106.3,154.7l118.6,23.2c0,0,17.2,-65.2,70.9,-95.5c0,0,53.7,-30.4,149.2,-30.4c0,0,102.2,0,149.6,31.4c0,0,47.3,31.4,47.3,94.3c0,0,0,47.7,-32.8,77.5c0,0,-32.8,29.8,-105.9,49.2l-96.2,25.3c0,0,-115.7,29.8,-164.5,58.5c0,0,-48.9,28.7,-76.5,69.7c0,0,-27.6,41,-27.6,100.6c0,0,0,110.3,78.7,168.1c0,0,78.7,57.8,229.4,57.8c0,0,133.5,0,212.2,-47c0,0,78.7,-47,99.6,-150.7L573.7,606.8c0,0,-11.2,53.6,-60.1,82.2c0,0,-48.8,28.7,-130.9,28.7c0,0,-91,0,-134.3,-27.5c0,0,-43.2,-27.5,-43.2,-83.2c0,0,0,-34.3,17.8,-56.7c0,0,17.9,-22.4,53,-38c0,0,35.1,-15.6,147.7,-43.2c0,0,106.7,-26.9,153.7,-49.6c0,0,47,-22.7,74.2,-50.3c0,0,27.3,-27.6,42.2,-63.7c0,0,14.9,-36.2,14.9,-82.4c0,0,0,-114,-86.2,-175.9c0,0,-86.1,-61.8,-241.3,-61.8Z" 
	id="f2_2f"
	transform="scale(0.001,-0.001)" />

	<path d="M615.4,0l0,512c0,0,0,85,-15.6,126.4c0,0,-15.7,41.5,-51.5,60.9c0,0,-35.8,19.4,-99.2,19.4c0,0,-94.8,0,-151.8,-65.7c0,0,-57.1,-65.6,-57.1,-176.8l0,-475.9l-134.3,0l0,1106.5l134.3,0l0,-287.7c0,0,0,-45.4,-2.6,-93.9c0,0,-2.6,-48.4,-3.4,-55.9l2.3,0c0,0,43.3,79.1,104,116.1c0,0,60.8,36.9,154.1,36.9c0,0,131.3,0,193.6,-65.3c0,0,62.3,-65.3,62.3,-219l0,-538Z" 
	id="f2_24"
	transform="scale(0.001,-0.001)" />

	<path d="M102.2,0l0,807.6l134.3,0L236.5,0Zm0,978.8l0,128l134.3,0l0,-128Z" 
	id="f2_25"
	transform="scale(0.001,-0.001)" />

	<path d="M452.8,84.1c0,0,100,0,145.9,73.6c0,0,45.8,73.6,45.8,247c0,0,0,169,-45.5,241.5c0,0,-45.5,72.5,-144.7,72.5c0,0,-79.8,0,-124.9,-33.7c0,0,-45.2,-33.6,-68.7,-105c0,0,-23.5,-71.4,-23.5,-185.7c0,0,0,-159.2,50.7,-234.7c0,0,50.8,-75.5,164.9,-75.5ZM102.9,-316.7l0,959.4c0,0,0,124.6,-4.4,164.9l129.8,0c0,0,0.7,-2.9,2.2,-21.2c0,0,1.5,-18.2,3.4,-56.1c0,0,1.8,-38,1.8,-52.1l3,0c0,0,35.8,74.7,94.8,109.4c0,0,58.9,34.7,155.1,34.7c0,0,149.2,0,223.1,-100c0,0,73.8,-100.1,73.8,-314.4c0,0,0,-422.5,-296.9,-422.5c0,0,-186.5,0,-250.6,140.3l-3.8,0c0,0,3,-6,3,-126.7l0,-315.7Z" 
	id="f2_2c"
	transform="scale(0.001,-0.001)" />

	<path d="M135,0l0,709.9l-113.4,0l0,97.7l113.4,0l0,91c0,0,0,110.3,48.5,158.8c0,0,48.5,48.5,148.5,48.5c0,0,55.9,0,94.7,-9l0,-102.6c0,0,-33.6,6,-59.7,6c0,0,-51.5,0,-74.6,-26.1c0,0,-23.1,-26,-23.1,-94.4l0,-72.2l157.4,0l0,-97.7l-157.4,0L269.3,0Z" 
	id="f2_22"
	transform="scale(0.001,-0.001)" />

	<path d="M590.1,-14.6c0,0,-158.9,0,-274.9,65.9c0,0,-116,66,-176.8,188.7c0,0,-60.8,122.7,-60.8,290.5c0,0,0,251.4,135.8,393.8c0,0,135.7,142.5,375.9,142.5c0,0,167.9,0,280.5,-65.7c0,0,112.7,-65.6,165.6,-194.7l-135,-44.7c0,0,-36.5,92.2,-117.5,140.9c0,0,-80.9,48.8,-192.1,48.8c0,0,-174.5,0,-271.5,-112.3c0,0,-97,-112.4,-97,-308c0,0,0,-193.3,101.1,-310.9c0,0,101.1,-117.5,273.4,-117.5c0,0,220.8,0,332,218l116.3,-58.1c0,0,-64.9,-135.7,-182.4,-206.5c0,0,-117.5,-70.7,-272.6,-70.7Z" 
	id="f2_13"
	transform="scale(0.001,-0.001)" />

	<path d="M339.4,87c0,0,73.9,0,131.3,33.5c0,0,57.5,33.5,90.7,92c0,0,33.2,58.4,33.2,120.2l0,66.2L447.6,396c0,0,-94.7,-1.5,-143.6,-19.4c0,0,-48.9,-17.8,-75,-55.1c0,0,-26.1,-37.2,-26.1,-97.5c0,0,0,-65.5,35.4,-101.2c0,0,35.5,-35.8,101.1,-35.8ZM308.8,-14.6c0,0,-121.6,0,-182.7,64.1c0,0,-61.2,64.2,-61.2,176.1c0,0,0,125.4,82.4,192.6c0,0,82.5,67.1,266,71.6l181.3,3l0,44.1c0,0,0,98.6,-41.8,141.2c0,0,-41.8,42.5,-131.3,42.5c0,0,-90.3,0,-131.3,-30.7c0,0,-41,-30.8,-49.3,-98.3L100.7,604.2c0,0,34.3,218.1,323.8,218.1c0,0,152.1,0,229,-69.8c0,0,76.8,-69.9,76.8,-202.1l0,-348c0,0,0,-59.8,15.7,-90c0,0,15.7,-30.3,59.7,-30.3c0,0,19.4,0,44,5.3l0,-83.3C849.7,4.1,799,-7.7,746,-7.7c0,0,-74.6,0,-108.5,39.2c0,0,-34,39.3,-38.5,123.2l-4.4,0c0,0,-51.5,-92.5,-119.8,-130.9c0,0,-68.2,-38.4,-166,-38.4Z" 
	id="f2_1x"
	transform="scale(0.001,-0.001)" />

	<path d="M105.9,0l0,635.2c0,0,0,141.1,-4.4,172.4l126.8,0c0,0,0.7,-3.7,1.5,-20.2c0,0,0.7,-16.4,1.8,-37.7c0,0,1.1,-21.3,2.6,-80.4l2.3,0c0,0,46.2,83.6,107,118.3c0,0,60.8,34.7,151.1,34.7c0,0,132.8,0,194.3,-66c0,0,61.6,-66.1,61.6,-218.3l0,-538L615.4,0l0,512c0,0,0,79.8,-15.6,123.8c0,0,-15.7,44.1,-50,63.5c0,0,-34.3,19.4,-100.7,19.4c0,0,-97,0,-152.9,-66.4c0,0,-56,-66.5,-56,-184.4L240.2,0Z" 
	id="f2_2a"
	transform="scale(0.001,-0.001)" />

	<path d="M277.5,-11.6c0,0,-161.1,0,-161.1,182.7l0,538.8l-93.3,0l0,97.7l98.5,0l39.5,180.9l89.5,0l0,-180.9l149.3,0l0,-97.7l-149.3,0l0,-509.8c0,0,0,-58.2,19.1,-81.7c0,0,19,-23.5,66,-23.5c0,0,26.8,0,77.6,10.4l0,-99.1c0,0,-66.4,-17.8,-135.8,-17.8Z" 
	id="f2_2g"
	transform="scale(0.001,-0.001)" />

	<path d="M102.9,0l0,1106.8l134.3,0L237.2,0Z" 
	id="f2_28"
	transform="scale(0.001,-0.001)" />

	<path d="M125.3,0l0,1051.1l746.8,0l0,-115.4l-604.3,0l0,-392.1l586.4,0l0,-118.3l-586.4,0L267.8,0Z" 
	id="f2_16"
	transform="scale(0.001,-0.001)" />

	<path d="M355.1,-14.6c0,0,-132.8,0,-194.3,66c0,0,-61.6,66,-61.6,218.2l0,538l135,0l0,-511.9c0,0,0,-79.9,15.7,-123.9c0,0,15.7,-44,50,-63.4c0,0,34.3,-19.4,100.7,-19.4c0,0,97,0,152.9,66.4c0,0,56,66.4,56,184.3l0,467.9l134.3,0l0,-635.2c0,0,0,-141,4.4,-172.4L621.4,0c0,0,-0.7,3.7,-1.5,20.2c0,0,-0.7,16.4,-1.9,37.7c0,0,-1.1,21.3,-2.6,80.3l-2.2,0c0,0,-46.3,-83.5,-107.1,-118.2c0,0,-60.8,-34.6,-151,-34.6Z" 
	id="f2_2h"
	transform="scale(0.001,-0.001)" />

	<path d="M395.4,89c0,0,114.1,0,165.6,79.1c0,0,51.5,79.2,51.5,245.6c0,0,0,160.6,-51.5,235.2c0,0,-51.5,74.7,-164.1,74.7c0,0,-101.5,0,-146.6,-75.1c0,0,-45.1,-75,-45.1,-243.7c0,0,0,-169.5,44.7,-242.6c0,0,44.8,-73.2,145.5,-73.2ZM361.1,-14.6c0,0,-153,0,-225,102.9c0,0,-71.9,102.9,-71.9,311.8c0,0,0,422.2,296.9,422.2c0,0,91.7,0,152.9,-33.6c0,0,61.1,-33.5,98.5,-106.6l1.5,0l-1.5,90.1l0,334.6l134.2,0l0,-940.5c0,0,0,-126,4.5,-166.3L622.9,0c0,0,-2.2,11.9,-4.9,55.3c0,0,-2.6,43.3,-2.6,74.8l-2.9,0c0,0,-37.4,-77.6,-98.9,-111.2c0,0,-61.5,-33.5,-152.5,-33.5Z" 
	id="f2_20"
	transform="scale(0.001,-0.001)" />

	<path d="M397.6,92.9c0,0,63.4,0,112.6,37.3c0,0,49.3,37.3,76.1,107.1c0,0,26.9,69.7,26.9,166c0,0,0,98.5,-26.9,169.7c0,0,-26.8,71.3,-75.7,109c0,0,-48.8,37.7,-110.7,37.7c0,0,-103,0,-150,-74.7c0,0,-47,-74.6,-47,-241.7c0,0,0,-165.7,44,-238c0,0,44,-72.4,150.7,-72.4Zm11.2,-409.6c0,0,-132,0,-210.4,51.9c0,0,-78.3,51.8,-100.7,147.3l135,19.4c0,0,13.5,-56.2,59.4,-86.5c0,0,45.8,-30.4,120.4,-30.4c0,0,200.7,0,200.7,235l0,129.9l-1.5,0c0,0,-38,-77.5,-104.4,-116.6c0,0,-66.4,-39.1,-155.2,-39.1c0,0,-148.4,0,-218.2,98.3c0,0,-69.7,98.4,-69.7,309.4c0,0,0,214,74.9,315.7c0,0,75,101.8,227.9,101.8c0,0,85.8,0,148.9,-39.2c0,0,63,-39.1,97.3,-111.4l1.5,0c0,0,0,22.5,3,78c0,0,3,55.6,5.9,60.8l127.6,0c0,0,-4.5,-40.3,-4.5,-167.1l0,-617.1c0,0,0,-340.1,-337.9,-340.1Z" 
	id="f2_23"
	transform="scale(0.001,-0.001)" />

	<path d="M298.4,0L5.2,807.6l143.3,0L326,282.5c0,0,9.7,-29.9,51.5,-176.8L403.6,193l29.1,88L616.2,807.6l142.5,0L457.3,0Z" 
	id="f2_2i"
	transform="scale(0.001,-0.001)" />

	<path d="M514.7,-14.6c0,0,-384.2,0,-445.3,267l138,27.6c0,0,23.9,-94.6,101.4,-138.9c0,0,77.6,-44.3,211.1,-44.3c0,0,138.1,0,213,47.3c0,0,75,47.2,75,138.8c0,0,0,51.5,-23.5,83.5c0,0,-23.5,32.1,-66,53c0,0,-42.5,20.9,-101.5,35c0,0,-58.9,14.2,-130.5,30.6c0,0,-124.6,27.6,-189.1,55.2c0,0,-64.6,27.6,-101.9,61.5c0,0,-37.2,34,-57,79.5c0,0,-19.8,45.5,-19.8,104.4c0,0,0,135,103.3,208.1c0,0,103.3,73.1,295.8,73.1c0,0,179,0,273.8,-54.9c0,0,94.7,-54.9,132.8,-187L784,800.3c0,0,-23.1,83.6,-88,121.2c0,0,-64.9,37.7,-179.8,37.7c0,0,-126.1,0,-192.4,-41.7c0,0,-66.4,-41.7,-66.4,-124.5c0,0,0,-48.5,25.7,-80.1c0,0,25.7,-31.7,74.2,-53.7c0,0,48.5,-22,193.2,-54.1c0,0,48.5,-11.2,96.6,-22.7c0,0,48.2,-11.6,92.2,-27.6c0,0,44,-16.1,82.4,-37.7c0,0,38.4,-21.6,66.8,-53c0,0,28.3,-31.3,44.3,-73.8c0,0,16.1,-42.5,16.1,-99.9c0,0,0,-145.5,-113.8,-225.3c0,0,-113.7,-79.7,-320.4,-79.7Z" 
	id="f2_1j"
	transform="scale(0.001,-0.001)" />

	<path d="M420,84.1c0,0,120.8,0,172.7,77.7c0,0,51.8,77.7,51.8,242.8c0,0,0,167.3,-49.6,243.1c0,0,-49.6,75.9,-166.7,75.9c0,0,-117.9,0,-170.4,-77.3c0,0,-52.6,-77.4,-52.6,-241.7c0,0,0,-159.9,51.8,-240.2c0,0,51.8,-80.3,163,-80.3Zm1.5,-98.7c0,0,-176.8,0,-267.1,107.7c0,0,-90.2,107.8,-90.2,311.5c0,0,0,417.7,361.8,417.7c0,0,185,0,272.2,-101.8c0,0,87.3,-101.8,87.3,-315.9c0,0,0,-211.9,-93.2,-315.6C692.3,89,599,-14.6,421.5,-14.6Z" 
	id="f2_2b"
	transform="scale(0.001,-0.001)" />

	<path d="M412.5,-14.6c0,0,-169.3,0,-258.5,107c0,0,-89.1,107,-89.1,312.2c0,0,0,203.6,89.5,310.7c0,0,89.5,107,256.6,107c0,0,123.9,0,205.6,-64.1c0,0,81.6,-64.2,102.5,-176.8L581.1,571c0,0,-10.4,66.9,-52.9,106.3c0,0,-42.6,39.4,-120.9,39.4c0,0,-106.7,0,-154.4,-70.8c0,0,-47.7,-70.9,-47.7,-238.7c0,0,0,-161.1,50.7,-238.7c0,0,50.7,-77.6,152.9,-77.6c0,0,71.6,0,119.7,38.9c0,0,48.1,38.8,59.3,119.5l135.8,-8.9c0,0,-15.7,-116.4,-99.2,-185.7c0,0,-83.6,-69.3,-211.9,-69.3Z" 
	id="f2_1z"
	transform="scale(0.001,-0.001)" />

	<path d="M356.6,0l0,881L17.2,881l0,170.1l899.6,0l0,-170.1l-340.2,0l0,-881Z" 
	id="f1_1k"
	transform="scale(0.001,-0.001)" />

	<path d="M702.7,434.1L599,736.3L566.9,837.7l-15.6,51.5l-4.5,-16.4c0,0,-7.4,-26.9,-17.9,-61.2c0,0,-10.4,-34.3,-128.3,-377.5ZM38,0L421.5,1051.1l259.6,0L1063,0L845.2,0L752,268.9l-400.6,0L258.1,0Z" 
	id="f1_11"
	transform="scale(0.001,-0.001)" />

	<path d="M102.2,0l0,1051.1l220.1,0l0,-881l563.9,0L886.2,0Z" 
	id="f1_1c"
	transform="scale(0.001,-0.001)" />

	<path d="M469.2,169.2c0,0,164.9,11.1,164.9,134.9c0,0,0,37.3,-13.4,60.7c0,0,-13.5,23.5,-39.2,38.4c0,0,-25.7,15,-112.3,39.6l0,-273.6ZM387.9,642.7l0,248.1c0,0,-138.7,-10.5,-138.7,-119.6c0,0,0,-32.9,11.5,-54.5c0,0,11.6,-21.7,33.6,-35.9c0,0,22,-14.2,93.6,-38.1Zm0,-756.2l0,128.2c0,0,-160.4,5.9,-249.9,75.7c0,0,-89.5,69.8,-117.9,213.8l191,35.1c0,0,14.2,-84.3,56.3,-123.5c0,0,42.2,-39.2,120.5,-46.6l0,291.5c0,0,-2.2,1.5,-11.2,3.3c0,0,-8.9,1.9,-11.9,1.9c0,0,-120.9,27.6,-182.4,65.2c0,0,-61.6,37.7,-95.1,95.5c0,0,-33.6,57.8,-33.6,141.4c0,0,0,123.8,85.4,191.7c0,0,85.4,67.8,248.8,73.8l0,100l81.3,0l0,-100c0,0,97.7,-3.7,163,-31c0,0,65.3,-27.2,105.2,-79.9c0,0,39.9,-52.6,64.5,-150.4L605,743.1c0,0,-11.2,65.2,-43.6,100.8c0,0,-32.5,35.6,-92.2,43.9l0,-263l8.2,-1.5c0,0,21.7,0,131.7,-35.8c0,0,110,-35.8,164.5,-105.6c0,0,54.4,-69.7,54.4,-174.9c0,0,0,-135,-90.6,-209.2c0,0,-90.6,-74.2,-268.2,-80.9l0,-130.4Z" 
	id="f1_8"
	transform="scale(0.001,-0.001)" />

	<path d="M116.4,0l0,114.4l267.8,0l0,808.4L147,753.9l0,126.8l248.4,170.4l123.8,0l0,-936.7l255.9,0L775.1,0Z" 
	id="f2_l"
	transform="scale(0.001,-0.001)" />

	<path d="M76.8,0l0,95c0,0,38.1,87.2,92.9,154c0,0,54.8,66.7,115.3,120.8c0,0,60.4,54.1,119.7,100.3c0,0,59.3,46.2,107,92.5c0,0,47.8,46.2,77.3,96.9c0,0,29.4,50.7,29.4,114.9c0,0,0,86.5,-50.7,134.2c0,0,-50.7,47.7,-141,47.7c0,0,-85.8,0,-141.4,-46.6c0,0,-55.5,-46.7,-65.2,-131L82.8,791.4c0,0,14.9,126.1,107,200.7c0,0,92.2,74.7,236.9,74.7c0,0,158.9,0,244.3,-75c0,0,85.4,-74.9,85.4,-212.9c0,0,0,-61.2,-27.9,-121.6c0,0,-28,-60.4,-83.2,-120.8c0,0,-55.2,-60.4,-211.1,-187.2c0,0,-85.8,-70.1,-136.5,-126.4c0,0,-50.8,-56.3,-73.2,-108.5l548.3,0L772.8,0Z" 
	id="f2_m"
	transform="scale(0.001,-0.001)" />

	<path d="M438.6,93.9c0,0,97,0,152.2,65.2c0,0,55.2,65.1,55.2,179.2c0,0,0,114,-55.9,175.8c0,0,-56,61.8,-155.9,61.8c0,0,-94,0,-151.8,-54.7c0,0,-57.9,-54.8,-57.9,-150.9c0,0,0,-121.5,60.1,-198.9c0,0,60.1,-77.5,154,-77.5Zm4.5,-108.5c0,0,-177.5,0,-271.5,131.9c0,0,-94,132,-94,384.1c0,0,0,273,97.7,419.2c0,0,97.7,146.2,278.3,146.2c0,0,237.9,0,299.8,-213.7L625.1,829.9c0,0,-39.5,128.3,-173,128.3c0,0,-114.9,0,-178,-107.1c0,0,-63,-107.1,-63,-310.2c0,0,36.6,67.8,103,103.2c0,0,66.3,35.5,152.1,35.5c0,0,145.5,0,230.9,-91c0,0,85.4,-91,85.4,-244.6c0,0,0,-166.3,-90.2,-262.5c0,0,-90.3,-96.1,-249.2,-96.1Z" 
	id="f2_q"
	transform="scale(0.001,-0.001)" />

	<path d="M424.5,95.8c0,0,118.6,0,173.8,105.9c0,0,55.2,105.8,55.2,325c0,0,0,227.3,-52.6,329.4c0,0,-52.6,102.1,-173.4,102.1c0,0,-123.9,0,-178,-100.6c0,0,-54.1,-100.6,-54.1,-330.9c0,0,0,-223.7,54.9,-327.3c0,0,54.8,-103.6,174.2,-103.6ZM423,-14.6c0,0,-181.3,0,-272.3,137.9c0,0,-91,138,-91,402.7c0,0,0,270.8,88.4,405.8c0,0,88.4,135,279.4,135c0,0,185.7,0,274.1,-136.5c0,0,88.4,-136.5,88.4,-404.3c0,0,0,-263.2,-92.9,-401.9c0,0,-92.8,-138.7,-274.1,-138.7Z" 
	id="f2_k"
	transform="scale(0.001,-0.001)" />

	<path d="M425.9,-14.6c0,0,-159.6,0,-254.7,71.9c0,0,-95.1,72,-113,213L196.9,283c0,0,26.9,-187.2,229.1,-187.2c0,0,101.4,0,159.2,50.1c0,0,57.8,50.1,57.8,148.8c0,0,0,86,-66,134.2c0,0,-66,48.3,-190.6,48.3l-76.1,0l0,116.3l73.1,0c0,0,110.4,0,171.2,48c0,0,60.8,48.1,60.8,133c0,0,0,84.2,-49.6,133c0,0,-49.6,48.8,-147.3,48.8c0,0,-88.8,0,-143.6,-45.5c0,0,-54.8,-45.5,-63.8,-128.3l-135,10.4c0,0,14.9,129.1,107,201.5c0,0,92.2,72.4,236.9,72.4c0,0,158.1,0,245.8,-73.5c0,0,87.6,-73.4,87.6,-204.6c0,0,0,-100.6,-56.3,-163.5c0,0,-56.3,-63,-163.7,-85.4l0,-3c0,0,117.8,-12.7,183.5,-79.1c0,0,65.6,-66.4,65.6,-167.1c0,0,0,-145.6,-92.5,-225.4c0,0,-92.5,-79.8,-264.1,-79.8Z" 
	id="f2_n"
	transform="scale(0.001,-0.001)" />

	<path d="M412.5,-14.6c0,0,-146.9,0,-237.2,64.1c0,0,-90.3,64.2,-114.1,185.7l135.7,15.7c0,0,42.6,-155.1,218.6,-155.1c0,0,108.2,0,169.3,65c0,0,61.2,65.1,61.2,178.8c0,0,0,98.8,-61.5,159.7c0,0,-61.6,61,-166,61c0,0,-54.5,0,-101.5,-17.2c0,0,-46.9,-17.1,-93.9,-58.2l-131.3,0l35,566.2l597.6,0l0,-114.4l-475.2,0L229,603.6c0,0,87.3,67.2,217.1,67.2c0,0,155.2,0,247.3,-91c0,0,92.1,-91,92.1,-237.2c0,0,0,-166.3,-98.8,-261.8c0,0,-98.9,-95.4,-274.2,-95.4Z" 
	id="f2_p"
	transform="scale(0.001,-0.001)" />

	<path d="M426.7,86.1c0,0,109.7,0,163.4,52.5c0,0,53.7,52.5,53.7,167.3c0,0,0,97.6,-58.2,147.1c0,0,-58.2,49.6,-163.4,49.6c0,0,-102.2,0,-159.6,-53.3c0,0,-57.4,-53.3,-57.4,-146.4c0,0,0,-216.8,221.5,-216.8Zm-3,517.2c0,0,94.8,0,144.4,43.6c0,0,49.6,43.5,49.6,141.1c0,0,0,178.1,-195.5,178.1c0,0,-94.7,0,-144.3,-44.7c0,0,-49.6,-44.7,-49.6,-133.4c0,0,0,-90.1,51.1,-137.4c0,0,51.1,-47.3,144.3,-47.3Zm1.5,-617.9c0,0,-168.6,0,-263.7,79.7c0,0,-95.1,79.7,-95.1,226.6c0,0,0,102.8,58.9,172.9c0,0,59,70.1,150.7,85l0,3c0,0,-85.8,20.1,-135.4,87.3c0,0,-49.6,67.1,-49.6,157.4c0,0,0,120.2,89.9,194.8c0,0,89.9,74.7,241.3,74.7c0,0,155.2,0,245.1,-73.2c0,0,89.9,-73.1,89.9,-197.7c0,0,0,-90.4,-50,-157.5c0,0,-50,-67.2,-136.5,-84.4l0,-2.9c0,0,100.7,-16.4,156.6,-85.4c0,0,56,-68.9,56,-172.5c0,0,0,-145.4,-92.5,-226.6c0,0,-92.5,-81.2,-265.6,-81.2Z" 
	id="f2_s"
	transform="scale(0.001,-0.001)" />

	<path d="M102.2,0l0,1051.1l826.6,0l0,-170.1l-606.5,0l0,-264l561,0l0,-170.1l-561,0l0,-276.8l637,0L959.3,0Z" 
	id="f1_15"
	transform="scale(0.001,-0.001)" />

	<path d="M10.5,0L305.9,417.3L24.6,807.6l226,0L423,543.4L594.6,807.6l227.5,0L540.8,419.5L838.5,0L611,0L423,292.6L233.5,0Z" 
	id="f1_2k"
	transform="scale(0.001,-0.001)" />

	<path d="M556.5,522.1c0,0,238.7,0,238.7,211.1c0,0,0,203.5,-244.7,203.5l-282.7,0l0,-414.6ZM125.3,0l0,1051.1l442.4,0c0,0,176.8,0,273.8,-82.8c0,0,97,-82.8,97,-233.4c0,0,0,-149.2,-97.4,-237.2c0,0,-97.3,-88,-264.5,-88l-308.8,0L267.8,0Z" 
	id="f2_1g"
	transform="scale(0.001,-0.001)" />

	<path d="M142.5,-316.7c0,0,-55.2,0,-92.5,8.2l0,100.9c0,0,28.3,-4.5,62.6,-4.5c0,0,125.4,0,198.5,184.3l12.7,32L3.7,807.6l143.3,0L317,361.5c0,0,3.8,-10.4,9,-24.9c0,0,5.2,-14.6,33.6,-97.4c0,0,28.3,-82.8,30.5,-92.5l52.3,147L619.2,807.6l141.7,0L450.6,0.3c0,0,-50,-129,-93.3,-192c0,0,-43.2,-63.1,-95.8,-94c0,0,-52.6,-31,-119,-31Z" 
	id="f2_2l"
	transform="scale(0.001,-0.001)" />

	<path d="M395.4,0l0,935.7l-361.1,0l0,115.4l863.9,0l0,-115.4l-361.1,0L537.1,0Z" 
	id="f2_1k"
	transform="scale(0.001,-0.001)" />

	<path d="M125.3,0l0,1051.1l142.5,0l0,-935.7l531.2,0L799,0Z" 
	id="f2_1c"
	transform="scale(0.001,-0.001)" />

	<path d="M125.3,0l0,1051.1l797.5,0l0,-115.4l-655,0l0,-338.3l610.2,0l0,-115.3l-610.2,0l0,-366.7l685.6,0L953.4,0Z" 
	id="f2_15"
	transform="scale(0.001,-0.001)" />

	<path d="M395.4,89c0,0,114.1,0,165.6,81.4c0,0,51.5,81.3,51.5,243.3c0,0,0,157.6,-51.5,233.7c0,0,-51.5,76.2,-164.1,76.2c0,0,-102.2,0,-147,-76.2c0,0,-44.7,-76.1,-44.7,-242.6c0,0,0,-169.5,45.1,-242.6c0,0,45.1,-73.2,145.1,-73.2ZM612.5,-316.7l0,327.4L615.4,133l-1.4,0c0,0,-40.3,-79.8,-99.3,-113.7c0,0,-58.9,-33.9,-153.6,-33.9c0,0,-153.7,0,-225.3,103.6c0,0,-71.6,103.7,-71.6,311.1c0,0,0,422.2,296.9,422.2c0,0,91.7,0,151.4,-32.4c0,0,59.7,-32.5,100,-107.8l1.5,0c0,0,0,22.3,2.9,76.9c0,0,3,54.7,6,58.4l129.1,0c0,0,-5.3,-44,-5.3,-220l0,-914.1Z" 
	id="f2_2d"
	transform="scale(0.001,-0.001)" />

	<path d="M545.3,-14.6c0,0,-129,0,-225.3,46.9c0,0,-96.2,47,-149.2,136.5c0,0,-52.9,89.5,-52.9,213.3l0,669l142.4,0l0,-657.2c0,0,0,-144,73.2,-218.6c0,0,73.1,-74.6,211.1,-74.6c0,0,141.7,0,220.4,77.2c0,0,78.7,77.2,78.7,225.7l0,647.5l141.7,0l0,-655.6c0,0,0,-127.5,-54,-220c0,0,-54.1,-92.5,-153,-141.3c0,0,-98.8,-48.8,-233.1,-48.8Z" 
	id="f2_1l"
	transform="scale(0.001,-0.001)" />

	<path d="M316.3,0L6.7,1051.1l148.5,0L343.9,383.5c0,0,33.6,-125.4,61.9,-258.2c0,0,17.9,82.1,41.4,179.1c0,0,23.5,97,207,746.7l136.5,0L973.5,396.9c0,0,41.8,-160.4,65.7,-271.6l6.7,26.1c0,0,20.1,85.8,32.8,139.9c0,0,12.7,54.1,209.6,759.8l148.5,0L1127.2,0L957.1,0l-182,667.7c0,0,-17.9,62.6,-52.2,224.5c0,0,-19.4,-86.5,-32.9,-144.7C690,747.5,676.6,689.3,486.4,0Z" 
	id="f2_1n"
	transform="scale(0.001,-0.001)" />

	<path d="M593.1,100.7c0,0,182,0,279.3,112.4c0,0,97.4,112.4,97.4,317.8c0,0,0,196.4,-98.1,308.5c0,0,-98.1,112,-277.1,112c0,0,-180.6,0,-279,-110.5c0,0,-98.5,-110.6,-98.5,-310c0,0,0,-197.9,99.6,-314c0,0,99.6,-116.2,276.4,-116.2Zm0,-115.3c0,0,-161.9,0,-279.4,65.6c0,0,-117.5,65.6,-179.4,189.8c0,0,-61.9,124.2,-61.9,289.7c0,0,0,252.1,138,394.2c0,0,138,142.1,384.2,142.1c0,0,160.3,0,278.2,-63.8c0,0,117.9,-63.8,180.2,-185.3c0,0,62.2,-121.6,62.2,-287.2c0,0,0,-164.8,-63,-288.6c0,0,-63,-123.8,-180.9,-190.2c0,0,-117.9,-66.3,-278.2,-66.3Z" 
	id="f2_1f"
	transform="scale(0.001,-0.001)" />

	<path d="M544.6,114.4c0,0,130.5,0,190.2,48.4c0,0,59.7,48.4,59.7,144.5c0,0,0,185.5,-261.1,185.5l-265.6,0l0,-378.4ZM507.3,604.3c0,0,114.1,0,170.4,42.8c0,0,56.4,42.9,56.4,131.6c0,0,0,85,-58.2,121.5c0,0,-58.2,36.5,-168.6,36.5l-239.5,0l0,-332.4ZM125.3,0l0,1051.1l382,0c0,0,370,0,370,-255.2c0,0,0,-93.3,-52.2,-156.7c0,0,-52.3,-63.4,-147.7,-85.1c0,0,125.3,-14.9,193.2,-83.8c0,0,67.9,-69,67.9,-174.2c0,0,0,-140.2,-102.2,-218.2C836.3,77.9,734.1,0,552,0Z" 
	id="f2_12"
	transform="scale(0.001,-0.001)" />

	<path d="M17.2,0L304.4,415L30.6,807.6l148.4,0L380.4,493.4l200,314.2l149.9,0L456.5,416.5L747.5,0.2l-150,0L380.4,331.4L161.9,0Z" 
	id="f2_2k"
	transform="scale(0.001,-0.001)" />

	<path d="M141,0l0,1051.1l142.5,0L283.5,0Z" 
	id="f2_19"
	transform="scale(0.001,-0.001)" />

	<path d="M611.7,549.5c0,0,112.7,0,174.2,52.5c0,0,61.5,52.5,61.5,147.1c0,0,0,91.6,-62.2,139.6c0,0,-62.3,48,-179.5,48l-337.9,0l0,-387.2ZM125.3,0l0,1051.1l494.6,0c0,0,177.6,0,274.2,-79.4c0,0,96.6,-79.3,96.6,-220.9c0,0,0,-117,-68.3,-196.7c0,0,-68.2,-79.7,-188.3,-100.6L1032.4,0L868.3,0l-273,437.1l-327.5,0L267.8,0Z" 
	id="f2_1i"
	transform="scale(0.001,-0.001)" />

	<path d="M415.5,464.4c0,0,58.2,0,108.2,26.6c0,0,50,26.5,78.7,75c0,0,28.7,48.6,28.7,110.6c0,0,0,127,-58.2,204.3c0,0,-58.2,77.3,-155.9,77.3c0,0,-97,0,-152.9,-66.1c0,0,-56,-66.1,-56,-178.9c0,0,0,-115,56,-181.9c0,0,55.9,-66.9,151.4,-66.9Zm-18.6,-479c0,0,-123.1,0,-197.3,51.8c0,0,-74.3,51.8,-106.3,167.5l128.3,20.1c0,0,40.2,-130.9,177.5,-130.9c0,0,115.6,0,179,107.2c0,0,63.4,107.1,66.4,305.9c0,0,-29.8,-67,-102.2,-107.6c0,0,-72.3,-40.6,-158.9,-40.6c0,0,-141.7,0,-226.7,97c0,0,-85.1,97,-85.1,257.4c0,0,0,164.8,92.5,259.2c0,0,92.5,94.4,257.4,94.4c0,0,175.3,0,265.6,-129.8c0,0,90.2,-129.8,90.2,-390.1c0,0,0,-270.7,-98.8,-416.1c0,0,-98.9,-145.4,-281.6,-145.4Z" 
	id="f2_t"
	transform="scale(0.001,-0.001)" />

	<path d="M530.4,344.2l0,555.5c0,0,-1.5,-4.5,-20.9,-39.5c0,0,-19.4,-35.1,-29.1,-49.3L211.1,414.3L170.8,359.1L158.9,344.2ZM530.4,0l0,238.6l-495.3,0l0,104.3l481.1,708.2l141,0l0,-706.9l147.7,0l0,-105.6l-147.7,0L657.2,0Z" 
	id="f2_o"
	transform="scale(0.001,-0.001)" />

	<path d="M272.3,0c0,0,0,201.4,85.4,424c0,0,85.4,222.6,285.3,512.7l-564.7,0l0,114.4l694.5,0l0,-109.1c0,0,-161.1,-246.2,-227.5,-385.6c0,0,-66.4,-139.5,-99.6,-275.2c0,0,-33.2,-135.8,-33.2,-281.2Z" 
	id="f2_r"
	transform="scale(0.001,-0.001)" />

	<path d="M555.8,539.7c0,0,91,0,140.2,45.2c0,0,49.2,45.2,49.2,130.3c0,0,0,165.8,-195.4,165.8l-227.5,0l0,-341.3ZM102.2,0l0,1051.1l472.2,0c0,0,188.7,0,290.6,-86.9c0,0,101.8,-87,101.8,-246c0,0,0,-101.5,-46.3,-181.4c0,0,-46.2,-79.9,-132.4,-123.5c0,0,-86.1,-43.7,-204.7,-43.7l-261.1,0L322.3,0Z" 
	id="f1_1g"
	transform="scale(0.001,-0.001)" />

	<path d="M102.9,-316.7c0,0,-74.6,0,-126.7,6.7l0,147.8l38,-2.9c0,0,53.7,0,73.4,23.5c0,0,19.8,23.5,19.8,97.3l0,851.9l209.6,0l0,-902.7c0,0,0,-106.7,-54,-164.1c0,0,-54.1,-57.5,-160.1,-57.5Zm4.5,1269.1l0,154.4l209.6,0l0,-154.4Z" 
	id="f1_26"
	transform="scale(0.001,-0.001)" />

	<path d="M-2.9,317.8l0,156.4l849.7,0l0,-156.4Z" 
	id="f3_4y"
	transform="scale(0.001,-0.001)" />

	<path d="M421.5,-17.5c0,0,-169.4,0,-269.3,77.9c0,0,-100,78,-117.1,225l213.3,18.7c0,0,20.2,-151.6,172.3,-151.6c0,0,75.4,0,117.2,37.4c0,0,41.7,37.3,41.7,114.1c0,0,0,70.2,-50.7,107.5c0,0,-50.7,37.3,-150.7,37.3l-73.1,0l0,169.2l68.6,0c0,0,90.3,0,135.8,37.1c0,0,45.5,37.1,45.5,106c0,0,0,65.2,-36.2,102.3c0,0,-36.1,37.1,-105.5,37.1c0,0,-64.9,0,-104.8,-35.9c0,0,-39.9,-36,-45.9,-101.9L53,777.6c0,0,16.4,135.6,112.6,212.4c0,0,96.2,76.8,251.4,76.8c0,0,164.9,0,257.7,-74.3c0,0,92.9,-74.3,92.9,-205.7c0,0,0,-98.5,-57.8,-162c0,0,-57.8,-63.4,-166.7,-84.3l0,-3c0,0,120.8,-14.2,186.1,-79.5c0,0,65.3,-65.3,65.3,-166.7c0,0,0,-147.7,-97,-228.3c0,0,-97,-80.5,-276,-80.5Z" 
	id="f1_n"
	transform="scale(0.001,-0.001)" />

	<path d="M415.5,520.2c0,0,67.2,0,111.5,45.9c0,0,44.4,45.9,44.4,122.8c0,0,0,97.9,-42.9,155.7c0,0,-42.9,57.9,-113.7,57.9c0,0,-69.4,0,-109.3,-50.4c0,0,-39.9,-50.4,-39.9,-139.3c0,0,0,-87.3,39.5,-140c0,0,39.6,-52.6,110.4,-52.6ZM400.6,-14.6c0,0,-138.8,0,-217.4,59.3c0,0,-78.8,59.3,-111.6,187.8l197,27.6c0,0,29,-109.5,134.2,-109.5c0,0,88.1,0,135.4,84.1c0,0,47.4,84.1,48.9,249.4c0,0,-28.4,-56,-92.9,-87.7c0,0,-64.5,-31.7,-139.1,-31.7c0,0,-138.8,0,-220.4,94.4c0,0,-81.7,94.4,-81.7,255.5c0,0,0,165.6,95.8,258.9c0,0,95.9,93.3,271.2,93.3c0,0,188.7,0,280.9,-130.9c0,0,92.1,-130.9,92.1,-393.4c0,0,0,-279.7,-102.2,-418.4c0,0,-102.2,-138.7,-290.2,-138.7Z" 
	id="f1_t"
	transform="scale(0.001,-0.001)" />

	<path d="M297.6,-316.7c0,0,-117.1,168.5,-169.3,336.2c0,0,-52.2,167.8,-52.2,376.6c0,0,0,208.1,52.2,375.5c0,0,52.2,167.4,169.3,335.2l209.7,0c0,0,-117.9,-170,-171.2,-338.5c0,0,-53.4,-168.6,-53.4,-372.9c0,0,0,-203.6,53,-371c0,0,53,-167.3,171.6,-341.1Z" 
	id="f1_c"
	transform="scale(0.001,-0.001)" />

	<path d="M508.8,170.1c0,0,141.7,0,225.3,97.7c0,0,83.5,97.8,83.5,265.6c0,0,0,169.3,-88,258.4c0,0,-88.1,89.2,-251.4,89.2l-155.9,0l0,-710.9ZM102.2,0l0,1051.1l380.5,0c0,0,265.5,0,411,-133.9c0,0,145.5,-133.9,145.5,-383.8c0,0,0,-162.6,-63.8,-283.9c0,0,-63.8,-121.2,-180.5,-185.3C794.9,64.2,678.1,0,527.4,0Z" 
	id="f1_14"
	transform="scale(0.001,-0.001)" />

	<path d="M1.5,-316.7c0,0,119.3,174.5,171.9,341.1c0,0,52.6,166.6,52.6,371c0,0,0,205.1,-53.7,374c0,0,-53.7,168.9,-170.8,337.4l209.6,0c0,0,117.9,-169.2,169.7,-337c0,0,51.9,-167.8,51.9,-373.7c0,0,0,-207.3,-51.9,-375.1c0,0,-51.8,-167.7,-169.7,-337.7Z" 
	id="f1_d"
	transform="scale(0.001,-0.001)" />

	<path d="M137.3,-195.4c0,0,70.1,101.5,70.1,195.4L141.7,0l0,163.3l145.5,0L287.2,38c0,0,0,-79,-14.2,-132c0,0,-14.1,-52.9,-44,-101.4Z" 
	id="f2_g"
	transform="scale(0.001,-0.001)" />

	<path d="M67.9,346.1l0,119.3l373,0l0,-119.3Z" 
	id="f2_h"
	transform="scale(0.001,-0.001)" />

	<path d="M102.9,0l0,1106.8l134.3,0l0,-691L591.6,807.6l157.4,0L421.5,460.5L766.1,0L608.7,0l-273,368.7L237.2,287.4L237.2,0Z" 
	id="f2_27"
	transform="scale(0.001,-0.001)" />

	<path d="M223.8,0L-2.1,807.6l132.6,0L267.1,259.3c0,0,5.2,-17.9,32,-147.7l12.7,55.2L480.4,807.6l144,0l141,-554.2L799.7,111.6l23.1,103.7L975.7,807.6l131.3,0L875.8,0.5l-155.9,0l-141,570.7L552,697.2c0,0,-6.7,-33.6,-20.9,-96.6C531.1,600.6,517,537.5,379,0Z" 
	id="f2_2j"
	transform="scale(0.001,-0.001)" />


</defs>
</svg>