<?xml version="1.0" encoding="UTF-8" standalone="no"?>
<!DOCTYPE svg PUBLIC "-//W3C//DTD SVG 1.1//EN"
"http://www.w3.org/Graphics/SVG/1.1/DTD/svg11.dtd">
<svg viewBox="0 0 909 1286" version="1.1" xmlns="http://www.w3.org/2000/svg" xmlns:xlink="http://www.w3.org/1999/xlink">
<defs>
<clipPath id="c0_5"><path d="M102.9,641.2l0,-276l528.3,0l0,276Z" /></clipPath>
<clipPath id="c1_5"><path d="M633.4,641.2l0,-276l173.4,0l0,276Z" /></clipPath>
<clipPath id="c2_5"><path d="M102.9,1046.8l0,-403.4l528.3,0l0,403.4Z" /></clipPath>
<clipPath id="c3_5"><path d="M102.9,1092.3l0,-43.1l528.3,0l0,43.1Z" /></clipPath>
<clipPath id="c4_5"><path d="M102.9,1137.6l0,-43.1l528.3,0l0,43.1Z" /></clipPath>
<style type="text/css"><![CDATA[
.g1_5{
}
.g2_5{
fill: #002060;
}
]]></style>
</defs>
<g fill="#000000" >
<use xlink:href="#f0_s2" transform="matrix(11,0,0,11,110,1207.1)" />
<use xlink:href="#f1_11" transform="matrix(12,0,0,12,165,146.3)" />
<use xlink:href="#f1_1z" transform="matrix(12,0,0,12,177.3,146.3)" />
<use xlink:href="#f1_2g" transform="matrix(12,0,0,12,186.5,146.3)" />
<use xlink:href="#f1_25" transform="matrix(12,0,0,12,191.6,146.3)" />
<use xlink:href="#f1_2i" transform="matrix(12,0,0,12,195.6,146.3)" />
<use xlink:href="#f1_25" transform="matrix(12,0,0,12,204.6,146.3)" />
<use xlink:href="#f1_2g" transform="matrix(12,0,0,12,208.7,146.3)" />
<use xlink:href="#f1_2l" transform="matrix(12,0,0,12,213.9,146.3)" />
</g>
<path fill-rule="evenodd" d="M165,149.6l58.1,0l0,-1.3l-58.1,0l0,1.3Z" class="g1_5" />
<g fill="#000000" >
<use xlink:href="#f1_1k" transform="matrix(12,0,0,12,110,188.9)" />
<use xlink:href="#f1_24" transform="matrix(12,0,0,12,121.4,188.9)" />
<use xlink:href="#f1_25" transform="matrix(12,0,0,12,131.6,188.9)" />
<use xlink:href="#f1_2a" transform="matrix(12,0,0,12,135.7,188.9)" />
<use xlink:href="#f1_27" transform="matrix(12,0,0,12,145.9,188.9)" />
<use xlink:href="#f1_1x" transform="matrix(12,0,0,12,160,188.9)" />
<use xlink:href="#f1_1y" transform="matrix(12,0,0,12,170.3,188.9)" />
<use xlink:href="#f1_2b" transform="matrix(12,0,0,12,180.4,188.9)" />
<use xlink:href="#f1_2h" transform="matrix(12,0,0,12,190.6,188.9)" />
<use xlink:href="#f1_2g" transform="matrix(12,0,0,12,200.9,188.9)" />
<use xlink:href="#f1_2g" transform="matrix(12,0,0,12,210.9,188.9)" />
<use xlink:href="#f1_24" transform="matrix(12,0,0,12,216.1,188.9)" />
<use xlink:href="#f1_21" transform="matrix(12,0,0,12,226.2,188.9)" />
<use xlink:href="#f1_25" transform="matrix(12,0,0,12,241.7,188.9)" />
<use xlink:href="#f1_2a" transform="matrix(12,0,0,12,245.7,188.9)" />
<use xlink:href="#f1_1z" transform="matrix(12,0,0,12,255.9,188.9)" />
<use xlink:href="#f1_2b" transform="matrix(12,0,0,12,265.1,188.9)" />
<use xlink:href="#f1_29" transform="matrix(12,0,0,12,275.2,188.9)" />
<use xlink:href="#f1_21" transform="matrix(12,0,0,12,290.4,188.9)" />
<use xlink:href="#f1_1x" transform="matrix(12,0,0,12,305.8,188.9)" />
<use xlink:href="#f1_2a" transform="matrix(12,0,0,12,316.1,188.9)" />
<use xlink:href="#f1_20" transform="matrix(12,0,0,12,326.1,188.9)" />
<use xlink:href="#f1_21" transform="matrix(12,0,0,12,341.5,188.9)" />
<use xlink:href="#f1_2k" transform="matrix(12,0,0,12,351.8,188.9)" />
<use xlink:href="#f1_2c" transform="matrix(12,0,0,12,360.8,188.9)" />
<use xlink:href="#f1_21" transform="matrix(12,0,0,12,371,188.9)" />
<use xlink:href="#f1_2a" transform="matrix(12,0,0,12,381.3,188.9)" />
<use xlink:href="#f1_20" transform="matrix(12,0,0,12,391.3,188.9)" />
<use xlink:href="#f1_25" transform="matrix(12,0,0,12,401.6,188.9)" />
<use xlink:href="#f1_2g" transform="matrix(12,0,0,12,405.7,188.9)" />
<use xlink:href="#f1_2h" transform="matrix(12,0,0,12,410.8,188.9)" />
<use xlink:href="#f1_2e" transform="matrix(12,0,0,12,421,188.9)" />
<use xlink:href="#f1_21" transform="matrix(12,0,0,12,427.1,188.9)" />
<use xlink:href="#f1_1x" transform="matrix(12,0,0,12,442.2,188.9)" />
<use xlink:href="#f1_2g" transform="matrix(12,0,0,12,452.5,188.9)" />
<use xlink:href="#f1_2l" transform="matrix(12,0,0,12,462.8,188.9)" />
<use xlink:href="#f1_2b" transform="matrix(12,0,0,12,471.7,188.9)" />
<use xlink:href="#f1_2h" transform="matrix(12,0,0,12,482,188.9)" />
<use xlink:href="#f1_1z" transform="matrix(12,0,0,12,497.3,188.9)" />
<use xlink:href="#f1_28" transform="matrix(12,0,0,12,506.5,188.9)" />
<use xlink:href="#f1_2h" transform="matrix(12,0,0,12,510.6,188.9)" />
<use xlink:href="#f1_1y" transform="matrix(12,0,0,12,520.7,188.9)" />
<use xlink:href="#f1_i" transform="matrix(12,0,0,12,530.9,188.9)" />
<use xlink:href="#f1_1n" transform="matrix(12,0,0,12,110,231.4)" />
<use xlink:href="#f1_24" transform="matrix(12,0,0,12,127.8,231.4)" />
<use xlink:href="#f1_21" transform="matrix(12,0,0,12,137.9,231.4)" />
<use xlink:href="#f1_2e" transform="matrix(12,0,0,12,148,231.4)" />
<use xlink:href="#f1_21" transform="matrix(12,0,0,12,154.1,231.4)" />
<use xlink:href="#f1_20" transform="matrix(12,0,0,12,169.2,231.4)" />
<use xlink:href="#f1_2b" transform="matrix(12,0,0,12,179.5,231.4)" />
<use xlink:href="#f1_21" transform="matrix(12,0,0,12,189.6,231.4)" />
<use xlink:href="#f1_2f" transform="matrix(12,0,0,12,199.8,231.4)" />
<use xlink:href="#f1_2l" transform="matrix(12,0,0,12,214.1,231.4)" />
<use xlink:href="#f1_2b" transform="matrix(12,0,0,12,223.1,231.4)" />
<use xlink:href="#f1_2h" transform="matrix(12,0,0,12,233.3,231.4)" />
<use xlink:href="#f1_2e" transform="matrix(12,0,0,12,243.6,231.4)" />
<use xlink:href="#f1_1z" transform="matrix(12,0,0,12,254.8,231.4)" />
<use xlink:href="#f1_28" transform="matrix(12,0,0,12,264,231.4)" />
<use xlink:href="#f1_2h" transform="matrix(12,0,0,12,268,231.4)" />
<use xlink:href="#f1_1y" transform="matrix(12,0,0,12,278.2,231.4)" />
<use xlink:href="#f1_23" transform="matrix(12,0,0,12,293.4,231.4)" />
<use xlink:href="#f1_21" transform="matrix(12,0,0,12,303.5,231.4)" />
<use xlink:href="#f1_2g" transform="matrix(12,0,0,12,313.8,231.4)" />
<use xlink:href="#f1_29" transform="matrix(12,0,0,12,324,231.4)" />
<use xlink:href="#f1_2b" transform="matrix(12,0,0,12,339.4,231.4)" />
<use xlink:href="#f1_2f" transform="matrix(12,0,0,12,349.6,231.4)" />
<use xlink:href="#f1_2g" transform="matrix(12,0,0,12,358.8,231.4)" />
<use xlink:href="#f1_2b" transform="matrix(12,0,0,12,368.8,231.4)" />
<use xlink:href="#f1_22" transform="matrix(12,0,0,12,379,231.4)" />
<use xlink:href="#f1_25" transform="matrix(12,0,0,12,389.4,231.4)" />
<use xlink:href="#f1_2g" transform="matrix(12,0,0,12,393.4,231.4)" />
<use xlink:href="#f1_2f" transform="matrix(12,0,0,12,398.5,231.4)" />
<use xlink:href="#f1_25" transform="matrix(12,0,0,12,412.6,231.4)" />
<use xlink:href="#f1_2a" transform="matrix(12,0,0,12,416.7,231.4)" />
<use xlink:href="#f1_1z" transform="matrix(12,0,0,12,427,231.4)" />
<use xlink:href="#f1_2b" transform="matrix(12,0,0,12,436.1,231.4)" />
<use xlink:href="#f1_29" transform="matrix(12,0,0,12,446.2,231.4)" />
<use xlink:href="#f1_21" transform="matrix(12,0,0,12,461.6,231.4)" />
<use xlink:href="#f1_22" transform="matrix(12,0,0,12,476.6,231.4)" />
<use xlink:href="#f1_2e" transform="matrix(12,0,0,12,481.9,231.4)" />
<use xlink:href="#f1_2b" transform="matrix(12,0,0,12,488,231.4)" />
<use xlink:href="#f1_29" transform="matrix(12,0,0,12,498.1,231.4)" />
<use xlink:href="#f1_z" transform="matrix(12,0,0,12,513.4,231.4)" />
<use xlink:href="#f1_1n" transform="matrix(12,0,0,12,110,273.7)" />
<use xlink:href="#f1_24" transform="matrix(12,0,0,12,127.8,273.7)" />
<use xlink:href="#f1_1x" transform="matrix(12,0,0,12,137.9,273.7)" />
<use xlink:href="#f1_2g" transform="matrix(12,0,0,12,148,273.7)" />
<use xlink:href="#f1_1x" transform="matrix(12,0,0,12,158,273.7)" />
<use xlink:href="#f1_2e" transform="matrix(12,0,0,12,168.3,273.7)" />
<use xlink:href="#f1_21" transform="matrix(12,0,0,12,174.4,273.7)" />
<use xlink:href="#f1_2g" transform="matrix(12,0,0,12,189.6,273.7)" />
<use xlink:href="#f1_24" transform="matrix(12,0,0,12,194.7,273.7)" />
<use xlink:href="#f1_21" transform="matrix(12,0,0,12,204.9,273.7)" />
<use xlink:href="#f1_29" transform="matrix(12,0,0,12,220.1,273.7)" />
<use xlink:href="#f1_1x" transform="matrix(12,0,0,12,235.4,273.7)" />
<use xlink:href="#f1_25" transform="matrix(12,0,0,12,245.6,273.7)" />
<use xlink:href="#f1_2a" transform="matrix(12,0,0,12,249.7,273.7)" />
<use xlink:href="#f1_21" transform="matrix(12,0,0,12,265,273.7)" />
<use xlink:href="#f1_2k" transform="matrix(12,0,0,12,275.3,273.7)" />
<use xlink:href="#f1_2c" transform="matrix(12,0,0,12,284.3,273.7)" />
<use xlink:href="#f1_21" transform="matrix(12,0,0,12,294.4,273.7)" />
<use xlink:href="#f1_2a" transform="matrix(12,0,0,12,304.6,273.7)" />
<use xlink:href="#f1_2f" transform="matrix(12,0,0,12,314.9,273.7)" />
<use xlink:href="#f1_21" transform="matrix(12,0,0,12,324,273.7)" />
<use xlink:href="#f1_2f" transform="matrix(12,0,0,12,334.3,273.7)" />
<use xlink:href="#f1_1x" transform="matrix(12,0,0,12,348.4,273.7)" />
<use xlink:href="#f1_2g" transform="matrix(12,0,0,12,358.7,273.7)" />
<use xlink:href="#f1_2l" transform="matrix(12,0,0,12,368.9,273.7)" />
<use xlink:href="#f1_2b" transform="matrix(12,0,0,12,377.9,273.7)" />
<use xlink:href="#f1_2h" transform="matrix(12,0,0,12,388.1,273.7)" />
<use xlink:href="#f1_2e" transform="matrix(12,0,0,12,398.4,273.7)" />
<use xlink:href="#f1_1z" transform="matrix(12,0,0,12,409.6,273.7)" />
<use xlink:href="#f1_28" transform="matrix(12,0,0,12,418.8,273.7)" />
<use xlink:href="#f1_2h" transform="matrix(12,0,0,12,422.8,273.7)" />
<use xlink:href="#f1_1y" transform="matrix(12,0,0,12,433,273.7)" />
<use xlink:href="#f1_z" transform="matrix(12,0,0,12,443.1,273.7)" />
<use xlink:href="#f1_19" transform="matrix(12,0,0,12,110,316.3)" />
<use xlink:href="#f1_2a" transform="matrix(12,0,0,12,115.1,316.3)" />
<use xlink:href="#f1_2g" transform="matrix(12,0,0,12,130.5,316.3)" />
<use xlink:href="#f1_24" transform="matrix(12,0,0,12,135.7,316.3)" />
<use xlink:href="#f1_21" transform="matrix(12,0,0,12,145.8,316.3)" />
<use xlink:href="#f1_2g" transform="matrix(12,0,0,12,161.1,316.3)" />
<use xlink:href="#f1_1x" transform="matrix(12,0,0,12,166.1,316.3)" />
<use xlink:href="#f1_1y" transform="matrix(12,0,0,12,176.3,316.3)" />
<use xlink:href="#f1_28" transform="matrix(12,0,0,12,186.6,316.3)" />
<use xlink:href="#f1_21" transform="matrix(12,0,0,12,190.6,316.3)" />
<use xlink:href="#f1_1y" transform="matrix(12,0,0,12,205.8,316.3)" />
<use xlink:href="#f1_21" transform="matrix(12,0,0,12,216.1,316.3)" />
<use xlink:href="#f1_28" transform="matrix(12,0,0,12,226.3,316.3)" />
<use xlink:href="#f1_2b" transform="matrix(12,0,0,12,230.4,316.3)" />
<use xlink:href="#f1_2j" transform="matrix(12,0,0,12,240.6,316.3)" />
<use xlink:href="#f1_1z" transform="matrix(12,0,0,12,258.7,316.3)" />
<use xlink:href="#f1_2b" transform="matrix(12,0,0,12,267.9,316.3)" />
<use xlink:href="#f1_2a" transform="matrix(12,0,0,12,278.2,316.3)" />
<use xlink:href="#f1_2f" transform="matrix(12,0,0,12,288.4,316.3)" />
<use xlink:href="#f1_2g" transform="matrix(12,0,0,12,297.4,316.3)" />
<use xlink:href="#f1_2e" transform="matrix(12,0,0,12,302.5,316.3)" />
<use xlink:href="#f1_2h" transform="matrix(12,0,0,12,308.6,316.3)" />
<use xlink:href="#f1_1z" transform="matrix(12,0,0,12,318.8,316.3)" />
<use xlink:href="#f1_2g" transform="matrix(12,0,0,12,328,316.3)" />
<use xlink:href="#f1_1x" transform="matrix(12,0,0,12,338.3,316.3)" />
<use xlink:href="#f1_2f" transform="matrix(12,0,0,12,353.6,316.3)" />
<use xlink:href="#f1_25" transform="matrix(12,0,0,12,362.8,316.3)" />
<use xlink:href="#f1_29" transform="matrix(12,0,0,12,366.7,316.3)" />
<use xlink:href="#f1_2c" transform="matrix(12,0,0,12,382.1,316.3)" />
<use xlink:href="#f1_28" transform="matrix(12,0,0,12,392.3,316.3)" />
<use xlink:href="#f1_21" transform="matrix(12,0,0,12,396.4,316.3)" />
<use xlink:href="#f1_1y" transform="matrix(12,0,0,12,411.5,316.3)" />
<use xlink:href="#f1_2h" transform="matrix(12,0,0,12,421.8,316.3)" />
<use xlink:href="#f1_20" transform="matrix(12,0,0,12,431.9,316.3)" />
<use xlink:href="#f1_23" transform="matrix(12,0,0,12,442.1,316.3)" />
<use xlink:href="#f1_21" transform="matrix(12,0,0,12,452.2,316.3)" />
<use xlink:href="#f1_2g" transform="matrix(12,0,0,12,462.5,316.3)" />
<use xlink:href="#f1_2h" transform="matrix(12,0,0,12,473.1,316.3)" />
<use xlink:href="#f1_2f" transform="matrix(12,0,0,12,483.2,316.3)" />
<use xlink:href="#f1_25" transform="matrix(12,0,0,12,492.4,316.3)" />
<use xlink:href="#f1_2a" transform="matrix(12,0,0,12,496.4,316.3)" />
<use xlink:href="#f1_23" transform="matrix(12,0,0,12,506.6,316.3)" />
<use xlink:href="#f1_2g" transform="matrix(12,0,0,12,521.8,316.3)" />
<use xlink:href="#f1_24" transform="matrix(12,0,0,12,527,316.3)" />
<use xlink:href="#f1_21" transform="matrix(12,0,0,12,537.2,316.3)" />
<use xlink:href="#f1_29" transform="matrix(12,0,0,12,552.4,316.3)" />
<use xlink:href="#f1_1x" transform="matrix(12,0,0,12,567.8,316.3)" />
<use xlink:href="#f1_25" transform="matrix(12,0,0,12,578.1,316.3)" />
<use xlink:href="#f1_2a" transform="matrix(12,0,0,12,582.1,316.3)" />
<use xlink:href="#f1_25" transform="matrix(12,0,0,12,597.5,316.3)" />
<use xlink:href="#f1_2a" transform="matrix(12,0,0,12,601.3,316.3)" />
<use xlink:href="#f1_1z" transform="matrix(12,0,0,12,611.6,316.3)" />
<use xlink:href="#f1_2b" transform="matrix(12,0,0,12,620.7,316.3)" />
<use xlink:href="#f1_29" transform="matrix(12,0,0,12,630.8,316.3)" />
<use xlink:href="#f1_21" transform="matrix(12,0,0,12,646.2,316.3)" />
<use xlink:href="#f1_1x" transform="matrix(12,0,0,12,661.4,316.3)" />
<use xlink:href="#f1_2a" transform="matrix(12,0,0,12,671.7,316.3)" />
<use xlink:href="#f1_20" transform="matrix(12,0,0,12,681.9,316.3)" />
<use xlink:href="#f1_21" transform="matrix(12,0,0,12,697.1,316.3)" />
<use xlink:href="#f1_2k" transform="matrix(12,0,0,12,707.4,316.3)" />
<use xlink:href="#f1_2c" transform="matrix(12,0,0,12,716.3,316.3)" />
<use xlink:href="#f1_21" transform="matrix(12,0,0,12,726.6,316.3)" />
<use xlink:href="#f1_2a" transform="matrix(12,0,0,12,736.8,316.3)" />
<use xlink:href="#f1_20" transform="matrix(12,0,0,12,747.1,316.3)" />
<use xlink:href="#f1_25" transform="matrix(12,0,0,12,757.3,316.3)" />
<use xlink:href="#f1_2g" transform="matrix(12,0,0,12,761.4,316.3)" />
<use xlink:href="#f1_2h" transform="matrix(12,0,0,12,766.3,316.3)" />
<use xlink:href="#f1_2e" transform="matrix(12,0,0,12,776.6,316.3)" />
<use xlink:href="#f1_21" transform="matrix(12,0,0,12,782.7,316.3)" />
<use xlink:href="#f1_25" transform="matrix(12,0,0,12,110,337.4)" />
<use xlink:href="#f1_2g" transform="matrix(12,0,0,12,114.1,337.4)" />
<use xlink:href="#f1_21" transform="matrix(12,0,0,12,119.2,337.4)" />
<use xlink:href="#f1_29" transform="matrix(12,0,0,12,129.5,337.4)" />
<use xlink:href="#f1_2f" transform="matrix(12,0,0,12,144.8,337.4)" />
<use xlink:href="#f1_1x" transform="matrix(12,0,0,12,159,337.4)" />
<use xlink:href="#f1_2g" transform="matrix(12,0,0,12,169.2,337.4)" />
<use xlink:href="#f1_2l" transform="matrix(12,0,0,12,179.4,337.4)" />
<use xlink:href="#f1_2b" transform="matrix(12,0,0,12,188.4,337.4)" />
<use xlink:href="#f1_2h" transform="matrix(12,0,0,12,198.7,337.4)" />
<use xlink:href="#f1_2e" transform="matrix(12,0,0,12,208.9,337.4)" />
<use xlink:href="#f1_1z" transform="matrix(12,0,0,12,220.1,337.4)" />
<use xlink:href="#f1_28" transform="matrix(12,0,0,12,229.3,337.4)" />
<use xlink:href="#f1_2h" transform="matrix(12,0,0,12,233.3,337.4)" />
<use xlink:href="#f1_1y" transform="matrix(12,0,0,12,243.6,337.4)" />
<use xlink:href="#f1_1x" transform="matrix(12,0,0,12,258.7,337.4)" />
<use xlink:href="#f2_2a" transform="matrix(12,0,0,12,269.2,337.4)" />
<use xlink:href="#f2_20" transform="matrix(12,0,0,12,279.3,337.4)" />
<use xlink:href="#f2_1y" transform="matrix(12,0,0,12,294.5,337.4)" />
<use xlink:href="#f2_1x" transform="matrix(12,0,0,12,304.7,337.4)" />
<use xlink:href="#f2_2f" transform="matrix(12,0,0,12,315,337.4)" />
<use xlink:href="#f2_21" transform="matrix(12,0,0,12,324.2,337.4)" />
<use xlink:href="#f2_20" transform="matrix(12,0,0,12,334.2,337.4)" />
<use xlink:href="#f2_2b" transform="matrix(12,0,0,12,349.6,337.4)" />
<use xlink:href="#f2_2a" transform="matrix(12,0,0,12,359.9,337.4)" />
<use xlink:href="#f2_2j" transform="matrix(12,0,0,12,375,337.4)" />
<use xlink:href="#f2_24" transform="matrix(12,0,0,12,388.1,337.4)" />
<use xlink:href="#f2_1x" transform="matrix(12,0,0,12,398.3,337.4)" />
<use xlink:href="#f2_2g" transform="matrix(12,0,0,12,408.6,337.4)" />
<use xlink:href="#f2_2l" transform="matrix(12,0,0,12,418.8,337.4)" />
<use xlink:href="#f2_2b" transform="matrix(12,0,0,12,427.8,337.4)" />
<use xlink:href="#f2_2h" transform="matrix(12,0,0,12,438.1,337.4)" />
<use xlink:href="#f2_27" transform="matrix(12,0,0,12,453.4,337.4)" />
<use xlink:href="#f2_2a" transform="matrix(12,0,0,12,462.6,337.4)" />
<use xlink:href="#f2_2b" transform="matrix(12,0,0,12,472.7,337.4)" />
<use xlink:href="#f2_2j" transform="matrix(12,0,0,12,483,337.4)" />
<use xlink:href="#f2_1x" transform="matrix(12,0,0,12,501.1,337.4)" />
<use xlink:href="#f2_1y" transform="matrix(12,0,0,12,511.4,337.4)" />
<use xlink:href="#f2_2b" transform="matrix(12,0,0,12,521.6,337.4)" />
<use xlink:href="#f2_2h" transform="matrix(12,0,0,12,531.9,337.4)" />
<use xlink:href="#f2_2g" transform="matrix(12,0,0,12,542.1,337.4)" />
<use xlink:href="#f2_2l" transform="matrix(12,0,0,12,552.3,337.4)" />
<use xlink:href="#f2_2b" transform="matrix(12,0,0,12,561.3,337.4)" />
<use xlink:href="#f2_2h" transform="matrix(12,0,0,12,571.6,337.4)" />
<use xlink:href="#f2_2e" transform="matrix(12,0,0,12,581.8,337.4)" />
<use xlink:href="#f2_1z" transform="matrix(12,0,0,12,593,337.4)" />
<use xlink:href="#f2_28" transform="matrix(12,0,0,12,602.2,337.4)" />
<use xlink:href="#f2_2h" transform="matrix(12,0,0,12,606.2,337.4)" />
<use xlink:href="#f2_1y" transform="matrix(12,0,0,12,616.3,337.4)" />
<use xlink:href="#f2_53" transform="matrix(12,0,0,12,626.5,337.4)" />
<use xlink:href="#f2_2f" transform="matrix(12,0,0,12,630.6,337.4)" />
<use xlink:href="#f2_22" transform="matrix(12,0,0,12,644.7,337.4)" />
<use xlink:href="#f2_25" transform="matrix(12,0,0,12,650,337.4)" />
<use xlink:href="#f2_2a" transform="matrix(12,0,0,12,653.8,337.4)" />
<use xlink:href="#f2_1x" transform="matrix(12,0,0,12,664.1,337.4)" />
<use xlink:href="#f2_2a" transform="matrix(12,0,0,12,674.3,337.4)" />
<use xlink:href="#f2_1z" transform="matrix(12,0,0,12,684.6,337.4)" />
<use xlink:href="#f2_21" transform="matrix(12,0,0,12,693.6,337.4)" />
<use xlink:href="#f2_2f" transform="matrix(12,0,0,12,703.8,337.4)" />
</g>
<g clip-path="url(#c0_5)">
<g fill="#000000" >
<use xlink:href="#f3_19" transform="matrix(12,0,0,12,110,382.1)" />
<use xlink:href="#f3_2a" transform="matrix(12,0,0,12,115.1,382.1)" />
<use xlink:href="#f3_1z" transform="matrix(12,0,0,12,126.3,382.1)" />
<use xlink:href="#f3_2b" transform="matrix(12,0,0,12,136.6,382.1)" />
<use xlink:href="#f3_29" transform="matrix(12,0,0,12,147.8,382.1)" />
<use xlink:href="#f3_21" transform="matrix(12,0,0,12,164.1,382.1)" />
<use xlink:href="#f1_h" transform="matrix(12,0,0,12,110,424.7)" />
<use xlink:href="#f1_h" transform="matrix(12,0,0,12,110,467)" />
<use xlink:href="#f1_h" transform="matrix(12,0,0,12,110,509.6)" />
<use xlink:href="#f1_h" transform="matrix(12,0,0,12,110,552.1)" />
<use xlink:href="#f3_1k" transform="matrix(12,0,0,12,110,594.4)" />
<use xlink:href="#f3_1f" transform="matrix(12,0,0,12,121.2,594.4)" />
<use xlink:href="#f3_1k" transform="matrix(12,0,0,12,135.5,594.4)" />
<use xlink:href="#f3_11" transform="matrix(12,0,0,12,146.9,594.4)" />
<use xlink:href="#f3_1c" transform="matrix(12,0,0,12,159.7,594.4)" />
</g>
</g>
<g clip-path="url(#c1_5)">
<g fill="#000000" >
<use xlink:href="#f3_8" transform="matrix(12,0,0,12,640.5,424.7)" />
</g>
</g>
<path fill-rule="evenodd" d="M100.7,365.2l2.2,0l0,-2.4l-2.2,0l0,2.4Z" class="g2_5" />
<path fill-rule="evenodd" d="M100.7,365l2.2,0l0,-2.2l-2.2,0l0,2.2Z" class="g2_5" />
<path fill-rule="evenodd" d="M102.9,365l528.3,0l0,-2.2l-528.3,0l0,2.2Z" class="g2_5" />
<path fill-rule="evenodd" d="M631.2,365.2l2.2,0l0,-0.2l-2.2,0l0,0.2Z" class="g2_5" />
<path fill-rule="evenodd" d="M631.2,365l2.2,0l0,-2.2l-2.2,0l0,2.2Z" class="g2_5" />
<path fill-rule="evenodd" d="M633.4,365l173.4,0l0,-2.2l-173.4,0l0,2.2Z" class="g2_5" />
<path fill-rule="evenodd" d="M806.8,365.2l2.3,0l0,-2.4l-2.3,0l0,2.4Z" class="g2_5" />
<path fill-rule="evenodd" d="M806.8,365l2.3,0l0,-2.2l-2.3,0l0,2.2Z" class="g2_5" />
<path fill-rule="evenodd" d="M100.7,641.2l2.2,0l0,-276l-2.2,0l0,276Z" class="g2_5" />
<path fill-rule="evenodd" d="M631.2,641.2l2.2,0l0,-276l-2.2,0l0,276Z" class="g2_5" />
<path fill-rule="evenodd" d="M806.8,641.2l2.3,0l0,-276l-2.3,0l0,276Z" class="g2_5" />
<g clip-path="url(#c2_5)">
<g fill="#000000" >
<use xlink:href="#f3_15" transform="matrix(12,0,0,12,110,660.3)" />
<use xlink:href="#f3_2k" transform="matrix(12,0,0,12,122.3,660.3)" />
<use xlink:href="#f3_2c" transform="matrix(12,0,0,12,132.6,660.3)" />
<use xlink:href="#f3_21" transform="matrix(12,0,0,12,143.8,660.3)" />
<use xlink:href="#f3_2a" transform="matrix(12,0,0,12,153.9,660.3)" />
<use xlink:href="#f3_2f" transform="matrix(12,0,0,12,165.1,660.3)" />
<use xlink:href="#f3_21" transform="matrix(12,0,0,12,175.3,660.3)" />
<use xlink:href="#f3_2f" transform="matrix(12,0,0,12,185.5,660.3)" />
<use xlink:href="#f1_h" transform="matrix(12,0,0,12,110,702.8)" />
<use xlink:href="#f1_h" transform="matrix(12,0,0,12,110,745.4)" />
<use xlink:href="#f1_h" transform="matrix(12,0,0,12,110,787.7)" />
<use xlink:href="#f1_h" transform="matrix(12,0,0,12,110,830.2)" />
<use xlink:href="#f1_h" transform="matrix(12,0,0,12,110,872.8)" />
<use xlink:href="#f1_h" transform="matrix(12,0,0,12,110,915.2)" />
<use xlink:href="#f1_h" transform="matrix(12,0,0,12,110,957.7)" />
<use xlink:href="#f3_1k" transform="matrix(12,0,0,12,110,1000.2)" />
<use xlink:href="#f3_1f" transform="matrix(12,0,0,12,121.2,1000.2)" />
<use xlink:href="#f3_1k" transform="matrix(12,0,0,12,135.5,1000.2)" />
<use xlink:href="#f3_11" transform="matrix(12,0,0,12,146.9,1000.2)" />
<use xlink:href="#f3_1c" transform="matrix(12,0,0,12,159.7,1000.2)" />
</g>
</g>
<path fill-rule="evenodd" d="M100.7,643.6l2.2,0l0,-2.4l-2.2,0l0,2.4Z" class="g2_5" />
<path fill-rule="evenodd" d="M102.9,643.4l528.3,0l0,-2.2l-528.3,0l0,2.2Z" class="g2_5" />
<path fill-rule="evenodd" d="M631.2,643.6l2.2,0l0,-2.4l-2.2,0l0,2.4Z" class="g2_5" />
<path fill-rule="evenodd" d="M633.4,643.4l173.4,0l0,-2.2l-173.4,0l0,2.2Z" class="g2_5" />
<path fill-rule="evenodd" d="M806.8,643.6l2.3,0l0,-2.4l-2.3,0l0,2.4Z" class="g2_5" />
<path fill-rule="evenodd" d="M100.7,1046.8l2.2,0l0,-403.2l-2.2,0l0,403.2Z" class="g2_5" />
<path fill-rule="evenodd" d="M631.2,1046.8l2.2,0l0,-403.2l-2.2,0l0,403.2Z" class="g2_5" />
<path fill-rule="evenodd" d="M806.8,1046.8l2.3,0l0,-403.2l-2.3,0l0,403.2Z" class="g2_5" />
<g clip-path="url(#c3_5)">
<g fill="#000000" >
<use xlink:href="#f3_1g" transform="matrix(12,0,0,12,110,1066.6)" />
<use xlink:href="#f3_2e" transform="matrix(12,0,0,12,122.3,1066.6)" />
<use xlink:href="#f3_2b" transform="matrix(12,0,0,12,129.4,1066.6)" />
<use xlink:href="#f3_26" transform="matrix(12,0,0,12,140.6,1066.6)" />
<use xlink:href="#f3_21" transform="matrix(12,0,0,12,145.6,1066.6)" />
<use xlink:href="#f3_1z" transform="matrix(12,0,0,12,155.8,1066.6)" />
<use xlink:href="#f3_2g" transform="matrix(12,0,0,12,166.1,1066.6)" />
<use xlink:href="#f3_21" transform="matrix(12,0,0,12,172.2,1066.6)" />
<use xlink:href="#f3_20" transform="matrix(12,0,0,12,182.4,1066.6)" />
<use xlink:href="#f4_4y" transform="matrix(12,0,0,12,198.8,1066.6)" />
<use xlink:href="#f3_1j" transform="matrix(12,0,0,12,214.2,1066.6)" />
<use xlink:href="#f3_2h" transform="matrix(12,0,0,12,226.4,1066.6)" />
<use xlink:href="#f3_2e" transform="matrix(12,0,0,12,237.6,1066.6)" />
<use xlink:href="#f3_2c" transform="matrix(12,0,0,12,244.8,1066.6)" />
<use xlink:href="#f3_28" transform="matrix(12,0,0,12,256,1066.6)" />
<use xlink:href="#f3_2h" transform="matrix(12,0,0,12,261.1,1066.6)" />
<use xlink:href="#f3_2f" transform="matrix(12,0,0,12,272.1,1066.6)" />
</g>
</g>
<path fill-rule="evenodd" d="M100.7,1049.2l2.2,0l0,-2.4l-2.2,0l0,2.4Z" class="g2_5" />
<path fill-rule="evenodd" d="M102.9,1049l528.3,0l0,-2.2l-528.3,0l0,2.2Z" class="g2_5" />
<path fill-rule="evenodd" d="M631.2,1049.2l2.2,0l0,-2.4l-2.2,0l0,2.4Z" class="g2_5" />
<path fill-rule="evenodd" d="M633.4,1049l173.4,0l0,-2.2l-173.4,0l0,2.2Z" class="g2_5" />
<path fill-rule="evenodd" d="M806.8,1049.2l2.3,0l0,-2.4l-2.3,0l0,2.4Z" class="g2_5" />
<path fill-rule="evenodd" d="M100.7,1092.3l2.2,0l0,-43.1l-2.2,0l0,43.1Z" class="g2_5" />
<path fill-rule="evenodd" d="M631.2,1092.3l2.2,0l0,-43.1l-2.2,0l0,43.1Z" class="g2_5" />
<path fill-rule="evenodd" d="M806.8,1092.3l2.3,0l0,-43.1l-2.3,0l0,43.1Z" class="g2_5" />
<g clip-path="url(#c4_5)">
<g fill="#000000" >
<use xlink:href="#f3_1g" transform="matrix(12,0,0,12,110,1111.9)" />
<use xlink:href="#f3_2e" transform="matrix(12,0,0,12,122.3,1111.9)" />
<use xlink:href="#f3_2b" transform="matrix(12,0,0,12,129.4,1111.9)" />
<use xlink:href="#f3_26" transform="matrix(12,0,0,12,140.6,1111.9)" />
<use xlink:href="#f3_21" transform="matrix(12,0,0,12,145.6,1111.9)" />
<use xlink:href="#f3_1z" transform="matrix(12,0,0,12,155.8,1111.9)" />
<use xlink:href="#f3_2g" transform="matrix(12,0,0,12,166.1,1111.9)" />
<use xlink:href="#f3_21" transform="matrix(12,0,0,12,172.2,1111.9)" />
<use xlink:href="#f3_20" transform="matrix(12,0,0,12,182.4,1111.9)" />
<use xlink:href="#f4_4y" transform="matrix(12,0,0,12,198.8,1111.9)" />
<use xlink:href="#f3_c" transform="matrix(12,0,0,12,214.2,1111.9)" />
<use xlink:href="#f3_14" transform="matrix(12,0,0,12,220.3,1111.9)" />
<use xlink:href="#f3_21" transform="matrix(12,0,0,12,233.4,1111.9)" />
<use xlink:href="#f3_22" transform="matrix(12,0,0,12,243.7,1111.9)" />
<use xlink:href="#f3_25" transform="matrix(12,0,0,12,249.8,1111.9)" />
<use xlink:href="#f3_1z" transform="matrix(12,0,0,12,254.9,1111.9)" />
<use xlink:href="#f3_25" transform="matrix(12,0,0,12,265.1,1111.9)" />
<use xlink:href="#f3_2g" transform="matrix(12,0,0,12,270.2,1111.9)" />
<use xlink:href="#f3_d" transform="matrix(12,0,0,12,276.3,1111.9)" />
</g>
</g>
<path fill-rule="evenodd" d="M100.7,1094.7l2.2,0l0,-2.4l-2.2,0l0,2.4Z" class="g2_5" />
<path fill-rule="evenodd" d="M102.9,1094.5l528.3,0l0,-2.2l-528.3,0l0,2.2Z" class="g2_5" />
<path fill-rule="evenodd" d="M631.2,1094.7l2.2,0l0,-2.4l-2.2,0l0,2.4Z" class="g2_5" />
<path fill-rule="evenodd" d="M633.4,1094.5l173.4,0l0,-2.2l-173.4,0l0,2.2Z" class="g2_5" />
<path fill-rule="evenodd" d="M806.8,1094.7l2.3,0l0,-2.4l-2.3,0l0,2.4Z" class="g2_5" />
<path fill-rule="evenodd" d="M100.7,1137.8l2.2,0l0,-43.2l-2.2,0l0,43.2Z" class="g2_5" />
<path fill-rule="evenodd" d="M100.7,1140l2.2,0l0,-2.2l-2.2,0l0,2.2Z" class="g2_5" />
<path fill-rule="evenodd" d="M100.7,1140l2.2,0l0,-2.2l-2.2,0l0,2.2Z" class="g2_5" />
<path fill-rule="evenodd" d="M102.9,1140l528.3,0l0,-2.2l-528.3,0l0,2.2Z" class="g2_5" />
<path fill-rule="evenodd" d="M631.2,1137.8l2.2,0l0,-43.2l-2.2,0l0,43.2Z" class="g2_5" />
<path fill-rule="evenodd" d="M631.2,1140l2.2,0l0,-2.2l-2.2,0l0,2.2Z" class="g2_5" />
<path fill-rule="evenodd" d="M633.4,1140l173.4,0l0,-2.2l-173.4,0l0,2.2Z" class="g2_5" />
<path fill-rule="evenodd" d="M806.8,1137.8l2.3,0l0,-43.2l-2.3,0l0,43.2Z" class="g2_5" />
<path fill-rule="evenodd" d="M806.8,1140l2.3,0l0,-2.2l-2.3,0l0,2.2Z" class="g2_5" />
<path fill-rule="evenodd" d="M806.8,1140l2.3,0l0,-2.2l-2.3,0l0,2.2Z" class="g2_5" />
<image preserveAspectRatio="none" x="112" y="110" width="37" height="37" xlink:href="img/1.png" />
<defs>
	<path d="M324.3,-13.6c0,0,-44.8,0,-85,6.4c0,0,-40.3,6.3,-71.6,15.5c0,0,-31.3,9.3,-51.4,18.2c0,0,-20.2,8.9,-25.8,14.1c0,0,-5.6,5.3,-7.8,9.7c0,0,-2.2,4.5,-4.1,10.8c0,0,-1.9,6.4,-2.6,16c0,0,-0.7,9.7,-0.7,23.1c0,0,0,12.6,1.1,22.7c0,0,1.1,10,4.1,16.4c0,0,2.9,6.3,7,9.3c0,0,4.2,3,9.4,3c0,0,7.4,0,23.1,-9.4c0,0,15.6,-9.3,42.1,-20.1c0,0,26.5,-10.8,65.6,-20.5c0,0,39.1,-9.7,92.8,-9.7c0,0,50,0,91.7,12c0,0,41.7,11.9,71.9,37.3c0,0,30.2,25.3,47.4,63.8c0,0,17.1,38.4,17.1,93.6c0,0,0,46.3,-14.5,81.8c0,0,-14.6,35.4,-44.8,58.9c0,0,-30.2,23.5,-76.4,35.1c0,0,-46.3,11.6,-110.5,11.6c0,0,-45.5,0,-78.3,-4.5c0,0,-32.8,-4.5,-61.2,-4.5c0,0,-20.8,0,-29.8,9.7c0,0,-9,9.7,-9,37.3l0,392.6c0,0,0,24.6,11.6,36.5c0,0,11.6,12,33.2,12l427.5,0c0,0,6,0,11.6,-3.4c0,0,5.6,-3.3,9.3,-10c0,0,3.7,-6.7,5.6,-17.1c0,0,1.9,-10.4,1.9,-24.5c0,0,0,-26.8,-7.5,-41.6c0,0,-7.5,-14.9,-20.9,-14.9l-360.3,0l0,-270.2c0,0,26.1,3.7,53.3,4.5c0,0,27.2,0.7,63,0.7c0,0,82.8,0,144.7,-19.8c0,0,62,-19.7,103.4,-55.9c0,0,41.4,-36.2,62.6,-87.7c0,0,21.3,-51.5,21.3,-114.2c0,0,0,-77.7,-26.1,-138.1c0,0,-26.1,-60.5,-73.8,-101.9c0,0,-47.7,-41.4,-113.7,-63c0,0,-66,-21.6,-146.5,-21.6Z" 
	id="f0_s2"
	transform="scale(0.001,-0.001)" />

	<path d="M707.9,418.5l-135,346.9c0,0,-20.9,51.5,-41.8,116.4L511,943.7l-6.7,-20.9c0,0,-18.7,-61.9,-55.2,-158.9L314.8,418.5ZM3,0L431.9,1051.1l161.9,0L1016,0L870.6,0L750.5,307l-479,0L150.7,0Z" 
	id="f1_11"
	transform="scale(0.001,-0.001)" />

	<path d="M412.5,-14.6c0,0,-169.3,0,-258.5,107c0,0,-89.1,107,-89.1,312.2c0,0,0,203.6,89.5,310.7c0,0,89.5,107,256.6,107c0,0,123.9,0,205.6,-64.1c0,0,81.6,-64.2,102.5,-176.8L581.1,571c0,0,-10.4,66.9,-52.9,106.3c0,0,-42.6,39.4,-120.9,39.4c0,0,-106.7,0,-154.4,-70.8c0,0,-47.7,-70.9,-47.7,-238.7c0,0,0,-161.1,50.7,-238.7c0,0,50.7,-77.6,152.9,-77.6c0,0,71.6,0,119.7,38.9c0,0,48.1,38.8,59.3,119.5l135.8,-8.9c0,0,-15.7,-116.4,-99.2,-185.7c0,0,-83.6,-69.3,-211.9,-69.3Z" 
	id="f1_1z"
	transform="scale(0.001,-0.001)" />

	<path d="M277.5,-11.6c0,0,-161.1,0,-161.1,182.7l0,538.8l-93.3,0l0,97.7l98.5,0l39.5,180.9l89.5,0l0,-180.9l149.3,0l0,-97.7l-149.3,0l0,-509.8c0,0,0,-58.2,19.1,-81.7c0,0,19,-23.5,66,-23.5c0,0,26.8,0,77.6,10.4l0,-99.1c0,0,-66.4,-17.8,-135.8,-17.8Z" 
	id="f1_2g"
	transform="scale(0.001,-0.001)" />

	<path d="M102.2,0l0,807.6l134.3,0L236.5,0Zm0,978.8l0,128l134.3,0l0,-128Z" 
	id="f1_25"
	transform="scale(0.001,-0.001)" />

	<path d="M298.4,0L5.2,807.6l143.3,0L326,282.5c0,0,9.7,-29.9,51.5,-176.8L403.6,193l29.1,88L616.2,807.6l142.5,0L457.3,0Z" 
	id="f1_2i"
	transform="scale(0.001,-0.001)" />

	<path d="M142.5,-316.7c0,0,-55.2,0,-92.5,8.2l0,100.9c0,0,28.3,-4.5,62.6,-4.5c0,0,125.4,0,198.5,184.3l12.7,32L3.7,807.6l143.3,0L317,361.5c0,0,3.8,-10.4,9,-24.9c0,0,5.2,-14.6,33.6,-97.4c0,0,28.3,-82.8,30.5,-92.5l52.3,147L619.2,807.6l141.7,0L450.6,0.3c0,0,-50,-129,-93.3,-192c0,0,-43.2,-63.1,-95.8,-94c0,0,-52.6,-31,-119,-31Z" 
	id="f1_2l"
	transform="scale(0.001,-0.001)" />

	<path d="M395.4,0l0,935.7l-361.1,0l0,115.4l863.9,0l0,-115.4l-361.1,0L537.1,0Z" 
	id="f1_1k"
	transform="scale(0.001,-0.001)" />

	<path d="M615.4,0l0,512c0,0,0,85,-15.6,126.4c0,0,-15.7,41.5,-51.5,60.9c0,0,-35.8,19.4,-99.2,19.4c0,0,-94.8,0,-151.8,-65.7c0,0,-57.1,-65.6,-57.1,-176.8l0,-475.9l-134.3,0l0,1106.5l134.3,0l0,-287.7c0,0,0,-45.4,-2.6,-93.9c0,0,-2.6,-48.4,-3.4,-55.9l2.3,0c0,0,43.3,79.1,104,116.1c0,0,60.8,36.9,154.1,36.9c0,0,131.3,0,193.6,-65.3c0,0,62.3,-65.3,62.3,-219l0,-538Z" 
	id="f1_24"
	transform="scale(0.001,-0.001)" />

	<path d="M105.9,0l0,635.2c0,0,0,141.1,-4.4,172.4l126.8,0c0,0,0.7,-3.7,1.5,-20.2c0,0,0.7,-16.4,1.8,-37.7c0,0,1.1,-21.3,2.6,-80.4l2.3,0c0,0,46.2,83.6,107,118.3c0,0,60.8,34.7,151.1,34.7c0,0,132.8,0,194.3,-66c0,0,61.6,-66.1,61.6,-218.3l0,-538L615.4,0l0,512c0,0,0,79.8,-15.6,123.8c0,0,-15.7,44.1,-50,63.5c0,0,-34.3,19.4,-100.7,19.4c0,0,-97,0,-152.9,-66.4c0,0,-56,-66.5,-56,-184.4L240.2,0Z" 
	id="f1_2a"
	transform="scale(0.001,-0.001)" />

	<path d="M102.9,0l0,1106.8l134.3,0l0,-691L591.6,807.6l157.4,0L421.5,460.5L766.1,0L608.7,0l-273,368.7L237.2,287.4L237.2,0Z" 
	id="f1_27"
	transform="scale(0.001,-0.001)" />

	<path d="M339.4,87c0,0,73.9,0,131.3,33.5c0,0,57.5,33.5,90.7,92c0,0,33.2,58.4,33.2,120.2l0,66.2L447.6,396c0,0,-94.7,-1.5,-143.6,-19.4c0,0,-48.9,-17.8,-75,-55.1c0,0,-26.1,-37.2,-26.1,-97.5c0,0,0,-65.5,35.4,-101.2c0,0,35.5,-35.8,101.1,-35.8ZM308.8,-14.6c0,0,-121.6,0,-182.7,64.1c0,0,-61.2,64.2,-61.2,176.1c0,0,0,125.4,82.4,192.6c0,0,82.5,67.1,266,71.6l181.3,3l0,44.1c0,0,0,98.6,-41.8,141.2c0,0,-41.8,42.5,-131.3,42.5c0,0,-90.3,0,-131.3,-30.7c0,0,-41,-30.8,-49.3,-98.3L100.7,604.2c0,0,34.3,218.1,323.8,218.1c0,0,152.1,0,229,-69.8c0,0,76.8,-69.9,76.8,-202.1l0,-348c0,0,0,-59.8,15.7,-90c0,0,15.7,-30.3,59.7,-30.3c0,0,19.4,0,44,5.3l0,-83.3C849.7,4.1,799,-7.7,746,-7.7c0,0,-74.6,0,-108.5,39.2c0,0,-34,39.3,-38.5,123.2l-4.4,0c0,0,-51.5,-92.5,-119.8,-130.9c0,0,-68.2,-38.4,-166,-38.4Z" 
	id="f1_1x"
	transform="scale(0.001,-0.001)" />

	<path d="M452.8,84.1c0,0,101.5,0,146.6,75c0,0,45.1,75,45.1,243.8c0,0,0,169.5,-44.7,242.6c0,0,-44.8,73.2,-145.5,73.2c0,0,-113.4,0,-165.2,-77.7c0,0,-51.9,-77.6,-51.9,-246.3c0,0,0,-159.1,50.7,-234.8c0,0,50.8,-75.8,164.9,-75.8Zm35.8,-98.7c0,0,-91.7,0,-152.5,33.1c0,0,-60.8,33.2,-98.9,107.1l-1.5,0c0,0,0,-23.2,-2.9,-70.7c0,0,-3,-47.4,-4.5,-54.9L98.5,0c0,0,4.4,40.3,4.4,166.3l0,940.5l134.3,0l0,-315.2c0,0,0,-48.4,-3,-114l3,0c0,0,37.3,77.6,98.9,111.1c0,0,61.5,33.6,152.5,33.6c0,0,152.9,0,224.9,-102.9c0,0,72,-103,72,-311.9c0,0,0,-422.1,-296.9,-422.1Z" 
	id="f1_1y"
	transform="scale(0.001,-0.001)" />

	<path d="M420,84.1c0,0,120.8,0,172.7,77.7c0,0,51.8,77.7,51.8,242.8c0,0,0,167.3,-49.6,243.1c0,0,-49.6,75.9,-166.7,75.9c0,0,-117.9,0,-170.4,-77.3c0,0,-52.6,-77.4,-52.6,-241.7c0,0,0,-159.9,51.8,-240.2c0,0,51.8,-80.3,163,-80.3Zm1.5,-98.7c0,0,-176.8,0,-267.1,107.7c0,0,-90.2,107.8,-90.2,311.5c0,0,0,417.7,361.8,417.7c0,0,185,0,272.2,-101.8c0,0,87.3,-101.8,87.3,-315.9c0,0,0,-211.9,-93.2,-315.6C692.3,89,599,-14.6,421.5,-14.6Z" 
	id="f1_2b"
	transform="scale(0.001,-0.001)" />

	<path d="M355.1,-14.6c0,0,-132.8,0,-194.3,66c0,0,-61.6,66,-61.6,218.2l0,538l135,0l0,-511.9c0,0,0,-79.9,15.7,-123.9c0,0,15.7,-44,50,-63.4c0,0,34.3,-19.4,100.7,-19.4c0,0,97,0,152.9,66.4c0,0,56,66.4,56,184.3l0,467.9l134.3,0l0,-635.2c0,0,0,-141,4.4,-172.4L621.4,0c0,0,-0.7,3.7,-1.5,20.2c0,0,-0.7,16.4,-1.9,37.7c0,0,-1.1,21.3,-2.6,80.3l-2.2,0c0,0,-46.3,-83.5,-107.1,-118.2c0,0,-60.8,-34.6,-151,-34.6Z" 
	id="f1_2h"
	transform="scale(0.001,-0.001)" />

	<path d="M643,478.1c0,0,-11.2,128,-64.9,186.7c0,0,-53.7,58.8,-154.4,58.8c0,0,-97.7,0,-154.8,-65.5c0,0,-57,-65.5,-61.5,-180ZM431.2,-14.6c0,0,-179.1,0,-272.7,106.6c0,0,-93.6,106.7,-93.6,317c0,0,0,200,93.6,306.6c0,0,93.6,106.7,267.5,106.7c0,0,355.8,0,355.8,-428.9l0,-17.9l-575.9,0c0,0,0,-138.3,57.4,-213.4c0,0,57.5,-75.1,167.9,-75.1c0,0,87.3,0,139.9,34.9c0,0,52.5,34.9,71.2,88.3L760.2,176.6c0,0,-72.4,-191.2,-329,-191.2Z" 
	id="f1_21"
	transform="scale(0.001,-0.001)" />

	<path d="M105.9,0l0,635.2c0,0,0,141.1,-4.4,172.4l126.8,0c0,0,0.7,-3.7,1.5,-20.2c0,0,0.7,-16.4,1.8,-37.7c0,0,1.1,-21.3,2.6,-80.4l2.3,0c0,0,43.3,85.8,99.2,119.4c0,0,55.9,33.6,136.5,33.6c0,0,91.8,0,145.1,-36.6c0,0,53.3,-36.5,74.2,-116.4l2.3,0c0,0,41.7,81.4,101,117.2c0,0,59.4,35.8,143.7,35.8c0,0,122.3,0,177.9,-66.4c0,0,55.5,-66.4,55.5,-217.9l0,-538L1039.2,0l0,512c0,0,0,117.1,-32.1,161.9c0,0,-32.1,44.8,-115.6,44.8c0,0,-88.1,0,-136.9,-65.3c0,0,-48.9,-65.3,-48.9,-185.5L705.7,0L572.9,0l0,512c0,0,0,117.1,-32.1,161.9c0,0,-32,44.8,-115.6,44.8c0,0,-85.8,0,-135.7,-65.7c0,0,-50,-65.7,-50,-185.1L239.5,0Z" 
	id="f1_29"
	transform="scale(0.001,-0.001)" />

	<path d="M395.4,89c0,0,114.1,0,165.6,79.1c0,0,51.5,79.2,51.5,245.6c0,0,0,160.6,-51.5,235.2c0,0,-51.5,74.7,-164.1,74.7c0,0,-101.5,0,-146.6,-75.1c0,0,-45.1,-75,-45.1,-243.7c0,0,0,-169.5,44.7,-242.6c0,0,44.8,-73.2,145.5,-73.2ZM361.1,-14.6c0,0,-153,0,-225,102.9c0,0,-71.9,102.9,-71.9,311.8c0,0,0,422.2,296.9,422.2c0,0,91.7,0,152.9,-33.6c0,0,61.1,-33.5,98.5,-106.6l1.5,0l-1.5,90.1l0,334.6l134.2,0l0,-940.5c0,0,0,-126,4.5,-166.3L622.9,0c0,0,-2.2,11.9,-4.9,55.3c0,0,-2.6,43.3,-2.6,74.8l-2.9,0c0,0,-37.4,-77.6,-98.9,-111.2c0,0,-61.5,-33.5,-152.5,-33.5Z" 
	id="f1_20"
	transform="scale(0.001,-0.001)" />

	<path d="M17.2,0L304.4,415L30.6,807.6l148.4,0L380.4,493.4l200,314.2l149.9,0L456.5,416.5L747.5,0.2l-150,0L380.4,331.4L161.9,0Z" 
	id="f1_2k"
	transform="scale(0.001,-0.001)" />

	<path d="M452.8,84.1c0,0,100,0,145.9,73.6c0,0,45.8,73.6,45.8,247c0,0,0,169,-45.5,241.5c0,0,-45.5,72.5,-144.7,72.5c0,0,-79.8,0,-124.9,-33.7c0,0,-45.2,-33.6,-68.7,-105c0,0,-23.5,-71.4,-23.5,-185.7c0,0,0,-159.2,50.7,-234.7c0,0,50.8,-75.5,164.9,-75.5ZM102.9,-316.7l0,959.4c0,0,0,124.6,-4.4,164.9l129.8,0c0,0,0.7,-2.9,2.2,-21.2c0,0,1.5,-18.2,3.4,-56.1c0,0,1.8,-38,1.8,-52.1l3,0c0,0,35.8,74.7,94.8,109.4c0,0,58.9,34.7,155.1,34.7c0,0,149.2,0,223.1,-100c0,0,73.8,-100.1,73.8,-314.4c0,0,0,-422.5,-296.9,-422.5c0,0,-186.5,0,-250.6,140.3l-3.8,0c0,0,3,-6,3,-126.7l0,-315.7Z" 
	id="f1_2c"
	transform="scale(0.001,-0.001)" />

	<path d="M105.9,0l0,619.5c0,0,0,85.1,-4.4,188.1l126.8,0c0,0,5.9,-137.4,5.9,-165.1l3,0c0,0,32.1,103.7,73.9,141.8c0,0,41.8,38,117.8,38c0,0,26.9,0,54.5,-7.5l0,-123c0,0,-26.9,7.4,-71.6,7.4c0,0,-83.6,0,-127.6,-72c0,0,-44,-72,-44,-206.3L240.2,0Z" 
	id="f1_2e"
	transform="scale(0.001,-0.001)" />

	<path d="M102.9,0l0,1106.8l134.3,0L237.2,0Z" 
	id="f1_28"
	transform="scale(0.001,-0.001)" />

	<path d="M139.5,0l0,163.3l145.5,0L285,0Z" 
	id="f1_i"
	transform="scale(0.001,-0.001)" />

	<path d="M316.3,0L6.7,1051.1l148.5,0L343.9,383.5c0,0,33.6,-125.4,61.9,-258.2c0,0,17.9,82.1,41.4,179.1c0,0,23.5,97,207,746.7l136.5,0L973.5,396.9c0,0,41.8,-160.4,65.7,-271.6l6.7,26.1c0,0,20.1,85.8,32.8,139.9c0,0,12.7,54.1,209.6,759.8l148.5,0L1127.2,0L957.1,0l-182,667.7c0,0,-17.9,62.6,-52.2,224.5c0,0,-19.4,-86.5,-32.9,-144.7C690,747.5,676.6,689.3,486.4,0Z" 
	id="f1_1n"
	transform="scale(0.001,-0.001)" />

	<path d="M381.2,-14.6c0,0,-150.7,0,-232.4,49.6c0,0,-81.7,49.6,-106.3,154.7l118.6,23.2c0,0,17.2,-65.2,70.9,-95.5c0,0,53.7,-30.4,149.2,-30.4c0,0,102.2,0,149.6,31.4c0,0,47.3,31.4,47.3,94.3c0,0,0,47.7,-32.8,77.5c0,0,-32.8,29.8,-105.9,49.2l-96.2,25.3c0,0,-115.7,29.8,-164.5,58.5c0,0,-48.9,28.7,-76.5,69.7c0,0,-27.6,41,-27.6,100.6c0,0,0,110.3,78.7,168.1c0,0,78.7,57.8,229.4,57.8c0,0,133.5,0,212.2,-47c0,0,78.7,-47,99.6,-150.7L573.7,606.8c0,0,-11.2,53.6,-60.1,82.2c0,0,-48.8,28.7,-130.9,28.7c0,0,-91,0,-134.3,-27.5c0,0,-43.2,-27.5,-43.2,-83.2c0,0,0,-34.3,17.8,-56.7c0,0,17.9,-22.4,53,-38c0,0,35.1,-15.6,147.7,-43.2c0,0,106.7,-26.9,153.7,-49.6c0,0,47,-22.7,74.2,-50.3c0,0,27.3,-27.6,42.2,-63.7c0,0,14.9,-36.2,14.9,-82.4c0,0,0,-114,-86.2,-175.9c0,0,-86.1,-61.8,-241.3,-61.8Z" 
	id="f1_2f"
	transform="scale(0.001,-0.001)" />

	<path d="M397.6,92.9c0,0,63.4,0,112.6,37.3c0,0,49.3,37.3,76.1,107.1c0,0,26.9,69.7,26.9,166c0,0,0,98.5,-26.9,169.7c0,0,-26.8,71.3,-75.7,109c0,0,-48.8,37.7,-110.7,37.7c0,0,-103,0,-150,-74.7c0,0,-47,-74.6,-47,-241.7c0,0,0,-165.7,44,-238c0,0,44,-72.4,150.7,-72.4Zm11.2,-409.6c0,0,-132,0,-210.4,51.9c0,0,-78.3,51.8,-100.7,147.3l135,19.4c0,0,13.5,-56.2,59.4,-86.5c0,0,45.8,-30.4,120.4,-30.4c0,0,200.7,0,200.7,235l0,129.9l-1.5,0c0,0,-38,-77.5,-104.4,-116.6c0,0,-66.4,-39.1,-155.2,-39.1c0,0,-148.4,0,-218.2,98.3c0,0,-69.7,98.4,-69.7,309.4c0,0,0,214,74.9,315.7c0,0,75,101.8,227.9,101.8c0,0,85.8,0,148.9,-39.2c0,0,63,-39.1,97.3,-111.4l1.5,0c0,0,0,22.5,3,78c0,0,3,55.6,5.9,60.8l127.6,0c0,0,-4.5,-40.3,-4.5,-167.1l0,-617.1c0,0,0,-340.1,-337.9,-340.1Z" 
	id="f1_23"
	transform="scale(0.001,-0.001)" />

	<path d="M135,0l0,709.9l-113.4,0l0,97.7l113.4,0l0,91c0,0,0,110.3,48.5,158.8c0,0,48.5,48.5,148.5,48.5c0,0,55.9,0,94.7,-9l0,-102.6c0,0,-33.6,6,-59.7,6c0,0,-51.5,0,-74.6,-26.1c0,0,-23.1,-26,-23.1,-94.4l0,-72.2l157.4,0l0,-97.7l-157.4,0L269.3,0Z" 
	id="f1_22"
	transform="scale(0.001,-0.001)" />

	<path d="M326.7,0l0,149.6l145.5,0L472.2,0Zm6,280.6c0,0,1.5,51.5,16,90.3c0,0,14.6,38.9,37.7,68.7c0,0,23.2,29.9,52.2,53.4c0,0,29.1,23.5,59,44.8c0,0,29.8,21.3,58.5,42.6c0,0,28.7,21.2,51.1,47.4c0,0,22.4,26.1,36.2,59c0,0,13.8,32.8,13.8,76.9c0,0,0,85.1,-57.8,134.5c0,0,-57.8,49.3,-162.3,49.3c0,0,-104.4,0,-165.6,-52.2c0,0,-61.1,-52.3,-71.6,-143.3L62.7,761c0,0,19.4,147.7,116.3,226.7c0,0,97,79.1,256.7,79.1c0,0,166.3,0,261.8,-78.8c0,0,95.5,-78.8,95.5,-218.4c0,0,0,-56,-16.4,-100c0,0,-16.4,-44.1,-47,-81.4c0,0,-30.6,-37.3,-100,-88.1l-59.7,-44c0,0,-53.7,-38.9,-79.8,-81.8c0,0,-26.1,-42.9,-26.8,-93.7Z" 
	id="f1_z"
	transform="scale(0.001,-0.001)" />

	<path d="M141,0l0,1051.1l142.5,0L283.5,0Z" 
	id="f1_19"
	transform="scale(0.001,-0.001)" />

	<path d="M223.8,0L-2.1,807.6l132.6,0L267.1,259.3c0,0,5.2,-17.9,32,-147.7l12.7,55.2L480.4,807.6l144,0l141,-554.2L799.7,111.6l23.1,103.7L975.7,807.6l131.3,0L875.8,0.5l-155.9,0l-141,570.7L552,697.2c0,0,-6.7,-33.6,-20.9,-96.6C531.1,600.6,517,537.5,379,0Z" 
	id="f1_2j"
	transform="scale(0.001,-0.001)" />

	<path d="M100.7,0l0,792L221,792l0,-112.6c0,0,87.3,130.2,252.2,130.2c0,0,71.6,0,131.7,-25.7c0,0,60.1,-25.7,89.9,-67.5c0,0,29.9,-41.7,41.8,-99.1c0,0,7.5,-37.3,7.5,-130.5L744.1,0l-134,0l0,481.6c0,0,0,82,-15.6,122.6c0,0,-15.7,40.6,-55.6,64.8c0,0,-40,24.3,-93.7,24.3c0,0,-85.9,0,-148.2,-54.5c0,0,-62.3,-54.4,-62.3,-206.5L234.7,0Z" 
	id="f2_2a"
	transform="scale(0.001,-0.001)" />

	<path d="M405.6,92.9c0,0,88.1,0,149.7,71.8c0,0,61.7,71.9,61.7,219.3c0,0,0,162.3,-62.8,238.2c0,0,-62.7,75.9,-154.6,75.9c0,0,-89.6,0,-149.8,-72.9c0,0,-60.1,-73,-60.1,-230.1c0,0,0,-151.8,64.2,-227c0,0,64.3,-75.2,151.7,-75.2ZM393.2,-17.5c0,0,-94.9,0,-174.4,52.1c0,0,-79.6,52.1,-123.3,145.6c0,0,-43.7,93.6,-43.7,215.1c0,0,0,118.4,39.5,214.9c0,0,39.6,96.6,118.6,148c0,0,79.1,51.4,176.8,51.4c0,0,71.6,0,127.6,-30.3c0,0,55.9,-30.3,91,-78.9l0,392.8l133.9,0L739.2,0L615,0l0,100.4c0,0,-75.4,-117.9,-221.8,-117.9Z" 
	id="f2_20"
	transform="scale(0.001,-0.001)" />

	<path d="M432.6,92.9c0,0,88.2,0,152.4,76.3c0,0,64.3,76.4,64.3,227.5c0,0,0,155,-61.7,228.7c0,0,-61.6,73.7,-149,73.7c0,0,-88.1,0,-152.4,-76.3c0,0,-64.2,-76.4,-64.2,-220.8c0,0,0,-142.3,38.8,-205.6c0,0,63.5,-103.5,171.8,-103.5ZM444.3,-17.5c0,0,-140.5,0,-220.4,117.1L223.9,0L99.7,0l0,1093.2l134,0l0,-390.3c0,0,85.1,106.7,217.3,106.7c0,0,73.2,0,138.6,-29.4c0,0,65.3,-29.5,107.5,-82.8c0,0,42.2,-53.2,66.1,-128.5c0,0,23.9,-75.3,23.9,-161c0,0,0,-203.4,-100.8,-314.4c0,0,-100.9,-111,-242,-111Z" 
	id="f2_1y"
	transform="scale(0.001,-0.001)" />

	<path d="M357.9,88c0,0,77.9,0,138.6,33.9c0,0,60.8,33.9,89.2,92.5c0,0,21.8,45.3,21.8,133.6l0.7,49c0,0,-73.6,-29.7,-220.7,-50.5c0,0,-83.4,-11.9,-117.9,-26.8c0,0,-34.6,-14.8,-53.3,-43.4c0,0,-18.8,-28.6,-18.8,-63.5c0,0,0,-53.5,40.8,-89.1c0,0,40.9,-35.7,119.6,-35.7ZM326.2,-17.5c0,0,-130.9,0,-201.2,63.6c0,0,-70.2,63.7,-70.2,162.9c0,0,0,58.1,26.5,106.1c0,0,26.6,48.1,69.6,77.2c0,0,43,29,96.8,43.9c0,0,39.7,10.5,119.7,20.2c0,0,163,19.3,240.1,46.2c0,0,0.7,27.5,0.7,34.9c0,0,0,81.8,-38.2,115.3c0,0,-51.6,45.3,-153.4,45.3c0,0,-95.1,0,-140.4,-32.9c0,0,-45.3,-33,-67,-116.6l-131,17.5c0,0,17.9,84.2,59,135.9c0,0,41.1,51.8,118.8,79.7c0,0,77.7,27.9,180.1,27.9c0,0,101.6,0,165.1,-23.8c0,0,63.5,-23.9,93.4,-60c0,0,29.8,-36.1,41.8,-91.3c0,0,6.7,-34.2,6.7,-123.6l0,-178.7c0,0,0,-186.8,8.5,-236.6c0,0,8.5,-49.9,33.6,-95.6L645.3,0c0,0,-20.5,41.8,-26.3,97.8c0,0,-75.2,-63.3,-144.4,-89.3c0,0,-69.2,-26,-148.4,-26Z" 
	id="f2_1x"
	transform="scale(0.001,-0.001)" />

	<path d="M385.8,-17.5c0,0,-154.5,0,-235.5,64c0,0,-81,64.1,-103.4,190.1l133,20.6c0,0,11.2,-79.6,62.3,-121.9c0,0,51.2,-42.4,143,-42.4c0,0,92.6,0,137.4,37.6c0,0,44.8,37.6,44.8,88.2c0,0,0,45.4,-39.7,71.4c0,0,-27.7,17.9,-137.4,45.4c0,0,-147.6,37.3,-204.7,64.5c0,0,-57.2,27.2,-86.7,75.3c0,0,-29.5,48.1,-29.5,106.2c0,0,0,52.9,24.3,98c0,0,24.2,45.1,65.9,74.9c0,0,31.4,23.1,85.4,39.2c0,0,54.1,16,116,16c0,0,93.2,0,163.7,-26.8c0,0,70.4,-26.8,104,-72.6c0,0,33.6,-45.8,46.2,-122.5l-131,-17.6c0,0,-8.9,60.8,-51.8,94.9c0,0,-42.9,34.1,-121.1,34.1c0,0,-92.5,0,-132,-30.5c0,0,-39.5,-30.5,-39.5,-71.5c0,0,0,-26,16.4,-46.8c0,0,16.4,-21.6,51.4,-35.8c0,0,20.2,-7.4,118.6,-34.2c0,0,142.4,-38,198.7,-62.2c0,0,56.4,-24.3,88.5,-70.5c0,0,32.1,-46.2,32.1,-114.8c0,0,0,-67,-39.1,-126.3c0,0,-39.2,-59.3,-113.1,-91.7c0,0,-73.9,-32.3,-167.2,-32.3Z" 
	id="f2_2f"
	transform="scale(0.001,-0.001)" />

	<path d="M644.4,472.3c0,0,-9,99.6,-50.8,149.5c0,0,-64.3,77.3,-166.6,77.3c0,0,-92.6,0,-155.7,-61.7c0,0,-63.2,-61.8,-69.9,-165.1ZM433.2,-17.5c0,0,-173.8,0,-275.6,106.8c0,0,-101.9,107,-101.9,300c0,0,0,199.7,103,310c0,0,102.9,110.3,267.1,110.3c0,0,158.9,0,259.6,-108c0,0,100.7,-108.1,100.7,-304.1c0,0,0,-11.9,-0.7,-35.7l-591.8,0c0,0,7.5,-130.4,74,-199.6c0,0,66.5,-69.3,166,-69.3c0,0,74,0,126.3,38.9c0,0,52.3,39,83,124.4L781.7,238.6c0,0,-32.9,-121.8,-121.7,-189c0,0,-88.7,-67.1,-226.8,-67.1Z" 
	id="f2_21"
	transform="scale(0.001,-0.001)" />

	<path d="M422.3,92.9c0,0,100,0,166.4,75.9c0,0,66.4,76,66.4,231.6c0,0,0,146.6,-66.8,222.2c0,0,-66.8,75.5,-166,75.5c0,0,-100.8,0,-167.2,-75.1c0,0,-66.4,-75.2,-66.4,-227.1c0,0,0,-151.9,66.4,-227.4c0,0,66.4,-75.6,167.2,-75.6Zm0,-110.4c0,0,-166.4,0,-268.9,106.5c0,0,-102.6,106.5,-102.6,307c0,0,0,219.8,122.4,325.7c0,0,102.2,87.9,249.1,87.9c0,0,163.3,0,267,-106.9c0,0,103.7,-107,103.7,-295.5c0,0,0,-152.8,-45.9,-240.4c0,0,-45.9,-87.5,-133.5,-136c0,0,-87.6,-48.3,-191.3,-48.3Z" 
	id="f2_2b"
	transform="scale(0.001,-0.001)" />

	<path d="M247.3,0L4.4,792l138.7,0l127,-456.8L316.3,164.8c0,0,2.9,12.7,41.2,163.4L484.2,792l136.1,0L739.7,332.6L778.8,181.2l45.4,153.3L960.2,792l130.5,0L842.7,0L703.9,0L577.7,474.3l-30.6,135L385.8,0Z" 
	id="f2_2j"
	transform="scale(0.001,-0.001)" />

	<path d="M100.7,0l0,1093.2l134,0l0,-392.3c0,0,94,108.7,237.4,108.7c0,0,88,0,153,-34.7c0,0,65,-34.6,92.9,-95.8c0,0,28,-61.1,28,-177.4L746,0L612.1,0l0,501.8c0,0,0,100.7,-43.7,146.6c0,0,-43.7,45.8,-123.7,45.8c0,0,-59.8,0,-112.5,-30.9c0,0,-52.7,-31,-75.1,-83.9c0,0,-22.4,-52.9,-22.4,-146.2L234.7,0Z" 
	id="f2_24"
	transform="scale(0.001,-0.001)" />

	<path d="M312,-10.6c0,0,-73.3,0,-113.6,23c0,0,-40.4,23.1,-56.8,60.8c0,0,-16.4,37.6,-16.4,158.5l0,455.7l-98.8,0l0,104.6l98.8,0l0,196.2l133.9,80.6l0,-276.8l135,0l0,-104.6l-135,0l0,-463.3c0,0,0,-57.5,7.1,-73.9c0,0,7.1,-16.4,23.1,-26.1c0,0,16,-9.7,45.9,-9.7c0,0,22.3,0,58.9,5.4L413.6,1.2c0,0,-56.8,-11.8,-101.6,-11.8Z" 
	id="f2_2g"
	transform="scale(0.001,-0.001)" />

	<path d="M181.6,-321.6c0,0,-38.9,0,-86.8,16.5L80.2,-178.6c0,0,44,-12,76.8,-12c0,0,44.8,0,71.6,14.9c0,0,26.9,15,44,41.8c0,0,12.7,20.1,41.1,99.9c0,0,3.7,11.2,11.9,32.8L24.5,792l144.7,0l165,-458.1c0,0,32.1,-87.2,57.5,-183.3c0,0,23.1,91.8,55.3,179.8L616,792l134.2,0L450.1,-13.8c0,0,-48.7,-130.4,-75.6,-179.6c0,0,-35.9,-66.3,-82.3,-97.2c0,0,-46.3,-31,-110.6,-31Z" 
	id="f2_2l"
	transform="scale(0.001,-0.001)" />

	<path d="M369.1,-17.5c0,0,-70.3,0,-131.2,26.7c0,0,-60.9,26.9,-90.4,67.5c0,0,-29.5,40.6,-41.5,99.5c0,0,-8.2,39.5,-8.2,125.3l0,490.5l133.9,0l0,-439.2c0,0,0,-105.1,8.3,-141.7c0,0,12.6,-52.9,53.8,-83.1c0,0,41.1,-30.2,101.6,-30.2c0,0,60.6,0,113.7,30.9c0,0,53,31,75.1,84.3c0,0,22,53.3,22,154.7l0,424.3l134,0l0,-792L620.9,0l0,116.4c0,0,-92.7,-133.9,-251.8,-133.9Z" 
	id="f2_2h"
	transform="scale(0.001,-0.001)" />

	<path d="M101.5,0l0,1093.2l133.9,0l0,-622.8L553.8,792l173.9,0L424.8,497.7L758,0L592.5,0l-263,405.1L235.4,313.7L235.4,0Z" 
	id="f2_27"
	transform="scale(0.001,-0.001)" />

	<path d="M98.8,0l0,792L219,792l0,-120.5c0,0,46.4,84.4,85.6,111.2c0,0,39.3,26.9,86.4,26.9c0,0,68,0,138.3,-43l-47,-124.3c0,0,-49.1,28.5,-98.3,28.5c0,0,-43.9,0,-78.9,-26.5c0,0,-35,-26.4,-49.9,-73.4c0,0,-22.5,-71.5,-22.5,-156.5L232.7,0Z" 
	id="f2_2e"
	transform="scale(0.001,-0.001)" />

	<path d="M419.7,-17.5c0,0,-162.5,0,-261.3,106.1c0,0,-98.8,106.2,-98.8,304.4c0,0,0,128.2,42.5,224.3c0,0,42.5,96.2,129.4,144.2c0,0,86.8,48.1,189,48.1c0,0,128.9,0,210.9,-65.2c0,0,82,-65.2,105.1,-185.1l-131,-20.5c0,0,-18.6,79.8,-65.9,120c0,0,-47.2,40.3,-114.3,40.3c0,0,-101.2,0,-164.5,-72.6c0,0,-63.3,-72.6,-63.3,-229.8c0,0,0,-159.3,61.1,-231.6c0,0,61.2,-72.2,159.6,-72.2c0,0,79,0,131.9,48.4c0,0,53,48.5,67.2,149.1L749.2,272.8c0,0,-21.6,-136.3,-110.7,-213.3c0,0,-89.1,-77,-218.8,-77Z" 
	id="f2_1z"
	transform="scale(0.001,-0.001)" />

	<path d="M97.8,0l0,1093.2l133.9,0L231.7,0Z" 
	id="f2_28"
	transform="scale(0.001,-0.001)" />

	<path d="M114.4,747L81.2,800c0,0,40.1,16.4,59.8,51.9c0,0,19.6,35.5,21.9,97.5l-70,0l0,155.5l143.7,0l0,-123.2c0,0,0,-99.8,-23,-143.8c0,0,-31.8,-60.3,-99.2,-90.9Z" 
	id="f2_53"
	transform="scale(0.001,-0.001)" />

	<path d="M132.8,0l0,687.4l-118.3,0l0,104.6l118.3,0l0,84.2c0,0,0,79.8,14.2,118.5c0,0,19.5,52.2,68.5,84.6c0,0,49,32.4,137,32.4c0,0,56.7,0,125.3,-13.4L457.7,981.1c0,0,-41.8,7.4,-79.1,7.4c0,0,-61.1,0,-86.5,-26c0,0,-25.4,-26.1,-25.4,-97.5l0,-73l154.5,0l0,-104.6l-154.5,0L266.7,0Z" 
	id="f2_22"
	transform="scale(0.001,-0.001)" />

	<path d="M101.7,0l0,792l133.9,0l0,-792Zm0,938.7l0,154.5l133.9,0l0,-154.5Z" 
	id="f2_25"
	transform="scale(0.001,-0.001)" />

	<path d="M102.2,0l0,1051.1l220.1,0L322.3,0Z" 
	id="f3_19"
	transform="scale(0.001,-0.001)" />

	<path d="M106.7,0l0,627c0,0,0,64.9,-1.9,106.4c0,0,-1.9,41.4,-4.1,74.2l199.9,0c0,0,2.3,-14.2,6,-76.1c0,0,3.7,-62,3.7,-85.2l3,0c0,0,42.5,92.5,106.7,134.2c0,0,64.1,41.8,152.9,41.8c0,0,128.3,0,196.9,-79c0,0,68.7,-79,68.7,-231.1L838.5,0L629.6,0l0,452.5c0,0,0,212.4,-144,212.4c0,0,-76,0,-122.7,-65.2c0,0,-46.6,-65.3,-46.6,-167.4L316.3,0Z" 
	id="f3_2a"
	transform="scale(0.001,-0.001)" />

	<path d="M443.1,-14.6c0,0,-183.5,0,-283.5,109.2c0,0,-99.9,109.3,-99.9,304.7c0,0,0,200,100.7,311.5c0,0,100.7,111.5,285.7,111.5c0,0,142.5,0,235.7,-71.6c0,0,93.3,-71.6,117.2,-197.6L587.8,542.7c0,0,-8.9,61.9,-44.7,98.9c0,0,-35.8,37,-101.5,37c0,0,-161.8,0,-161.8,-270.7c0,0,0,-278.8,164.8,-278.8c0,0,59.7,0,100,37.6c0,0,40.2,37.5,50,112L804.9,269c0,0,-11.2,-82.9,-59.3,-147.8c0,0,-48.1,-65,-126.4,-100.4c0,0,-78.4,-35.4,-176.1,-35.4Z" 
	id="f3_1z"
	transform="scale(0.001,-0.001)" />

	<path d="M461,129.1c0,0,193.2,0,193.2,275.9c0,0,0,143.9,-47,208.7c0,0,-47,64.9,-136.5,64.9c0,0,-190.9,0,-190.9,-273.6c0,0,0,-135,46.6,-205.5c0,0,46.6,-70.4,134.6,-70.4Zm2.3,-143.7c0,0,-188.8,0,-296.2,111.8c0,0,-107.4,111.9,-107.4,307.4c0,0,0,194.7,107.4,306.2c0,0,107.4,111.5,300.6,111.5c0,0,197.7,0,301.8,-107.8c0,0,104.1,-107.8,104.1,-309.9c0,0,0,-196.2,-109,-307.7c0,0,-108.9,-111.5,-301.3,-111.5Z" 
	id="f3_2b"
	transform="scale(0.001,-0.001)" />

	<path d="M106.7,0l0,627c0,0,0,64.9,-1.9,106.4c0,0,-1.9,41.4,-4.1,74.2l199.9,0c0,0,2.3,-14.2,6,-76.1c0,0,3.7,-62,3.7,-85.2l3,0c0,0,38.8,92.5,96.6,134.2c0,0,57.8,41.8,138.4,41.8c0,0,185,0,224.5,-176l4.5,0c0,0,41,94,98.5,135c0,0,57.4,41,146.2,41c0,0,117.9,0,179.8,-80.1c0,0,61.9,-80.2,61.9,-230L1263.7,0L1055.6,0l0,452.5c0,0,0,212.4,-122.4,212.4c0,0,-61.1,0,-100.3,-59.3c0,0,-39.2,-59.2,-42.9,-163.6L790,0L581.9,0l0,452.5c0,0,0,212.4,-122.4,212.4c0,0,-63.4,0,-103.3,-64.8c0,0,-39.9,-64.9,-39.9,-167.8L316.3,0Z" 
	id="f3_29"
	transform="scale(0.001,-0.001)" />

	<path d="M594.6,494.8c0,0,-6,98.2,-47,147.4c0,0,-41.1,49.1,-110.5,49.1c0,0,-73.8,0,-113.7,-51.8c0,0,-39.9,-51.7,-42.2,-144.7ZM437.1,-14.6c0,0,-182,0,-279.7,107.7c0,0,-97.7,107.8,-97.7,314.4c0,0,0,200,99.2,307.4c0,0,99.2,107.4,281.2,107.4c0,0,173.9,0,265.6,-115.2c0,0,91.8,-115.2,91.8,-337.4l0,-6l-517.7,0c0,0,0,-118.1,43.6,-178.3c0,0,43.6,-60.2,124.2,-60.2c0,0,111.1,0,140.2,96.8L785.5,204.8c0,0,-85.8,-219.4,-348.4,-219.4Z" 
	id="f3_21"
	transform="scale(0.001,-0.001)" />

	<path d="M67.9,346.1l0,119.3l373,0l0,-119.3Z" 
	id="f1_h"
	transform="scale(0.001,-0.001)" />

	<path d="M356.6,0l0,881L17.2,881l0,170.1l899.6,0l0,-170.1l-340.2,0l0,-881Z" 
	id="f3_1k"
	transform="scale(0.001,-0.001)" />

	<path d="M591.6,158.4c0,0,147.7,0,227.9,97c0,0,80.2,96.9,80.2,275.1c0,0,0,170.1,-80.6,266.6c0,0,-80.6,96.6,-226,96.6c0,0,-147.8,0,-228.3,-95.8c0,0,-80.6,-95.9,-80.6,-267.4c0,0,0,-173,82.5,-272.5c0,0,82.4,-99.6,224.9,-99.6Zm0,-173c0,0,-247.7,0,-388.3,145.7c0,0,-140.6,145.8,-140.6,399.4c0,0,0,252.9,140.2,394.6c0,0,140.3,141.7,390.2,141.7c0,0,249.9,0,390.5,-143.2c0,0,140.6,-143.2,140.6,-393.1c0,0,0,-164,-64.9,-288.6c0,0,-64.9,-124.6,-185.7,-190.6c0,0,-120.9,-65.9,-282,-65.9Z" 
	id="f3_1f"
	transform="scale(0.001,-0.001)" />

	<path d="M702.7,434.1L599,736.3L566.9,837.7l-15.6,51.5l-4.5,-16.4c0,0,-7.4,-26.9,-17.9,-61.2c0,0,-10.4,-34.3,-128.3,-377.5ZM38,0L421.5,1051.1l259.6,0L1063,0L845.2,0L752,268.9l-400.6,0L258.1,0Z" 
	id="f3_11"
	transform="scale(0.001,-0.001)" />

	<path d="M102.2,0l0,1051.1l220.1,0l0,-881l563.9,0L886.2,0Z" 
	id="f3_1c"
	transform="scale(0.001,-0.001)" />

	<path d="M469.2,169.2c0,0,164.9,11.1,164.9,134.9c0,0,0,37.3,-13.4,60.7c0,0,-13.5,23.5,-39.2,38.4c0,0,-25.7,15,-112.3,39.6l0,-273.6ZM387.9,642.7l0,248.1c0,0,-138.7,-10.5,-138.7,-119.6c0,0,0,-32.9,11.5,-54.5c0,0,11.6,-21.7,33.6,-35.9c0,0,22,-14.2,93.6,-38.1Zm0,-756.2l0,128.2c0,0,-160.4,5.9,-249.9,75.7c0,0,-89.5,69.8,-117.9,213.8l191,35.1c0,0,14.2,-84.3,56.3,-123.5c0,0,42.2,-39.2,120.5,-46.6l0,291.5c0,0,-2.2,1.5,-11.2,3.3c0,0,-8.9,1.9,-11.9,1.9c0,0,-120.9,27.6,-182.4,65.2c0,0,-61.6,37.7,-95.1,95.5c0,0,-33.6,57.8,-33.6,141.4c0,0,0,123.8,85.4,191.7c0,0,85.4,67.8,248.8,73.8l0,100l81.3,0l0,-100c0,0,97.7,-3.7,163,-31c0,0,65.3,-27.2,105.2,-79.9c0,0,39.9,-52.6,64.5,-150.4L605,743.1c0,0,-11.2,65.2,-43.6,100.8c0,0,-32.5,35.6,-92.2,43.9l0,-263l8.2,-1.5c0,0,21.7,0,131.7,-35.8c0,0,110,-35.8,164.5,-105.6c0,0,54.4,-69.7,54.4,-174.9c0,0,0,-135,-90.6,-209.2c0,0,-90.6,-74.2,-268.2,-80.9l0,-130.4Z" 
	id="f3_8"
	transform="scale(0.001,-0.001)" />

	<path d="M102.2,0l0,1051.1l826.6,0l0,-170.1l-606.5,0l0,-264l561,0l0,-170.1l-561,0l0,-276.8l637,0L959.3,0Z" 
	id="f3_15"
	transform="scale(0.001,-0.001)" />

	<path d="M10.5,0L305.9,417.3L24.6,807.6l226,0L423,543.4L594.6,807.6l227.5,0L540.8,419.5L838.5,0L611,0L423,292.6L233.5,0Z" 
	id="f3_2k"
	transform="scale(0.001,-0.001)" />

	<path d="M484.1,129.1c0,0,167.9,0,167.9,278.5c0,0,0,271,-166.4,271c0,0,-83.5,0,-127.9,-73c0,0,-44.4,-73,-44.4,-204c0,0,0,-130.3,44.4,-201.4c0,0,44.4,-71.1,126.4,-71.1ZM106.7,-316.7l0,938.6c0,0,0,114.1,-6,185.7l203.6,0c0,0,3.8,-13.4,6.4,-53.1c0,0,2.6,-39.7,2.6,-78.7l3,0c0,0,70.9,148.5,258.1,148.5c0,0,141,0,218.6,-108.5c0,0,77.6,-108.5,77.6,-308.4c0,0,0,-202.1,-81,-312.1c0,0,-80.9,-109.9,-228.6,-109.9c0,0,-85.1,0,-148.1,36.9c0,0,-63.1,36.9,-96.6,106.3l-4.5,0c0,0,4.5,-22.4,4.5,-135.7l0,-309.6Z" 
	id="f3_2c"
	transform="scale(0.001,-0.001)" />

	<path d="M426,-14.6c0,0,-166.4,0,-254.8,52.4c0,0,-88.4,52.5,-117.5,163.5L238,228.8c0,0,15.6,-57.1,54.1,-80.9c0,0,38.4,-23.7,133.9,-23.7c0,0,88,0,128.3,22.3c0,0,40.3,22.3,40.3,69.9c0,0,0,38.7,-32.5,61.5c0,0,-32.4,22.7,-110,38.4c0,0,-177.6,35,-239.5,65.2c0,0,-61.9,30.1,-94.4,78.2c0,0,-32.4,48.1,-32.4,118.2c0,0,0,115.5,89.1,179.9c0,0,89.2,64.5,252.6,64.5c0,0,143.9,0,231.6,-56c0,0,87.6,-56.1,109.3,-162.2L582.6,584.7c0,0,-8.9,49.8,-44,74.3c0,0,-35.1,24.5,-111.1,24.5c0,0,-74.6,0,-111.9,-19.1c0,0,-37.3,-19.2,-37.3,-64.2c0,0,0,-35,28.7,-55.5c0,0,28.7,-20.5,96.6,-33.9c0,0,94.7,-19.4,168.2,-39.9c0,0,73.5,-20.5,117.9,-48.8c0,0,44.4,-28.3,70.8,-72.7c0,0,26.5,-44.3,26.5,-113.6c0,0,0,-117.1,-95.8,-183.7c0,0,-95.9,-66.7,-265.2,-66.7Z" 
	id="f3_2f"
	transform="scale(0.001,-0.001)" />

	<path d="M555.8,539.7c0,0,91,0,140.2,45.2c0,0,49.2,45.2,49.2,130.3c0,0,0,165.8,-195.4,165.8l-227.5,0l0,-341.3ZM102.2,0l0,1051.1l472.2,0c0,0,188.7,0,290.6,-86.9c0,0,101.8,-87,101.8,-246c0,0,0,-101.5,-46.3,-181.4c0,0,-46.2,-79.9,-132.4,-123.5c0,0,-86.1,-43.7,-204.7,-43.7l-261.1,0L322.3,0Z" 
	id="f3_1g"
	transform="scale(0.001,-0.001)" />

	<path d="M106.7,0l0,618c0,0,0,66.5,-1.9,110.9c0,0,-1.9,44.4,-4.1,78.7l199.9,0c0,0,2.3,-13.5,6,-82.1c0,0,3.7,-68.7,3.7,-91.2l3,0c0,0,30.6,85.1,54.5,119.8c0,0,23.8,34.6,56.7,51.4c0,0,32.8,16.8,82,16.8c0,0,40.3,0,64.9,-11.2l0,-175c0,0,-50.7,11.2,-89.5,11.2c0,0,-78.3,0,-122,-63.4c0,0,-43.6,-63.4,-43.6,-187.9l0,-396Z" 
	id="f3_2e"
	transform="scale(0.001,-0.001)" />

	<path d="M102.9,-316.7c0,0,-74.6,0,-126.7,6.7l0,147.8l38,-2.9c0,0,53.7,0,73.4,23.5c0,0,19.8,23.5,19.8,97.3l0,851.9l209.6,0l0,-902.7c0,0,0,-106.7,-54,-164.1c0,0,-54.1,-57.5,-160.1,-57.5Zm4.5,1269.1l0,154.4l209.6,0l0,-154.4Z" 
	id="f3_26"
	transform="scale(0.001,-0.001)" />

	<path d="M313.3,-13.6c0,0,-92.5,0,-142.5,50.3c0,0,-50,50.4,-50,152.7l0,476.5l-102.1,0l0,141.7l112.6,0l65.6,189.7l131.3,0l0,-189.7l153,0l0,-141.7l-153,0l0,-420.6c0,0,0,-59.1,22.4,-87.2c0,0,22.4,-28,69.4,-28c0,0,24.6,0,70.1,10.4l0,-129c0,0,-77.6,-25.1,-176.8,-25.1Z" 
	id="f3_2g"
	transform="scale(0.001,-0.001)" />

	<path d="M446.1,129.1c0,0,82.8,0,128.3,72.6c0,0,45.5,72.6,45.5,206.7c0,0,0,130.4,-43.6,200.8c0,0,-43.7,70.4,-128.7,70.4c0,0,-84.3,0,-125.3,-68.2c0,0,-41.1,-68.2,-41.1,-208.2c0,0,0,-274.1,164.9,-274.1ZM357.3,-14.6c0,0,-141,0,-217.8,110c0,0,-76.8,110,-76.8,307.7c0,0,0,200.6,80.9,309.9c0,0,80.9,109.3,229.4,109.3c0,0,85.8,0,148.1,-35.8c0,0,62.3,-35.8,95.8,-106.7l1.5,0l-1.5,132.7l0,294.3l209.7,0l0,-930.8c0,0,0,-74.6,5.9,-176L629.6,0c0,0,-3,11.2,-7.1,56.4c0,0,-4.1,45.3,-4.1,75.2l-3,0c0,0,-67.8,-146.2,-258.1,-146.2Z" 
	id="f3_20"
	transform="scale(0.001,-0.001)" />

	<path d="M-2.9,317.8l0,156.4l849.7,0l0,-156.4Z" 
	id="f4_4y"
	transform="scale(0.001,-0.001)" />

	<path d="M508.8,-14.6c0,0,-202.2,0,-317.1,71.5c0,0,-114.9,71.6,-147.7,217L256.6,309c0,0,21.7,-83.3,84.3,-120.9c0,0,62.7,-37.5,173.8,-37.5c0,0,230.5,0,230.5,139.8c0,0,0,44.7,-26.4,73.8c0,0,-26.5,29.1,-74.6,48.5c0,0,-48.2,19.4,-184.7,47c0,0,-117.8,27.6,-164.1,44.3c0,0,-46.2,16.8,-83.5,39.6c0,0,-37.3,22.7,-63.4,54.8c0,0,-26.2,32.1,-40.7,75.3c0,0,-14.5,43.3,-14.5,99.2c0,0,0,142.5,107,218.2c0,0,107,75.7,311.4,75.7c0,0,195.5,0,293.6,-61.2c0,0,98.1,-61.2,126.4,-202.1L718.4,774.4c0,0,-16.4,68.1,-66.8,102.5c0,0,-50.3,34.4,-144.3,34.4c0,0,-200,0,-200,-125.7c0,0,0,-41.1,21.3,-67.1c0,0,21.3,-26.1,63,-44.4c0,0,41.8,-18.3,169.4,-45.9c0,0,151.4,-32,216.7,-59.3c0,0,65.3,-27.2,103.3,-63.4c0,0,38.1,-36.1,58.2,-86.5c0,0,20.1,-50.3,20.1,-116c0,0,0,-154.3,-114.5,-236c0,0,-114.5,-81.6,-336,-81.6Z" 
	id="f3_1j"
	transform="scale(0.001,-0.001)" />

	<path d="M360.3,-14.6c0,0,-128.3,0,-196.9,78.7c0,0,-68.7,78.7,-68.7,230.9l0,512.6l209.6,0l0,-452.4c0,0,0,-212.4,143.3,-212.4c0,0,76.1,0,122.7,65.2c0,0,46.6,65.2,46.6,167.3l0,432.3l209.7,0l0,-627c0,0,0,-103,5.9,-180.6L632.6,0c0,0,-9,107.6,-9,160.6l-3.7,0c0,0,-41.8,-91.7,-106.3,-133.5c0,0,-64.5,-41.7,-153.3,-41.7Z" 
	id="f3_2h"
	transform="scale(0.001,-0.001)" />

	<path d="M106.7,0l0,1106.8l209.6,0L316.3,0Z" 
	id="f3_28"
	transform="scale(0.001,-0.001)" />

	<path d="M297.6,-316.7c0,0,-117.1,168.5,-169.3,336.2c0,0,-52.2,167.8,-52.2,376.6c0,0,0,208.1,52.2,375.5c0,0,52.2,167.4,169.3,335.2l209.7,0c0,0,-117.9,-170,-171.2,-338.5c0,0,-53.4,-168.6,-53.4,-372.9c0,0,0,-203.6,53,-371c0,0,53,-167.3,171.6,-341.1Z" 
	id="f3_c"
	transform="scale(0.001,-0.001)" />

	<path d="M508.8,170.1c0,0,141.7,0,225.3,97.7c0,0,83.5,97.8,83.5,265.6c0,0,0,169.3,-88,258.4c0,0,-88.1,89.2,-251.4,89.2l-155.9,0l0,-710.9ZM102.2,0l0,1051.1l380.5,0c0,0,265.5,0,411,-133.9c0,0,145.5,-133.9,145.5,-383.8c0,0,0,-162.6,-63.8,-283.9c0,0,-63.8,-121.2,-180.5,-185.3C794.9,64.2,678.1,0,527.4,0Z" 
	id="f3_14"
	transform="scale(0.001,-0.001)" />

	<path d="M144,0l0,665.9l-117.9,0l0,141.7l117.9,0l0,84.1c0,0,0,109.4,58.2,162.3c0,0,58.1,52.8,176.8,52.8c0,0,58.9,0,132.7,-11.9l0,-134.6c0,0,-30.5,6.7,-61.1,6.7c0,0,-53.7,0,-75.7,-21.2c0,0,-22,-21.2,-22,-74.9l0,-63.3l158.8,0l0,-141.7l-158.8,0L352.9,0Z" 
	id="f3_22"
	transform="scale(0.001,-0.001)" />

	<path d="M106.7,0l0,807.6l209.6,0L316.3,0Zm0,952.4l0,154.4l209.6,0l0,-154.4Z" 
	id="f3_25"
	transform="scale(0.001,-0.001)" />

	<path d="M1.5,-316.7c0,0,119.3,174.5,171.9,341.1c0,0,52.6,166.6,52.6,371c0,0,0,205.1,-53.7,374c0,0,-53.7,168.9,-170.8,337.4l209.6,0c0,0,117.9,-169.2,169.7,-337c0,0,51.9,-167.8,51.9,-373.7c0,0,0,-207.3,-51.9,-375.1c0,0,-51.8,-167.7,-169.7,-337.7Z" 
	id="f3_d"
	transform="scale(0.001,-0.001)" />


</defs>
</svg>