<?xml version="1.0" encoding="UTF-8" standalone="no"?>
<!DOCTYPE svg PUBLIC "-//W3C//DTD SVG 1.1//EN"
"http://www.w3.org/Graphics/SVG/1.1/DTD/svg11.dtd">
<svg viewBox="0 0 909 1286" version="1.1" xmlns="http://www.w3.org/2000/svg" xmlns:xlink="http://www.w3.org/1999/xlink">
<defs>
<style type="text/css"><![CDATA[
.g1_3{
fill: #002060;
}
]]></style>
</defs>
<g fill="#000000" >
<use xlink:href="#f0_s0" transform="matrix(11,0,0,11,110,1207.1)" />
<use xlink:href="#f1_19" transform="matrix(12,0,0,12,110,126.9)" />
<use xlink:href="#f1_2f" transform="matrix(12,0,0,12,115.1,126.9)" />
<use xlink:href="#f1_2g" transform="matrix(12,0,0,12,129.5,126.9)" />
<use xlink:href="#f1_24" transform="matrix(12,0,0,12,134.6,126.9)" />
<use xlink:href="#f1_21" transform="matrix(12,0,0,12,144.9,126.9)" />
<use xlink:href="#f1_1y" transform="matrix(12,0,0,12,160,126.9)" />
<use xlink:href="#f1_2h" transform="matrix(12,0,0,12,170.3,126.9)" />
<use xlink:href="#f1_20" transform="matrix(12,0,0,12,180.4,126.9)" />
<use xlink:href="#f1_23" transform="matrix(12,0,0,12,190.6,126.9)" />
<use xlink:href="#f1_21" transform="matrix(12,0,0,12,200.7,126.9)" />
<use xlink:href="#f1_2g" transform="matrix(12,0,0,12,211,126.9)" />
<use xlink:href="#f1_2c" transform="matrix(12,0,0,12,221.2,126.9)" />
<use xlink:href="#f1_2e" transform="matrix(12,0,0,12,231.5,126.9)" />
<use xlink:href="#f1_2b" transform="matrix(12,0,0,12,237.6,126.9)" />
<use xlink:href="#f1_1z" transform="matrix(12,0,0,12,247.8,126.9)" />
<use xlink:href="#f1_21" transform="matrix(12,0,0,12,256.8,126.9)" />
<use xlink:href="#f1_2f" transform="matrix(12,0,0,12,267,126.9)" />
<use xlink:href="#f1_2f" transform="matrix(12,0,0,12,276.2,126.9)" />
<use xlink:href="#f1_1x" transform="matrix(12,0,0,12,290.3,126.9)" />
<use xlink:href="#f1_2g" transform="matrix(12,0,0,12,300.6,126.9)" />
<use xlink:href="#f1_2l" transform="matrix(12,0,0,12,310.8,126.9)" />
<use xlink:href="#f1_2b" transform="matrix(12,0,0,12,319.8,126.9)" />
<use xlink:href="#f1_2h" transform="matrix(12,0,0,12,330,126.9)" />
<use xlink:href="#f1_2e" transform="matrix(12,0,0,12,340.3,126.9)" />
<use xlink:href="#f1_1z" transform="matrix(12,0,0,12,351.5,126.9)" />
<use xlink:href="#f1_28" transform="matrix(12,0,0,12,360.7,126.9)" />
<use xlink:href="#f1_2h" transform="matrix(12,0,0,12,364.7,126.9)" />
<use xlink:href="#f1_1y" transform="matrix(12,0,0,12,374.9,126.9)" />
<use xlink:href="#f1_1x" transform="matrix(12,0,0,12,390.1,126.9)" />
<use xlink:href="#f1_2c" transform="matrix(12,0,0,12,400.4,126.9)" />
<use xlink:href="#f1_2c" transform="matrix(12,0,0,12,410.6,126.9)" />
<use xlink:href="#f1_2e" transform="matrix(12,0,0,12,420.9,126.9)" />
<use xlink:href="#f1_2b" transform="matrix(12,0,0,12,427,126.9)" />
<use xlink:href="#f1_2c" transform="matrix(12,0,0,12,437,126.9)" />
<use xlink:href="#f1_2e" transform="matrix(12,0,0,12,447.2,126.9)" />
<use xlink:href="#f1_25" transform="matrix(12,0,0,12,453.3,126.9)" />
<use xlink:href="#f1_1x" transform="matrix(12,0,0,12,457.3,126.9)" />
<use xlink:href="#f1_2g" transform="matrix(12,0,0,12,467.6,126.9)" />
<use xlink:href="#f1_21" transform="matrix(12,0,0,12,472.5,126.9)" />
<use xlink:href="#f1_z" transform="matrix(12,0,0,12,482.8,126.9)" />
<use xlink:href="#f1_1n" transform="matrix(12,0,0,12,497.6,126.9)" />
<use xlink:href="#f1_24" transform="matrix(12,0,0,12,515.6,126.9)" />
<use xlink:href="#f1_1x" transform="matrix(12,0,0,12,525.6,126.9)" />
<use xlink:href="#f1_2g" transform="matrix(12,0,0,12,535.7,126.9)" />
<use xlink:href="#f1_25" transform="matrix(12,0,0,12,546,126.9)" />
<use xlink:href="#f1_29" transform="matrix(12,0,0,12,550,126.9)" />
<use xlink:href="#f1_2c" transform="matrix(12,0,0,12,565.2,126.9)" />
<use xlink:href="#f1_2e" transform="matrix(12,0,0,12,575.5,126.9)" />
<use xlink:href="#f1_2b" transform="matrix(12,0,0,12,581.6,126.9)" />
<use xlink:href="#f1_2i" transform="matrix(12,0,0,12,591.8,126.9)" />
<use xlink:href="#f1_21" transform="matrix(12,0,0,12,600.8,126.9)" />
<use xlink:href="#f1_29" transform="matrix(12,0,0,12,611,126.9)" />
<use xlink:href="#f1_21" transform="matrix(12,0,0,12,626.4,126.9)" />
<use xlink:href="#f1_2a" transform="matrix(12,0,0,12,636.5,126.9)" />
<use xlink:href="#f1_2g" transform="matrix(12,0,0,12,646.7,126.9)" />
<use xlink:href="#f1_2f" transform="matrix(12,0,0,12,651.7,126.9)" />
<use xlink:href="#f1_29" transform="matrix(12,0,0,12,665.9,126.9)" />
<use xlink:href="#f1_1x" transform="matrix(12,0,0,12,681.4,126.9)" />
<use xlink:href="#f1_2l" transform="matrix(12,0,0,12,691.6,126.9)" />
<use xlink:href="#f1_1y" transform="matrix(12,0,0,12,705.7,126.9)" />
<use xlink:href="#f1_21" transform="matrix(12,0,0,12,716,126.9)" />
<use xlink:href="#f1_29" transform="matrix(12,0,0,12,731.2,126.9)" />
<use xlink:href="#f1_1x" transform="matrix(12,0,0,12,746.4,126.9)" />
<use xlink:href="#f1_20" transform="matrix(12,0,0,12,756.6,126.9)" />
<use xlink:href="#f1_21" transform="matrix(12,0,0,12,766.9,126.9)" />
<use xlink:href="#f1_2g" transform="matrix(12,0,0,12,782.1,126.9)" />
<use xlink:href="#f1_2b" transform="matrix(12,0,0,12,787.2,126.9)" />
<use xlink:href="#f1_2g" transform="matrix(12,0,0,12,110,148)" />
<use xlink:href="#f1_24" transform="matrix(12,0,0,12,115.1,148)" />
<use xlink:href="#f1_21" transform="matrix(12,0,0,12,125.4,148)" />
<use xlink:href="#f1_2c" transform="matrix(12,0,0,12,140.6,148)" />
<use xlink:href="#f1_2e" transform="matrix(12,0,0,12,150.9,148)" />
<use xlink:href="#f1_2b" transform="matrix(12,0,0,12,157,148)" />
<use xlink:href="#f1_1z" transform="matrix(12,0,0,12,167.2,148)" />
<use xlink:href="#f1_21" transform="matrix(12,0,0,12,176.3,148)" />
<use xlink:href="#f1_2f" transform="matrix(12,0,0,12,186.6,148)" />
<use xlink:href="#f1_2f" transform="matrix(12,0,0,12,195.8,148)" />
<use xlink:href="#f1_z" transform="matrix(12,0,0,12,204.9,148)" />
</g>
<path fill-rule="evenodd" d="M100.7,176l2.2,0l0,-2.4l-2.2,0l0,2.4Z" class="g1_3" />
<path fill-rule="evenodd" d="M100.7,175.8l2.2,0l0,-2.2l-2.2,0l0,2.2Z" class="g1_3" />
<path fill-rule="evenodd" d="M102.9,175.8l704,0l0,-2.2l-704,0l0,2.2Z" class="g1_3" />
<path fill-rule="evenodd" d="M806.8,176l2.3,0l0,-2.4l-2.3,0l0,2.4Z" class="g1_3" />
<path fill-rule="evenodd" d="M806.8,175.8l2.3,0l0,-2.2l-2.3,0l0,2.2Z" class="g1_3" />
<path fill-rule="evenodd" d="M100.7,876.7l2.2,0l0,-700.7l-2.2,0l0,700.7Z" class="g1_3" />
<path fill-rule="evenodd" d="M100.7,878.9l2.2,0l0,-2.2l-2.2,0l0,2.2Z" class="g1_3" />
<path fill-rule="evenodd" d="M100.7,878.9l2.2,0l0,-2.2l-2.2,0l0,2.2Z" class="g1_3" />
<path fill-rule="evenodd" d="M102.9,878.9l704,0l0,-2.2l-704,0l0,2.2Z" class="g1_3" />
<path fill-rule="evenodd" d="M806.8,876.7l2.3,0l0,-700.7l-2.3,0l0,700.7Z" class="g1_3" />
<path fill-rule="evenodd" d="M806.8,878.9l2.3,0l0,-2.2l-2.3,0l0,2.2Z" class="g1_3" />
<path fill-rule="evenodd" d="M806.8,878.9l2.3,0l0,-2.2l-2.3,0l0,2.2Z" class="g1_3" />
<g fill="#000000" >
<use xlink:href="#f1_1k" transform="matrix(12,0,0,12,110,917.2)" />
<use xlink:href="#f1_24" transform="matrix(12,0,0,12,121.4,917.2)" />
<use xlink:href="#f1_21" transform="matrix(12,0,0,12,131.5,917.2)" />
<use xlink:href="#f1_2f" transform="matrix(12,0,0,12,146.8,917.2)" />
<use xlink:href="#f1_25" transform="matrix(12,0,0,12,156,917.2)" />
<use xlink:href="#f1_2m" transform="matrix(12,0,0,12,160.1,917.2)" />
<use xlink:href="#f1_21" transform="matrix(12,0,0,12,169,917.2)" />
<use xlink:href="#f1_1x" transform="matrix(12,0,0,12,184.4,917.2)" />
<use xlink:href="#f1_2a" transform="matrix(12,0,0,12,194.7,917.2)" />
<use xlink:href="#f1_20" transform="matrix(12,0,0,12,204.9,917.2)" />
<use xlink:href="#f1_2f" transform="matrix(12,0,0,12,220.1,917.2)" />
<use xlink:href="#f1_2b" transform="matrix(12,0,0,12,229.3,917.2)" />
<use xlink:href="#f1_2c" transform="matrix(12,0,0,12,239.5,917.2)" />
<use xlink:href="#f1_24" transform="matrix(12,0,0,12,249.6,917.2)" />
<use xlink:href="#f1_25" transform="matrix(12,0,0,12,259.9,917.2)" />
<use xlink:href="#f1_2f" transform="matrix(12,0,0,12,263.9,917.2)" />
<use xlink:href="#f1_2g" transform="matrix(12,0,0,12,273.1,917.2)" />
<use xlink:href="#f1_25" transform="matrix(12,0,0,12,278.2,917.2)" />
<use xlink:href="#f1_1z" transform="matrix(12,0,0,12,282.3,917.2)" />
<use xlink:href="#f1_1x" transform="matrix(12,0,0,12,291.2,917.2)" />
<use xlink:href="#f1_2g" transform="matrix(12,0,0,12,301.5,917.2)" />
<use xlink:href="#f1_25" transform="matrix(12,0,0,12,306.6,917.2)" />
<use xlink:href="#f1_2b" transform="matrix(12,0,0,12,310.6,917.2)" />
<use xlink:href="#f1_2a" transform="matrix(12,0,0,12,320.9,917.2)" />
<use xlink:href="#f1_2b" transform="matrix(12,0,0,12,336.1,917.2)" />
<use xlink:href="#f1_22" transform="matrix(12,0,0,12,346.2,917.2)" />
<use xlink:href="#f1_1y" transform="matrix(12,0,0,12,356.4,917.2)" />
<use xlink:href="#f1_2h" transform="matrix(12,0,0,12,366.7,917.2)" />
<use xlink:href="#f1_20" transform="matrix(12,0,0,12,376.9,917.2)" />
<use xlink:href="#f1_23" transform="matrix(12,0,0,12,387.2,917.2)" />
<use xlink:href="#f1_21" transform="matrix(12,0,0,12,397.2,917.2)" />
<use xlink:href="#f1_2g" transform="matrix(12,0,0,12,407.5,917.2)" />
<use xlink:href="#f1_2c" transform="matrix(12,0,0,12,417.6,917.2)" />
<use xlink:href="#f1_2e" transform="matrix(12,0,0,12,427.8,917.2)" />
<use xlink:href="#f1_2b" transform="matrix(12,0,0,12,433.9,917.2)" />
<use xlink:href="#f1_1z" transform="matrix(12,0,0,12,444.1,917.2)" />
<use xlink:href="#f1_21" transform="matrix(12,0,0,12,453.3,917.2)" />
<use xlink:href="#f1_2f" transform="matrix(12,0,0,12,463.6,917.2)" />
<use xlink:href="#f1_2f" transform="matrix(12,0,0,12,472.5,917.2)" />
<use xlink:href="#f1_21" transform="matrix(12,0,0,12,481.7,917.2)" />
<use xlink:href="#f1_2f" transform="matrix(12,0,0,12,492,917.2)" />
<use xlink:href="#f1_g" transform="matrix(12,0,0,12,501.1,917.2)" />
<use xlink:href="#f1_20" transform="matrix(12,0,0,12,511.4,917.2)" />
<use xlink:href="#f1_1x" transform="matrix(12,0,0,12,521.5,917.2)" />
<use xlink:href="#f1_2g" transform="matrix(12,0,0,12,531.7,917.2)" />
<use xlink:href="#f1_1x" transform="matrix(12,0,0,12,536.8,917.2)" />
<use xlink:href="#f1_1x" transform="matrix(12,0,0,12,552,917.2)" />
<use xlink:href="#f1_2a" transform="matrix(12,0,0,12,562.3,917.2)" />
<use xlink:href="#f1_20" transform="matrix(12,0,0,12,572.4,917.2)" />
<use xlink:href="#f1_20" transform="matrix(12,0,0,12,587.7,917.2)" />
<use xlink:href="#f1_2b" transform="matrix(12,0,0,12,598,917.2)" />
<use xlink:href="#f1_1z" transform="matrix(12,0,0,12,608.2,917.2)" />
<use xlink:href="#f1_2h" transform="matrix(12,0,0,12,617.2,917.2)" />
<use xlink:href="#f1_29" transform="matrix(12,0,0,12,627.3,917.2)" />
<use xlink:href="#f1_21" transform="matrix(12,0,0,12,642.7,917.2)" />
<use xlink:href="#f1_2a" transform="matrix(12,0,0,12,652.8,917.2)" />
<use xlink:href="#f1_2g" transform="matrix(12,0,0,12,663,917.2)" />
<use xlink:href="#f1_2f" transform="matrix(12,0,0,12,668.1,917.2)" />
<use xlink:href="#f1_2j" transform="matrix(12,0,0,12,682.4,917.2)" />
<use xlink:href="#f1_25" transform="matrix(12,0,0,12,695.5,917.2)" />
<use xlink:href="#f1_28" transform="matrix(12,0,0,12,699.5,917.2)" />
<use xlink:href="#f1_28" transform="matrix(12,0,0,12,703.5,917.2)" />
<use xlink:href="#f1_20" transform="matrix(12,0,0,12,712.7,917.2)" />
<use xlink:href="#f1_21" transform="matrix(12,0,0,12,722.9,917.2)" />
<use xlink:href="#f1_2c" transform="matrix(12,0,0,12,733.2,917.2)" />
<use xlink:href="#f1_21" transform="matrix(12,0,0,12,743.4,917.2)" />
<use xlink:href="#f1_2a" transform="matrix(12,0,0,12,753.7,917.2)" />
<use xlink:href="#f1_20" transform="matrix(12,0,0,12,763.9,917.2)" />
<use xlink:href="#f1_2b" transform="matrix(12,0,0,12,110,938.3)" />
<use xlink:href="#f1_2a" transform="matrix(12,0,0,12,120.3,938.3)" />
<use xlink:href="#f1_2g" transform="matrix(12,0,0,12,135.6,938.3)" />
<use xlink:href="#f1_24" transform="matrix(12,0,0,12,140.6,938.3)" />
<use xlink:href="#f1_21" transform="matrix(12,0,0,12,150.9,938.3)" />
<use xlink:href="#f1_2f" transform="matrix(12,0,0,12,166.2,938.3)" />
<use xlink:href="#f1_25" transform="matrix(12,0,0,12,175.4,938.3)" />
<use xlink:href="#f1_2m" transform="matrix(12,0,0,12,179.4,938.3)" />
<use xlink:href="#f1_21" transform="matrix(12,0,0,12,188.4,938.3)" />
<use xlink:href="#f1_1x" transform="matrix(12,0,0,12,203.8,938.3)" />
<use xlink:href="#f1_2a" transform="matrix(12,0,0,12,214.1,938.3)" />
<use xlink:href="#f1_20" transform="matrix(12,0,0,12,224.1,938.3)" />
<use xlink:href="#f1_2f" transform="matrix(12,0,0,12,239.5,938.3)" />
<use xlink:href="#f1_1z" transform="matrix(12,0,0,12,248.7,938.3)" />
<use xlink:href="#f1_1x" transform="matrix(12,0,0,12,257.8,938.3)" />
<use xlink:href="#f1_28" transform="matrix(12,0,0,12,268.1,938.3)" />
<use xlink:href="#f1_21" transform="matrix(12,0,0,12,272.2,938.3)" />
<use xlink:href="#f1_2b" transform="matrix(12,0,0,12,287.3,938.3)" />
<use xlink:href="#f1_22" transform="matrix(12,0,0,12,297.4,938.3)" />
<use xlink:href="#f1_2g" transform="matrix(12,0,0,12,307.7,938.3)" />
<use xlink:href="#f1_24" transform="matrix(12,0,0,12,312.8,938.3)" />
<use xlink:href="#f1_21" transform="matrix(12,0,0,12,323.1,938.3)" />
<use xlink:href="#f1_2f" transform="matrix(12,0,0,12,338.3,938.3)" />
<use xlink:href="#f1_2c" transform="matrix(12,0,0,12,347.4,938.3)" />
<use xlink:href="#f1_2b" transform="matrix(12,0,0,12,357.7,938.3)" />
<use xlink:href="#f1_2e" transform="matrix(12,0,0,12,368,938.3)" />
<use xlink:href="#f1_2g" transform="matrix(12,0,0,12,374.1,938.3)" />
<use xlink:href="#f1_2f" transform="matrix(12,0,0,12,379.2,938.3)" />
<use xlink:href="#f1_2b" transform="matrix(12,0,0,12,393.3,938.3)" />
<use xlink:href="#f1_2e" transform="matrix(12,0,0,12,403.5,938.3)" />
<use xlink:href="#f1_2e" transform="matrix(12,0,0,12,414.7,938.3)" />
<use xlink:href="#f1_21" transform="matrix(12,0,0,12,420.7,938.3)" />
<use xlink:href="#f1_1z" transform="matrix(12,0,0,12,431,938.3)" />
<use xlink:href="#f1_2e" transform="matrix(12,0,0,12,440.1,938.3)" />
<use xlink:href="#f1_21" transform="matrix(12,0,0,12,446.2,938.3)" />
<use xlink:href="#f1_1x" transform="matrix(12,0,0,12,456.4,938.3)" />
<use xlink:href="#f1_2g" transform="matrix(12,0,0,12,466.5,938.3)" />
<use xlink:href="#f1_25" transform="matrix(12,0,0,12,471.6,938.3)" />
<use xlink:href="#f1_2b" transform="matrix(12,0,0,12,475.7,938.3)" />
<use xlink:href="#f1_2a" transform="matrix(12,0,0,12,485.9,938.3)" />
<use xlink:href="#f1_1z" transform="matrix(12,0,0,12,501.3,938.3)" />
<use xlink:href="#f1_28" transform="matrix(12,0,0,12,510.5,938.3)" />
<use xlink:href="#f1_2h" transform="matrix(12,0,0,12,514.5,938.3)" />
<use xlink:href="#f1_1y" transform="matrix(12,0,0,12,524.6,938.3)" />
<use xlink:href="#f1_i" transform="matrix(12,0,0,12,534.9,938.3)" />
<use xlink:href="#f1_1j" transform="matrix(12,0,0,12,110,980.6)" />
<use xlink:href="#f1_2b" transform="matrix(12,0,0,12,122.3,980.6)" />
<use xlink:href="#f1_29" transform="matrix(12,0,0,12,132.6,980.6)" />
<use xlink:href="#f1_21" transform="matrix(12,0,0,12,147.8,980.6)" />
<use xlink:href="#f1_1z" transform="matrix(12,0,0,12,163.1,980.6)" />
<use xlink:href="#f1_28" transform="matrix(12,0,0,12,172.3,980.6)" />
<use xlink:href="#f1_2h" transform="matrix(12,0,0,12,176.3,980.6)" />
<use xlink:href="#f1_1y" transform="matrix(12,0,0,12,186.4,980.6)" />
<use xlink:href="#f1_2f" transform="matrix(12,0,0,12,196.7,980.6)" />
<use xlink:href="#f1_29" transform="matrix(12,0,0,12,210.9,980.6)" />
<use xlink:href="#f1_1x" transform="matrix(12,0,0,12,226.2,980.6)" />
<use xlink:href="#f1_2l" transform="matrix(12,0,0,12,236.4,980.6)" />
<use xlink:href="#f1_23" transform="matrix(12,0,0,12,250.5,980.6)" />
<use xlink:href="#f1_21" transform="matrix(12,0,0,12,260.6,980.6)" />
<use xlink:href="#f1_2a" transform="matrix(12,0,0,12,270.9,980.6)" />
<use xlink:href="#f1_21" transform="matrix(12,0,0,12,281.1,980.6)" />
<use xlink:href="#f1_2e" transform="matrix(12,0,0,12,291.4,980.6)" />
<use xlink:href="#f1_1x" transform="matrix(12,0,0,12,297.5,980.6)" />
<use xlink:href="#f1_2g" transform="matrix(12,0,0,12,307.7,980.6)" />
<use xlink:href="#f1_21" transform="matrix(12,0,0,12,312.8,980.6)" />
<use xlink:href="#f1_2e" transform="matrix(12,0,0,12,328.2,980.6)" />
<use xlink:href="#f1_21" transform="matrix(12,0,0,12,334.3,980.6)" />
<use xlink:href="#f1_2i" transform="matrix(12,0,0,12,344.5,980.6)" />
<use xlink:href="#f1_21" transform="matrix(12,0,0,12,353.5,980.6)" />
<use xlink:href="#f1_2a" transform="matrix(12,0,0,12,363.8,980.6)" />
<use xlink:href="#f1_2h" transform="matrix(12,0,0,12,374,980.6)" />
<use xlink:href="#f1_21" transform="matrix(12,0,0,12,384.1,980.6)" />
<use xlink:href="#f1_22" transform="matrix(12,0,0,12,399.3,980.6)" />
<use xlink:href="#f1_2e" transform="matrix(12,0,0,12,404.6,980.6)" />
<use xlink:href="#f1_2b" transform="matrix(12,0,0,12,410.7,980.6)" />
<use xlink:href="#f1_29" transform="matrix(12,0,0,12,420.7,980.6)" />
<use xlink:href="#f1_1x" transform="matrix(12,0,0,12,441.1,980.6)" />
<use xlink:href="#f1_2e" transform="matrix(12,0,0,12,456.4,980.6)" />
<use xlink:href="#f1_1x" transform="matrix(12,0,0,12,462.5,980.6)" />
<use xlink:href="#f1_2a" transform="matrix(12,0,0,12,472.7,980.6)" />
<use xlink:href="#f1_23" transform="matrix(12,0,0,12,482.8,980.6)" />
<use xlink:href="#f1_21" transform="matrix(12,0,0,12,492.9,980.6)" />
<use xlink:href="#f1_2b" transform="matrix(12,0,0,12,508.3,980.6)" />
<use xlink:href="#f1_22" transform="matrix(12,0,0,12,518.4,980.6)" />
<use xlink:href="#f1_25" transform="matrix(12,0,0,12,528.8,980.6)" />
<use xlink:href="#f1_2a" transform="matrix(12,0,0,12,532.9,980.6)" />
<use xlink:href="#f1_1z" transform="matrix(12,0,0,12,543.1,980.6)" />
<use xlink:href="#f1_2b" transform="matrix(12,0,0,12,552.3,980.6)" />
<use xlink:href="#f1_29" transform="matrix(12,0,0,12,562.4,980.6)" />
<use xlink:href="#f1_21" transform="matrix(12,0,0,12,577.7,980.6)" />
<use xlink:href="#f1_2f" transform="matrix(12,0,0,12,592.9,980.6)" />
<use xlink:href="#f1_2g" transform="matrix(12,0,0,12,602.1,980.6)" />
<use xlink:href="#f1_2e" transform="matrix(12,0,0,12,607.2,980.6)" />
<use xlink:href="#f1_21" transform="matrix(12,0,0,12,613.3,980.6)" />
<use xlink:href="#f1_1x" transform="matrix(12,0,0,12,623.5,980.6)" />
<use xlink:href="#f1_29" transform="matrix(12,0,0,12,633.6,980.6)" />
<use xlink:href="#f1_2f" transform="matrix(12,0,0,12,649,980.6)" />
<use xlink:href="#f1_2f" transform="matrix(12,0,0,12,663.1,980.6)" />
<use xlink:href="#f1_2h" transform="matrix(12,0,0,12,672.3,980.6)" />
<use xlink:href="#f1_1z" transform="matrix(12,0,0,12,682.6,980.6)" />
<use xlink:href="#f1_24" transform="matrix(12,0,0,12,691.7,980.6)" />
<use xlink:href="#f1_1x" transform="matrix(12,0,0,12,707.6,980.6)" />
<use xlink:href="#f1_2f" transform="matrix(12,0,0,12,717.9,980.6)" />
<use xlink:href="#f1_29" transform="matrix(12,0,0,12,110,1001.7)" />
<use xlink:href="#f1_21" transform="matrix(12,0,0,12,125.4,1001.7)" />
<use xlink:href="#f1_29" transform="matrix(12,0,0,12,135.5,1001.7)" />
<use xlink:href="#f1_1y" transform="matrix(12,0,0,12,150.9,1001.7)" />
<use xlink:href="#f1_21" transform="matrix(12,0,0,12,161,1001.7)" />
<use xlink:href="#f1_2e" transform="matrix(12,0,0,12,171.2,1001.7)" />
<use xlink:href="#f1_2f" transform="matrix(12,0,0,12,177.3,1001.7)" />
<use xlink:href="#f1_24" transform="matrix(12,0,0,12,186.5,1001.7)" />
<use xlink:href="#f1_25" transform="matrix(12,0,0,12,196.7,1001.7)" />
<use xlink:href="#f1_2c" transform="matrix(12,0,0,12,200.8,1001.7)" />
<use xlink:href="#f1_22" transform="matrix(12,0,0,12,215.9,1001.7)" />
<use xlink:href="#f1_21" transform="matrix(12,0,0,12,221,1001.7)" />
<use xlink:href="#f1_21" transform="matrix(12,0,0,12,231.3,1001.7)" />
<use xlink:href="#f1_2f" transform="matrix(12,0,0,12,241.6,1001.7)" />
<use xlink:href="#f1_g" transform="matrix(12,0,0,12,250.7,1001.7)" />
<use xlink:href="#f1_29" transform="matrix(12,0,0,12,260.8,1001.7)" />
<use xlink:href="#f1_21" transform="matrix(12,0,0,12,276.2,1001.7)" />
<use xlink:href="#f1_2e" transform="matrix(12,0,0,12,286.4,1001.7)" />
<use xlink:href="#f1_1z" transform="matrix(12,0,0,12,292.3,1001.7)" />
<use xlink:href="#f1_24" transform="matrix(12,0,0,12,301.5,1001.7)" />
<use xlink:href="#f1_1x" transform="matrix(12,0,0,12,311.7,1001.7)" />
<use xlink:href="#f1_2a" transform="matrix(12,0,0,12,322,1001.7)" />
<use xlink:href="#f1_20" transform="matrix(12,0,0,12,332.1,1001.7)" />
<use xlink:href="#f1_25" transform="matrix(12,0,0,12,342.3,1001.7)" />
<use xlink:href="#f1_2f" transform="matrix(12,0,0,12,346.4,1001.7)" />
<use xlink:href="#f1_21" transform="matrix(12,0,0,12,355.5,1001.7)" />
<use xlink:href="#f1_2f" transform="matrix(12,0,0,12,371.1,1001.7)" />
<use xlink:href="#f1_1x" transform="matrix(12,0,0,12,380.3,1001.7)" />
<use xlink:href="#f1_28" transform="matrix(12,0,0,12,390.6,1001.7)" />
<use xlink:href="#f1_21" transform="matrix(12,0,0,12,394.6,1001.7)" />
<use xlink:href="#f1_2f" transform="matrix(12,0,0,12,404.8,1001.7)" />
<use xlink:href="#f1_g" transform="matrix(12,0,0,12,413.8,1001.7)" />
<use xlink:href="#f1_1z" transform="matrix(12,0,0,12,424.1,1001.7)" />
<use xlink:href="#f1_1x" transform="matrix(12,0,0,12,433.3,1001.7)" />
<use xlink:href="#f1_2a" transform="matrix(12,0,0,12,443.3,1001.7)" />
<use xlink:href="#f1_2g" transform="matrix(12,0,0,12,453.6,1001.7)" />
<use xlink:href="#f1_21" transform="matrix(12,0,0,12,458.7,1001.7)" />
<use xlink:href="#f1_21" transform="matrix(12,0,0,12,468.8,1001.7)" />
<use xlink:href="#f1_2a" transform="matrix(12,0,0,12,478.9,1001.7)" />
<use xlink:href="#f1_1x" transform="matrix(12,0,0,12,494.2,1001.7)" />
<use xlink:href="#f1_2a" transform="matrix(12,0,0,12,504.5,1001.7)" />
<use xlink:href="#f1_20" transform="matrix(12,0,0,12,514.6,1001.7)" />
<use xlink:href="#f1_1y" transform="matrix(12,0,0,12,529.9,1001.7)" />
<use xlink:href="#f1_1x" transform="matrix(12,0,0,12,540.1,1001.7)" />
<use xlink:href="#f1_2e" transform="matrix(12,0,0,12,550.3,1001.7)" />
<use xlink:href="#f1_2g" transform="matrix(12,0,0,12,561.5,1001.7)" />
<use xlink:href="#f1_1x" transform="matrix(12,0,0,12,566.6,1001.7)" />
<use xlink:href="#f1_27" transform="matrix(12,0,0,12,576.9,1001.7)" />
<use xlink:href="#f1_25" transform="matrix(12,0,0,12,586,1001.7)" />
<use xlink:href="#f1_2a" transform="matrix(12,0,0,12,590.1,1001.7)" />
<use xlink:href="#f1_23" transform="matrix(12,0,0,12,600.3,1001.7)" />
<use xlink:href="#f1_2f" transform="matrix(12,0,0,12,610.4,1001.7)" />
<use xlink:href="#f1_g" transform="matrix(12,0,0,12,619.6,1001.7)" />
<use xlink:href="#f1_2f" transform="matrix(12,0,0,12,629.8,1001.7)" />
<use xlink:href="#f1_2c" transform="matrix(12,0,0,12,638.8,1001.7)" />
<use xlink:href="#f1_2b" transform="matrix(12,0,0,12,649.1,1001.7)" />
<use xlink:href="#f1_2a" transform="matrix(12,0,0,12,659.2,1001.7)" />
<use xlink:href="#f1_2f" transform="matrix(12,0,0,12,669.4,1001.7)" />
<use xlink:href="#f1_2b" transform="matrix(12,0,0,12,678.6,1001.7)" />
<use xlink:href="#f1_2e" transform="matrix(12,0,0,12,688.8,1001.7)" />
<use xlink:href="#f1_2f" transform="matrix(12,0,0,12,694.9,1001.7)" />
<use xlink:href="#f1_24" transform="matrix(12,0,0,12,704.1,1001.7)" />
<use xlink:href="#f1_25" transform="matrix(12,0,0,12,714.3,1001.7)" />
<use xlink:href="#f1_2c" transform="matrix(12,0,0,12,718.4,1001.7)" />
<use xlink:href="#f1_1x" transform="matrix(12,0,0,12,733.5,1001.7)" />
<use xlink:href="#f1_2a" transform="matrix(12,0,0,12,743.8,1001.7)" />
<use xlink:href="#f1_20" transform="matrix(12,0,0,12,754,1001.7)" />
<use xlink:href="#f1_21" transform="matrix(12,0,0,12,110,1022.8)" />
<use xlink:href="#f1_2i" transform="matrix(12,0,0,12,120.3,1022.8)" />
<use xlink:href="#f1_21" transform="matrix(12,0,0,12,129.3,1022.8)" />
<use xlink:href="#f1_2a" transform="matrix(12,0,0,12,139.5,1022.8)" />
<use xlink:href="#f1_2g" transform="matrix(12,0,0,12,149.8,1022.8)" />
<use xlink:href="#f1_2f" transform="matrix(12,0,0,12,154.9,1022.8)" />
<use xlink:href="#f1_i" transform="matrix(12,0,0,12,164,1022.8)" />
<use xlink:href="#f1_1f" transform="matrix(12,0,0,12,174.3,1022.8)" />
<use xlink:href="#f1_2g" transform="matrix(12,0,0,12,188.6,1022.8)" />
<use xlink:href="#f1_24" transform="matrix(12,0,0,12,193.5,1022.8)" />
<use xlink:href="#f1_21" transform="matrix(12,0,0,12,203.8,1022.8)" />
<use xlink:href="#f1_2e" transform="matrix(12,0,0,12,214,1022.8)" />
<use xlink:href="#f1_1z" transform="matrix(12,0,0,12,225.2,1022.8)" />
<use xlink:href="#f1_28" transform="matrix(12,0,0,12,234.4,1022.8)" />
<use xlink:href="#f1_2h" transform="matrix(12,0,0,12,238.4,1022.8)" />
<use xlink:href="#f1_1y" transform="matrix(12,0,0,12,248.7,1022.8)" />
<use xlink:href="#f1_2f" transform="matrix(12,0,0,12,258.9,1022.8)" />
<use xlink:href="#f1_29" transform="matrix(12,0,0,12,273,1022.8)" />
<use xlink:href="#f1_1x" transform="matrix(12,0,0,12,288.3,1022.8)" />
<use xlink:href="#f1_2l" transform="matrix(12,0,0,12,298.5,1022.8)" />
<use xlink:href="#f1_1y" transform="matrix(12,0,0,12,312.6,1022.8)" />
<use xlink:href="#f1_21" transform="matrix(12,0,0,12,322.9,1022.8)" />
<use xlink:href="#f1_20" transform="matrix(12,0,0,12,338.2,1022.8)" />
<use xlink:href="#f1_21" transform="matrix(12,0,0,12,348.5,1022.8)" />
<use xlink:href="#f1_2c" transform="matrix(12,0,0,12,358.6,1022.8)" />
<use xlink:href="#f1_21" transform="matrix(12,0,0,12,368.8,1022.8)" />
<use xlink:href="#f1_2a" transform="matrix(12,0,0,12,379.1,1022.8)" />
<use xlink:href="#f1_20" transform="matrix(12,0,0,12,389.2,1022.8)" />
<use xlink:href="#f1_21" transform="matrix(12,0,0,12,399.4,1022.8)" />
<use xlink:href="#f1_2a" transform="matrix(12,0,0,12,409.5,1022.8)" />
<use xlink:href="#f1_2g" transform="matrix(12,0,0,12,419.8,1022.8)" />
<use xlink:href="#f1_2b" transform="matrix(12,0,0,12,430,1022.8)" />
<use xlink:href="#f1_2a" transform="matrix(12,0,0,12,440.1,1022.8)" />
<use xlink:href="#f1_26" transform="matrix(12,0,0,12,455.9,1022.8)" />
<use xlink:href="#f1_2h" transform="matrix(12,0,0,12,459.9,1022.8)" />
<use xlink:href="#f1_2f" transform="matrix(12,0,0,12,470,1022.8)" />
<use xlink:href="#f1_2g" transform="matrix(12,0,0,12,479.2,1022.8)" />
<use xlink:href="#f1_29" transform="matrix(12,0,0,12,489.4,1022.8)" />
<use xlink:href="#f1_21" transform="matrix(12,0,0,12,504.8,1022.8)" />
<use xlink:href="#f1_29" transform="matrix(12,0,0,12,514.9,1022.8)" />
<use xlink:href="#f1_1y" transform="matrix(12,0,0,12,530.1,1022.8)" />
<use xlink:href="#f1_21" transform="matrix(12,0,0,12,540.4,1022.8)" />
<use xlink:href="#f1_2e" transform="matrix(12,0,0,12,550.6,1022.8)" />
<use xlink:href="#f1_2f" transform="matrix(12,0,0,12,556.7,1022.8)" />
<use xlink:href="#f1_24" transform="matrix(12,0,0,12,565.9,1022.8)" />
<use xlink:href="#f1_25" transform="matrix(12,0,0,12,576.1,1022.8)" />
<use xlink:href="#f1_2c" transform="matrix(12,0,0,12,580.2,1022.8)" />
<use xlink:href="#f1_22" transform="matrix(12,0,0,12,595.4,1022.8)" />
<use xlink:href="#f1_21" transform="matrix(12,0,0,12,600.5,1022.8)" />
<use xlink:href="#f1_21" transform="matrix(12,0,0,12,610.8,1022.8)" />
<use xlink:href="#f1_2f" transform="matrix(12,0,0,12,621.1,1022.8)" />
<use xlink:href="#f1_2g" transform="matrix(12,0,0,12,635.1,1022.8)" />
<use xlink:href="#f1_2b" transform="matrix(12,0,0,12,640.3,1022.8)" />
<use xlink:href="#f1_22" transform="matrix(12,0,0,12,655.5,1022.8)" />
<use xlink:href="#f1_2h" transform="matrix(12,0,0,12,660.6,1022.8)" />
<use xlink:href="#f1_2a" transform="matrix(12,0,0,12,670.9,1022.8)" />
<use xlink:href="#f1_20" transform="matrix(12,0,0,12,681.1,1022.8)" />
<use xlink:href="#f1_1x" transform="matrix(12,0,0,12,696.3,1022.8)" />
<use xlink:href="#f1_1z" transform="matrix(12,0,0,12,706.6,1022.8)" />
<use xlink:href="#f1_2g" transform="matrix(12,0,0,12,715.8,1022.8)" />
<use xlink:href="#f1_25" transform="matrix(12,0,0,12,720.9,1022.8)" />
<use xlink:href="#f1_2i" transform="matrix(12,0,0,12,724.9,1022.8)" />
<use xlink:href="#f1_25" transform="matrix(12,0,0,12,733.9,1022.8)" />
<use xlink:href="#f1_2g" transform="matrix(12,0,0,12,738,1022.8)" />
<use xlink:href="#f1_25" transform="matrix(12,0,0,12,743.1,1022.8)" />
<use xlink:href="#f1_21" transform="matrix(12,0,0,12,747.1,1022.8)" />
<use xlink:href="#f1_2f" transform="matrix(12,0,0,12,757.3,1022.8)" />
<use xlink:href="#f1_i" transform="matrix(12,0,0,12,766.5,1022.8)" />
<use xlink:href="#f1_13" transform="matrix(12,0,0,12,110,1065.3)" />
<use xlink:href="#f1_28" transform="matrix(12,0,0,12,123.3,1065.3)" />
<use xlink:href="#f1_2h" transform="matrix(12,0,0,12,127.3,1065.3)" />
<use xlink:href="#f1_1y" transform="matrix(12,0,0,12,137.5,1065.3)" />
<use xlink:href="#f1_21" transform="matrix(12,0,0,12,152.9,1065.3)" />
<use xlink:href="#f1_2k" transform="matrix(12,0,0,12,163.1,1065.3)" />
<use xlink:href="#f1_2c" transform="matrix(12,0,0,12,172.1,1065.3)" />
<use xlink:href="#f1_21" transform="matrix(12,0,0,12,182.4,1065.3)" />
<use xlink:href="#f1_2a" transform="matrix(12,0,0,12,192.6,1065.3)" />
<use xlink:href="#f1_2f" transform="matrix(12,0,0,12,202.9,1065.3)" />
<use xlink:href="#f1_21" transform="matrix(12,0,0,12,212,1065.3)" />
<use xlink:href="#f1_2f" transform="matrix(12,0,0,12,222.3,1065.3)" />
<use xlink:href="#f1_2j" transform="matrix(12,0,0,12,236.4,1065.3)" />
<use xlink:href="#f1_25" transform="matrix(12,0,0,12,249.4,1065.3)" />
<use xlink:href="#f1_28" transform="matrix(12,0,0,12,253.5,1065.3)" />
<use xlink:href="#f1_28" transform="matrix(12,0,0,12,257.5,1065.3)" />
<use xlink:href="#f1_1x" transform="matrix(12,0,0,12,266.7,1065.3)" />
<use xlink:href="#f1_28" transform="matrix(12,0,0,12,276.9,1065.3)" />
<use xlink:href="#f1_2f" transform="matrix(12,0,0,12,281,1065.3)" />
<use xlink:href="#f1_2b" transform="matrix(12,0,0,12,290.3,1065.3)" />
<use xlink:href="#f1_2i" transform="matrix(12,0,0,12,305.6,1065.3)" />
<use xlink:href="#f1_1x" transform="matrix(12,0,0,12,314.6,1065.3)" />
<use xlink:href="#f1_2e" transform="matrix(12,0,0,12,325.1,1065.3)" />
<use xlink:href="#f1_2l" transform="matrix(12,0,0,12,331.2,1065.3)" />
<use xlink:href="#f1_20" transform="matrix(12,0,0,12,345.3,1065.3)" />
<use xlink:href="#f1_21" transform="matrix(12,0,0,12,355.5,1065.3)" />
<use xlink:href="#f1_2c" transform="matrix(12,0,0,12,365.8,1065.3)" />
<use xlink:href="#f1_21" transform="matrix(12,0,0,12,376,1065.3)" />
<use xlink:href="#f1_2a" transform="matrix(12,0,0,12,386.3,1065.3)" />
<use xlink:href="#f1_20" transform="matrix(12,0,0,12,396.5,1065.3)" />
<use xlink:href="#f1_25" transform="matrix(12,0,0,12,406.8,1065.3)" />
<use xlink:href="#f1_2a" transform="matrix(12,0,0,12,410.9,1065.3)" />
<use xlink:href="#f1_23" transform="matrix(12,0,0,12,421,1065.3)" />
<use xlink:href="#f1_2b" transform="matrix(12,0,0,12,436.3,1065.3)" />
<use xlink:href="#f1_2a" transform="matrix(12,0,0,12,446.4,1065.3)" />
<use xlink:href="#f1_2g" transform="matrix(12,0,0,12,461.7,1065.3)" />
<use xlink:href="#f1_24" transform="matrix(12,0,0,12,466.9,1065.3)" />
<use xlink:href="#f1_21" transform="matrix(12,0,0,12,477,1065.3)" />
<use xlink:href="#f1_2f" transform="matrix(12,0,0,12,492.3,1065.3)" />
<use xlink:href="#f1_25" transform="matrix(12,0,0,12,501.5,1065.3)" />
<use xlink:href="#f1_2m" transform="matrix(12,0,0,12,505.5,1065.3)" />
<use xlink:href="#f1_21" transform="matrix(12,0,0,12,514.5,1065.3)" />
<use xlink:href="#f1_g" transform="matrix(12,0,0,12,524.8,1065.3)" />
<use xlink:href="#f1_2f" transform="matrix(12,0,0,12,535,1065.3)" />
<use xlink:href="#f1_1z" transform="matrix(12,0,0,12,544.2,1065.3)" />
<use xlink:href="#f1_1x" transform="matrix(12,0,0,12,553.4,1065.3)" />
<use xlink:href="#f1_28" transform="matrix(12,0,0,12,563.6,1065.3)" />
<use xlink:href="#f1_21" transform="matrix(12,0,0,12,567.7,1065.3)" />
<use xlink:href="#f1_1x" transform="matrix(12,0,0,12,583,1065.3)" />
<use xlink:href="#f1_2a" transform="matrix(12,0,0,12,593.1,1065.3)" />
<use xlink:href="#f1_20" transform="matrix(12,0,0,12,603.4,1065.3)" />
<use xlink:href="#f1_2f" transform="matrix(12,0,0,12,618.7,1065.3)" />
<use xlink:href="#f1_1z" transform="matrix(12,0,0,12,627.9,1065.3)" />
<use xlink:href="#f1_2b" transform="matrix(12,0,0,12,636.9,1065.3)" />
<use xlink:href="#f1_2c" transform="matrix(12,0,0,12,647.1,1065.3)" />
<use xlink:href="#f1_21" transform="matrix(12,0,0,12,657.2,1065.3)" />
<use xlink:href="#f1_2b" transform="matrix(12,0,0,12,672.6,1065.3)" />
<use xlink:href="#f1_22" transform="matrix(12,0,0,12,682.7,1065.3)" />
<use xlink:href="#f1_1z" transform="matrix(12,0,0,12,693.1,1065.3)" />
<use xlink:href="#f1_28" transform="matrix(12,0,0,12,702.2,1065.3)" />
<use xlink:href="#f1_2h" transform="matrix(12,0,0,12,706.1,1065.3)" />
<use xlink:href="#f1_1y" transform="matrix(12,0,0,12,716.4,1065.3)" />
<use xlink:href="#f1_1x" transform="matrix(12,0,0,12,110,1086.4)" />
<use xlink:href="#f1_1z" transform="matrix(12,0,0,12,120.3,1086.4)" />
<use xlink:href="#f1_2g" transform="matrix(12,0,0,12,129.5,1086.4)" />
<use xlink:href="#f1_25" transform="matrix(12,0,0,12,134.5,1086.4)" />
<use xlink:href="#f1_2i" transform="matrix(12,0,0,12,138.6,1086.4)" />
<use xlink:href="#f1_25" transform="matrix(12,0,0,12,147.6,1086.4)" />
<use xlink:href="#f1_2g" transform="matrix(12,0,0,12,151.7,1086.4)" />
<use xlink:href="#f1_25" transform="matrix(12,0,0,12,156.8,1086.4)" />
<use xlink:href="#f1_21" transform="matrix(12,0,0,12,160.8,1086.4)" />
<use xlink:href="#f1_2f" transform="matrix(12,0,0,12,171,1086.4)" />
<use xlink:href="#f1_i" transform="matrix(12,0,0,12,180.2,1086.4)" />
<use xlink:href="#f1_1i" transform="matrix(12,0,0,12,110,1129.7)" />
<use xlink:href="#f1_21" transform="matrix(12,0,0,12,123.3,1129.7)" />
<use xlink:href="#f1_23" transform="matrix(12,0,0,12,133.5,1129.7)" />
<use xlink:href="#f1_1x" transform="matrix(12,0,0,12,143.6,1129.7)" />
<use xlink:href="#f1_2e" transform="matrix(12,0,0,12,153.8,1129.7)" />
<use xlink:href="#f1_20" transform="matrix(12,0,0,12,159.9,1129.7)" />
<use xlink:href="#f1_28" transform="matrix(12,0,0,12,170.1,1129.7)" />
<use xlink:href="#f1_21" transform="matrix(12,0,0,12,174.2,1129.7)" />
<use xlink:href="#f1_2f" transform="matrix(12,0,0,12,184.4,1129.7)" />
<use xlink:href="#f1_2f" transform="matrix(12,0,0,12,193.6,1129.7)" />
<use xlink:href="#f1_2b" transform="matrix(12,0,0,12,207.9,1129.7)" />
<use xlink:href="#f1_22" transform="matrix(12,0,0,12,218,1129.7)" />
<use xlink:href="#f1_2g" transform="matrix(12,0,0,12,228.4,1129.7)" />
<use xlink:href="#f1_24" transform="matrix(12,0,0,12,233.4,1129.7)" />
<use xlink:href="#f1_21" transform="matrix(12,0,0,12,243.6,1129.7)" />
<use xlink:href="#f1_2f" transform="matrix(12,0,0,12,259,1129.7)" />
<use xlink:href="#f1_25" transform="matrix(12,0,0,12,268.1,1129.7)" />
<use xlink:href="#f1_2m" transform="matrix(12,0,0,12,272.2,1129.7)" />
<use xlink:href="#f1_21" transform="matrix(12,0,0,12,281.2,1129.7)" />
<use xlink:href="#f1_2b" transform="matrix(12,0,0,12,296.4,1129.7)" />
<use xlink:href="#f1_22" transform="matrix(12,0,0,12,306.5,1129.7)" />
<use xlink:href="#f1_1x" transform="matrix(12,0,0,12,316.9,1129.7)" />
<use xlink:href="#f1_1z" transform="matrix(12,0,0,12,332.2,1129.7)" />
<use xlink:href="#f1_28" transform="matrix(12,0,0,12,341.4,1129.7)" />
<use xlink:href="#f1_2h" transform="matrix(12,0,0,12,345.3,1129.7)" />
<use xlink:href="#f1_1y" transform="matrix(12,0,0,12,355.5,1129.7)" />
<use xlink:href="#f1_2b" transform="matrix(12,0,0,12,370.7,1129.7)" />
<use xlink:href="#f1_2e" transform="matrix(12,0,0,12,381,1129.7)" />
<use xlink:href="#f1_2g" transform="matrix(12,0,0,12,392.2,1129.7)" />
<use xlink:href="#f1_24" transform="matrix(12,0,0,12,397.3,1129.7)" />
<use xlink:href="#f1_21" transform="matrix(12,0,0,12,407.6,1129.7)" />
<use xlink:href="#f1_1z" transform="matrix(12,0,0,12,422.7,1129.7)" />
<use xlink:href="#f1_2b" transform="matrix(12,0,0,12,431.9,1129.7)" />
<use xlink:href="#f1_29" transform="matrix(12,0,0,12,442,1129.7)" />
<use xlink:href="#f1_2c" transform="matrix(12,0,0,12,457.4,1129.7)" />
<use xlink:href="#f1_28" transform="matrix(12,0,0,12,467.6,1129.7)" />
<use xlink:href="#f1_21" transform="matrix(12,0,0,12,471.7,1129.7)" />
<use xlink:href="#f1_2k" transform="matrix(12,0,0,12,481.8,1129.7)" />
<use xlink:href="#f1_25" transform="matrix(12,0,0,12,490.7,1129.7)" />
<use xlink:href="#f1_2g" transform="matrix(12,0,0,12,494.8,1129.7)" />
<use xlink:href="#f1_2l" transform="matrix(12,0,0,12,500.1,1129.7)" />
<use xlink:href="#f1_2b" transform="matrix(12,0,0,12,514.2,1129.7)" />
<use xlink:href="#f1_22" transform="matrix(12,0,0,12,524.4,1129.7)" />
<use xlink:href="#f1_25" transform="matrix(12,0,0,12,534.8,1129.7)" />
<use xlink:href="#f1_2g" transform="matrix(12,0,0,12,538.9,1129.7)" />
<use xlink:href="#f1_2f" transform="matrix(12,0,0,12,544,1129.7)" />
<use xlink:href="#f1_1x" transform="matrix(12,0,0,12,558.2,1129.7)" />
<use xlink:href="#f1_1z" transform="matrix(12,0,0,12,568.4,1129.7)" />
<use xlink:href="#f1_2g" transform="matrix(12,0,0,12,577.6,1129.7)" />
<use xlink:href="#f1_25" transform="matrix(12,0,0,12,582.7,1129.7)" />
<use xlink:href="#f1_2i" transform="matrix(12,0,0,12,586.7,1129.7)" />
<use xlink:href="#f1_25" transform="matrix(12,0,0,12,595.7,1129.7)" />
<use xlink:href="#f1_2g" transform="matrix(12,0,0,12,599.8,1129.7)" />
<use xlink:href="#f1_25" transform="matrix(12,0,0,12,604.9,1129.7)" />
<use xlink:href="#f1_21" transform="matrix(12,0,0,12,609,1129.7)" />
<use xlink:href="#f1_2f" transform="matrix(12,0,0,12,619.2,1129.7)" />
<use xlink:href="#f1_1x" transform="matrix(12,0,0,12,633.5,1129.7)" />
<use xlink:href="#f1_2f" transform="matrix(12,0,0,12,648.8,1129.7)" />
<use xlink:href="#f1_2g" transform="matrix(12,0,0,12,658,1129.7)" />
<use xlink:href="#f1_1x" transform="matrix(12,0,0,12,663,1129.7)" />
<use xlink:href="#f1_2a" transform="matrix(12,0,0,12,673.2,1129.7)" />
<use xlink:href="#f1_20" transform="matrix(12,0,0,12,683.5,1129.7)" />
<use xlink:href="#f1_1x" transform="matrix(12,0,0,12,693.6,1129.7)" />
<use xlink:href="#f1_2e" transform="matrix(12,0,0,12,703.8,1129.7)" />
<use xlink:href="#f1_20" transform="matrix(12,0,0,12,709.9,1129.7)" />
<use xlink:href="#f1_2b" transform="matrix(12,0,0,12,110,1150.6)" />
<use xlink:href="#f1_2c" transform="matrix(12,0,0,12,120.3,1150.6)" />
<use xlink:href="#f1_21" transform="matrix(12,0,0,12,130.5,1150.6)" />
<use xlink:href="#f1_2e" transform="matrix(12,0,0,12,140.8,1150.6)" />
<use xlink:href="#f1_1x" transform="matrix(12,0,0,12,146.9,1150.6)" />
<use xlink:href="#f1_2g" transform="matrix(12,0,0,12,157.1,1150.6)" />
<use xlink:href="#f1_25" transform="matrix(12,0,0,12,162.2,1150.6)" />
<use xlink:href="#f1_2a" transform="matrix(12,0,0,12,166.1,1150.6)" />
<use xlink:href="#f1_23" transform="matrix(12,0,0,12,176.3,1150.6)" />
<use xlink:href="#f1_1y" transform="matrix(12,0,0,12,191.5,1150.6)" />
<use xlink:href="#f1_2h" transform="matrix(12,0,0,12,201.8,1150.6)" />
<use xlink:href="#f1_20" transform="matrix(12,0,0,12,212,1150.6)" />
<use xlink:href="#f1_23" transform="matrix(12,0,0,12,222.3,1150.6)" />
<use xlink:href="#f1_21" transform="matrix(12,0,0,12,232.4,1150.6)" />
<use xlink:href="#f1_2g" transform="matrix(12,0,0,12,242.6,1150.6)" />
<use xlink:href="#f1_2j" transform="matrix(12,0,0,12,252.7,1150.6)" />
<use xlink:href="#f1_25" transform="matrix(12,0,0,12,265.7,1150.6)" />
<use xlink:href="#f1_28" transform="matrix(12,0,0,12,269.8,1150.6)" />
<use xlink:href="#f1_28" transform="matrix(12,0,0,12,273.8,1150.6)" />
<use xlink:href="#f1_22" transform="matrix(12,0,0,12,283,1150.6)" />
<use xlink:href="#f1_2b" transform="matrix(12,0,0,12,288.3,1150.6)" />
<use xlink:href="#f1_28" transform="matrix(12,0,0,12,298.5,1150.6)" />
<use xlink:href="#f1_28" transform="matrix(12,0,0,12,302.6,1150.6)" />
<use xlink:href="#f1_2b" transform="matrix(12,0,0,12,306.6,1150.6)" />
<use xlink:href="#f1_2j" transform="matrix(12,0,0,12,316.8,1150.6)" />
<use xlink:href="#f1_2g" transform="matrix(12,0,0,12,334.9,1150.6)" />
<use xlink:href="#f1_24" transform="matrix(12,0,0,12,340.1,1150.6)" />
<use xlink:href="#f1_21" transform="matrix(12,0,0,12,350.3,1150.6)" />
<use xlink:href="#f1_2f" transform="matrix(12,0,0,12,365.7,1150.6)" />
<use xlink:href="#f1_1x" transform="matrix(12,0,0,12,374.8,1150.6)" />
<use xlink:href="#f1_29" transform="matrix(12,0,0,12,385,1150.6)" />
<use xlink:href="#f1_21" transform="matrix(12,0,0,12,400.3,1150.6)" />
<use xlink:href="#f1_1x" transform="matrix(12,0,0,12,415.5,1150.6)" />
<use xlink:href="#f1_2c" transform="matrix(12,0,0,12,425.8,1150.6)" />
<use xlink:href="#f1_2c" transform="matrix(12,0,0,12,436,1150.6)" />
<use xlink:href="#f1_2e" transform="matrix(12,0,0,12,446.3,1150.6)" />
<use xlink:href="#f1_2b" transform="matrix(12,0,0,12,452.4,1150.6)" />
<use xlink:href="#f1_1x" transform="matrix(12,0,0,12,462.4,1150.6)" />
<use xlink:href="#f1_1z" transform="matrix(12,0,0,12,472.5,1150.6)" />
<use xlink:href="#f1_24" transform="matrix(12,0,0,12,481.7,1150.6)" />
<use xlink:href="#f1_i" transform="matrix(12,0,0,12,491.9,1150.6)" />
<use xlink:href="#f1_1k" transform="matrix(12,0,0,12,502,1150.6)" />
<use xlink:href="#f1_24" transform="matrix(12,0,0,12,513.4,1150.6)" />
<use xlink:href="#f1_21" transform="matrix(12,0,0,12,523.6,1150.6)" />
<use xlink:href="#f1_21" transform="matrix(12,0,0,12,538.8,1150.6)" />
<use xlink:href="#f1_2k" transform="matrix(12,0,0,12,549.1,1150.6)" />
<use xlink:href="#f1_1x" transform="matrix(12,0,0,12,558,1150.6)" />
<use xlink:href="#f1_29" transform="matrix(12,0,0,12,568.3,1150.6)" />
<use xlink:href="#f1_2c" transform="matrix(12,0,0,12,583.5,1150.6)" />
<use xlink:href="#f1_28" transform="matrix(12,0,0,12,593.8,1150.6)" />
<use xlink:href="#f1_21" transform="matrix(12,0,0,12,597.8,1150.6)" />
<use xlink:href="#f1_2g" transform="matrix(12,0,0,12,613.2,1150.6)" />
<use xlink:href="#f1_24" transform="matrix(12,0,0,12,618.3,1150.6)" />
<use xlink:href="#f1_1x" transform="matrix(12,0,0,12,628.4,1150.6)" />
<use xlink:href="#f1_2g" transform="matrix(12,0,0,12,638.6,1150.6)" />
<use xlink:href="#f1_22" transform="matrix(12,0,0,12,648.7,1150.6)" />
<use xlink:href="#f1_2b" transform="matrix(12,0,0,12,653.7,1150.6)" />
<use xlink:href="#f1_28" transform="matrix(12,0,0,12,663.9,1150.6)" />
<use xlink:href="#f1_28" transform="matrix(12,0,0,12,668,1150.6)" />
<use xlink:href="#f1_2b" transform="matrix(12,0,0,12,672,1150.6)" />
<use xlink:href="#f1_2j" transform="matrix(12,0,0,12,682.2,1150.6)" />
<use xlink:href="#f1_2f" transform="matrix(12,0,0,12,695.3,1150.6)" />
<use xlink:href="#f1_2f" transform="matrix(12,0,0,12,709.5,1150.6)" />
<use xlink:href="#f1_24" transform="matrix(12,0,0,12,718.7,1150.6)" />
<use xlink:href="#f1_2b" transform="matrix(12,0,0,12,729,1150.6)" />
<use xlink:href="#f1_2j" transform="matrix(12,0,0,12,739.2,1150.6)" />
<use xlink:href="#f1_2f" transform="matrix(12,0,0,12,752.2,1150.6)" />
<use xlink:href="#f1_2g" transform="matrix(12,0,0,12,766.5,1150.6)" />
<use xlink:href="#f1_24" transform="matrix(12,0,0,12,771.7,1150.6)" />
<use xlink:href="#f1_21" transform="matrix(12,0,0,12,781.9,1150.6)" />
<use xlink:href="#f1_1x" transform="matrix(12,0,0,12,110,1171.7)" />
<use xlink:href="#f1_2a" transform="matrix(12,0,0,12,120.3,1171.7)" />
<use xlink:href="#f1_2a" transform="matrix(12,0,0,12,130.5,1171.7)" />
<use xlink:href="#f1_2h" transform="matrix(12,0,0,12,140.6,1171.7)" />
<use xlink:href="#f1_1x" transform="matrix(12,0,0,12,150.9,1171.7)" />
<use xlink:href="#f1_28" transform="matrix(12,0,0,12,161.1,1171.7)" />
<use xlink:href="#f1_1y" transform="matrix(12,0,0,12,170.3,1171.7)" />
<use xlink:href="#f1_2h" transform="matrix(12,0,0,12,180.4,1171.7)" />
<use xlink:href="#f1_20" transform="matrix(12,0,0,12,190.6,1171.7)" />
<use xlink:href="#f1_23" transform="matrix(12,0,0,12,200.9,1171.7)" />
<use xlink:href="#f1_21" transform="matrix(12,0,0,12,210.9,1171.7)" />
<use xlink:href="#f1_2g" transform="matrix(12,0,0,12,221.2,1171.7)" />
<use xlink:href="#f1_22" transform="matrix(12,0,0,12,231.3,1171.7)" />
<use xlink:href="#f1_2b" transform="matrix(12,0,0,12,236.4,1171.7)" />
<use xlink:href="#f1_2e" transform="matrix(12,0,0,12,246.7,1171.7)" />
<use xlink:href="#f1_1x" transform="matrix(12,0,0,12,257.9,1171.7)" />
<use xlink:href="#f1_2f" transform="matrix(12,0,0,12,273.2,1171.7)" />
<use xlink:href="#f1_29" transform="matrix(12,0,0,12,282.2,1171.7)" />
<use xlink:href="#f1_1x" transform="matrix(12,0,0,12,297.4,1171.7)" />
<use xlink:href="#f1_28" transform="matrix(12,0,0,12,307.7,1171.7)" />
<use xlink:href="#f1_28" transform="matrix(12,0,0,12,311.7,1171.7)" />
<use xlink:href="#f1_2f" transform="matrix(12,0,0,12,320.8,1171.7)" />
<use xlink:href="#f1_2c" transform="matrix(12,0,0,12,330,1171.7)" />
<use xlink:href="#f1_2b" transform="matrix(12,0,0,12,340.3,1171.7)" />
<use xlink:href="#f1_2e" transform="matrix(12,0,0,12,350.5,1171.7)" />
<use xlink:href="#f1_2g" transform="matrix(12,0,0,12,356.8,1171.7)" />
<use xlink:href="#f1_2f" transform="matrix(12,0,0,12,361.9,1171.7)" />
<use xlink:href="#f1_1z" transform="matrix(12,0,0,12,376.3,1171.7)" />
<use xlink:href="#f1_28" transform="matrix(12,0,0,12,385.4,1171.7)" />
<use xlink:href="#f1_2h" transform="matrix(12,0,0,12,389.5,1171.7)" />
<use xlink:href="#f1_1y" transform="matrix(12,0,0,12,399.5,1171.7)" />
<use xlink:href="#f1_i" transform="matrix(12,0,0,12,409.8,1171.7)" />
</g>
<defs>
	<path d="M342.9,-13.6c0,0,-48.5,0,-90.6,7.8c0,0,-42.2,7.7,-75,18.5c0,0,-32.9,10.8,-54.5,22.4c0,0,-21.7,11.5,-27.3,16.7c0,0,-5.6,5.2,-8.6,10.4c0,0,-2.9,5.3,-5.2,12.7c0,0,-2.2,7.4,-3.3,18.2c0,0,-1.2,10.8,-1.2,26.4c0,0,0,26.8,5.3,37.3c0,0,5.2,10.4,14.9,10.4c0,0,6.7,0,26.5,-11.9c0,0,19.8,-12,50.7,-25.7c0,0,31,-13.8,72.4,-25.8c0,0,41.5,-11.9,92.2,-11.9c0,0,49.3,0,86.6,12.7c0,0,37.3,12.7,62.7,35.8c0,0,25.4,23.1,38.1,54.8c0,0,12.7,31.7,12.7,69c0,0,0,41,-16.1,73.8c0,0,-16.1,32.8,-47,56.7c0,0,-31,23.9,-76.2,36.5c0,0,-45.1,12.7,-102.6,12.7l-91.8,0c0,0,-6,0,-11.6,2.6c0,0,-5.5,2.6,-9.6,8.6c0,0,-4.2,6,-6.8,15.7c0,0,-2.6,9.7,-2.6,25.5c0,0,0,14.1,2.3,23.5c0,0,2.2,9.3,6.3,15c0,0,4.1,5.6,9.3,8.2c0,0,5.2,2.6,11.9,2.6l84.3,0c0,0,49.3,0,88.4,12.7c0,0,39.2,12.7,66.4,36.6c0,0,27.3,23.9,41.8,57.1c0,0,14.6,33.2,14.6,74.3c0,0,0,29.9,-9.8,57.1c0,0,-9.7,27.3,-29.1,47.4c0,0,-19.4,20.2,-49.7,31.8c0,0,-30.2,11.5,-69.8,11.5c0,0,-43.3,0,-79.5,-13c0,0,-36.3,-13.1,-64.6,-28c0,0,-28.4,-15,-47.1,-28c0,0,-18.7,-13.1,-26.2,-13.1c0,0,-5.2,0,-9.3,1.8c0,0,-4.1,1.9,-6.7,7.5c0,0,-2.6,5.6,-3.7,15.6c0,0,-1.2,10.1,-1.2,26.5c0,0,0,11.2,0.8,19.7c0,0,0.7,8.6,3,14.9c0,0,2.2,6.4,5.2,11.6c0,0,3,5.2,10.1,12.3c0,0,7.1,7.1,28.7,20.5c0,0,21.7,13.4,53.4,26.4c0,0,31.7,13,73.2,22c0,0,41.4,8.9,89.2,8.9c0,0,67.2,0,118,-17.1c0,0,50.8,-17.2,84.7,-48.5c0,0,34,-31.3,50.8,-75c0,0,16.8,-43.6,16.8,-96.6c0,0,0,-45.5,-11.9,-84.7c0,0,-12,-39.2,-35.1,-69.4c0,0,-23.1,-30.2,-56.7,-51.5c0,0,-33.5,-21.2,-77.6,-29.4l0,-1.5c0,0,50.1,-5.2,91.5,-25c0,0,41.4,-19.8,71.3,-49.6c0,0,29.9,-29.8,46.7,-69.7c0,0,16.8,-39.9,16.8,-85.4c0,0,0,-66.3,-23.1,-119.6c0,0,-23.2,-53.3,-66.5,-91.4c0,0,-43.3,-38,-106.7,-58.5c0,0,-63.4,-20.4,-143.3,-20.4Z" 
	id="f0_s0"
	transform="scale(0.001,-0.001)" />

	<path d="M141,0l0,1051.1l142.5,0L283.5,0Z" 
	id="f1_19"
	transform="scale(0.001,-0.001)" />

	<path d="M381.2,-14.6c0,0,-150.7,0,-232.4,49.6c0,0,-81.7,49.6,-106.3,154.7l118.6,23.2c0,0,17.2,-65.2,70.9,-95.5c0,0,53.7,-30.4,149.2,-30.4c0,0,102.2,0,149.6,31.4c0,0,47.3,31.4,47.3,94.3c0,0,0,47.7,-32.8,77.5c0,0,-32.8,29.8,-105.9,49.2l-96.2,25.3c0,0,-115.7,29.8,-164.5,58.5c0,0,-48.9,28.7,-76.5,69.7c0,0,-27.6,41,-27.6,100.6c0,0,0,110.3,78.7,168.1c0,0,78.7,57.8,229.4,57.8c0,0,133.5,0,212.2,-47c0,0,78.7,-47,99.6,-150.7L573.7,606.8c0,0,-11.2,53.6,-60.1,82.2c0,0,-48.8,28.7,-130.9,28.7c0,0,-91,0,-134.3,-27.5c0,0,-43.2,-27.5,-43.2,-83.2c0,0,0,-34.3,17.8,-56.7c0,0,17.9,-22.4,53,-38c0,0,35.1,-15.6,147.7,-43.2c0,0,106.7,-26.9,153.7,-49.6c0,0,47,-22.7,74.2,-50.3c0,0,27.3,-27.6,42.2,-63.7c0,0,14.9,-36.2,14.9,-82.4c0,0,0,-114,-86.2,-175.9c0,0,-86.1,-61.8,-241.3,-61.8Z" 
	id="f1_2f"
	transform="scale(0.001,-0.001)" />

	<path d="M277.5,-11.6c0,0,-161.1,0,-161.1,182.7l0,538.8l-93.3,0l0,97.7l98.5,0l39.5,180.9l89.5,0l0,-180.9l149.3,0l0,-97.7l-149.3,0l0,-509.8c0,0,0,-58.2,19.1,-81.7c0,0,19,-23.5,66,-23.5c0,0,26.8,0,77.6,10.4l0,-99.1c0,0,-66.4,-17.8,-135.8,-17.8Z" 
	id="f1_2g"
	transform="scale(0.001,-0.001)" />

	<path d="M615.4,0l0,512c0,0,0,85,-15.6,126.4c0,0,-15.7,41.5,-51.5,60.9c0,0,-35.8,19.4,-99.2,19.4c0,0,-94.8,0,-151.8,-65.7c0,0,-57.1,-65.6,-57.1,-176.8l0,-475.9l-134.3,0l0,1106.5l134.3,0l0,-287.7c0,0,0,-45.4,-2.6,-93.9c0,0,-2.6,-48.4,-3.4,-55.9l2.3,0c0,0,43.3,79.1,104,116.1c0,0,60.8,36.9,154.1,36.9c0,0,131.3,0,193.6,-65.3c0,0,62.3,-65.3,62.3,-219l0,-538Z" 
	id="f1_24"
	transform="scale(0.001,-0.001)" />

	<path d="M643,478.1c0,0,-11.2,128,-64.9,186.7c0,0,-53.7,58.8,-154.4,58.8c0,0,-97.7,0,-154.8,-65.5c0,0,-57,-65.5,-61.5,-180ZM431.2,-14.6c0,0,-179.1,0,-272.7,106.6c0,0,-93.6,106.7,-93.6,317c0,0,0,200,93.6,306.6c0,0,93.6,106.7,267.5,106.7c0,0,355.8,0,355.8,-428.9l0,-17.9l-575.9,0c0,0,0,-138.3,57.4,-213.4c0,0,57.5,-75.1,167.9,-75.1c0,0,87.3,0,139.9,34.9c0,0,52.5,34.9,71.2,88.3L760.2,176.6c0,0,-72.4,-191.2,-329,-191.2Z" 
	id="f1_21"
	transform="scale(0.001,-0.001)" />

	<path d="M452.8,84.1c0,0,101.5,0,146.6,75c0,0,45.1,75,45.1,243.8c0,0,0,169.5,-44.7,242.6c0,0,-44.8,73.2,-145.5,73.2c0,0,-113.4,0,-165.2,-77.7c0,0,-51.9,-77.6,-51.9,-246.3c0,0,0,-159.1,50.7,-234.8c0,0,50.8,-75.8,164.9,-75.8Zm35.8,-98.7c0,0,-91.7,0,-152.5,33.1c0,0,-60.8,33.2,-98.9,107.1l-1.5,0c0,0,0,-23.2,-2.9,-70.7c0,0,-3,-47.4,-4.5,-54.9L98.5,0c0,0,4.4,40.3,4.4,166.3l0,940.5l134.3,0l0,-315.2c0,0,0,-48.4,-3,-114l3,0c0,0,37.3,77.6,98.9,111.1c0,0,61.5,33.6,152.5,33.6c0,0,152.9,0,224.9,-102.9c0,0,72,-103,72,-311.9c0,0,0,-422.1,-296.9,-422.1Z" 
	id="f1_1y"
	transform="scale(0.001,-0.001)" />

	<path d="M355.1,-14.6c0,0,-132.8,0,-194.3,66c0,0,-61.6,66,-61.6,218.2l0,538l135,0l0,-511.9c0,0,0,-79.9,15.7,-123.9c0,0,15.7,-44,50,-63.4c0,0,34.3,-19.4,100.7,-19.4c0,0,97,0,152.9,66.4c0,0,56,66.4,56,184.3l0,467.9l134.3,0l0,-635.2c0,0,0,-141,4.4,-172.4L621.4,0c0,0,-0.7,3.7,-1.5,20.2c0,0,-0.7,16.4,-1.9,37.7c0,0,-1.1,21.3,-2.6,80.3l-2.2,0c0,0,-46.3,-83.5,-107.1,-118.2c0,0,-60.8,-34.6,-151,-34.6Z" 
	id="f1_2h"
	transform="scale(0.001,-0.001)" />

	<path d="M395.4,89c0,0,114.1,0,165.6,79.1c0,0,51.5,79.2,51.5,245.6c0,0,0,160.6,-51.5,235.2c0,0,-51.5,74.7,-164.1,74.7c0,0,-101.5,0,-146.6,-75.1c0,0,-45.1,-75,-45.1,-243.7c0,0,0,-169.5,44.7,-242.6c0,0,44.8,-73.2,145.5,-73.2ZM361.1,-14.6c0,0,-153,0,-225,102.9c0,0,-71.9,102.9,-71.9,311.8c0,0,0,422.2,296.9,422.2c0,0,91.7,0,152.9,-33.6c0,0,61.1,-33.5,98.5,-106.6l1.5,0l-1.5,90.1l0,334.6l134.2,0l0,-940.5c0,0,0,-126,4.5,-166.3L622.9,0c0,0,-2.2,11.9,-4.9,55.3c0,0,-2.6,43.3,-2.6,74.8l-2.9,0c0,0,-37.4,-77.6,-98.9,-111.2c0,0,-61.5,-33.5,-152.5,-33.5Z" 
	id="f1_20"
	transform="scale(0.001,-0.001)" />

	<path d="M397.6,92.9c0,0,63.4,0,112.6,37.3c0,0,49.3,37.3,76.1,107.1c0,0,26.9,69.7,26.9,166c0,0,0,98.5,-26.9,169.7c0,0,-26.8,71.3,-75.7,109c0,0,-48.8,37.7,-110.7,37.7c0,0,-103,0,-150,-74.7c0,0,-47,-74.6,-47,-241.7c0,0,0,-165.7,44,-238c0,0,44,-72.4,150.7,-72.4Zm11.2,-409.6c0,0,-132,0,-210.4,51.9c0,0,-78.3,51.8,-100.7,147.3l135,19.4c0,0,13.5,-56.2,59.4,-86.5c0,0,45.8,-30.4,120.4,-30.4c0,0,200.7,0,200.7,235l0,129.9l-1.5,0c0,0,-38,-77.5,-104.4,-116.6c0,0,-66.4,-39.1,-155.2,-39.1c0,0,-148.4,0,-218.2,98.3c0,0,-69.7,98.4,-69.7,309.4c0,0,0,214,74.9,315.7c0,0,75,101.8,227.9,101.8c0,0,85.8,0,148.9,-39.2c0,0,63,-39.1,97.3,-111.4l1.5,0c0,0,0,22.5,3,78c0,0,3,55.6,5.9,60.8l127.6,0c0,0,-4.5,-40.3,-4.5,-167.1l0,-617.1c0,0,0,-340.1,-337.9,-340.1Z" 
	id="f1_23"
	transform="scale(0.001,-0.001)" />

	<path d="M452.8,84.1c0,0,100,0,145.9,73.6c0,0,45.8,73.6,45.8,247c0,0,0,169,-45.5,241.5c0,0,-45.5,72.5,-144.7,72.5c0,0,-79.8,0,-124.9,-33.7c0,0,-45.2,-33.6,-68.7,-105c0,0,-23.5,-71.4,-23.5,-185.7c0,0,0,-159.2,50.7,-234.7c0,0,50.8,-75.5,164.9,-75.5ZM102.9,-316.7l0,959.4c0,0,0,124.6,-4.4,164.9l129.8,0c0,0,0.7,-2.9,2.2,-21.2c0,0,1.5,-18.2,3.4,-56.1c0,0,1.8,-38,1.8,-52.1l3,0c0,0,35.8,74.7,94.8,109.4c0,0,58.9,34.7,155.1,34.7c0,0,149.2,0,223.1,-100c0,0,73.8,-100.1,73.8,-314.4c0,0,0,-422.5,-296.9,-422.5c0,0,-186.5,0,-250.6,140.3l-3.8,0c0,0,3,-6,3,-126.7l0,-315.7Z" 
	id="f1_2c"
	transform="scale(0.001,-0.001)" />

	<path d="M105.9,0l0,619.5c0,0,0,85.1,-4.4,188.1l126.8,0c0,0,5.9,-137.4,5.9,-165.1l3,0c0,0,32.1,103.7,73.9,141.8c0,0,41.8,38,117.8,38c0,0,26.9,0,54.5,-7.5l0,-123c0,0,-26.9,7.4,-71.6,7.4c0,0,-83.6,0,-127.6,-72c0,0,-44,-72,-44,-206.3L240.2,0Z" 
	id="f1_2e"
	transform="scale(0.001,-0.001)" />

	<path d="M420,84.1c0,0,120.8,0,172.7,77.7c0,0,51.8,77.7,51.8,242.8c0,0,0,167.3,-49.6,243.1c0,0,-49.6,75.9,-166.7,75.9c0,0,-117.9,0,-170.4,-77.3c0,0,-52.6,-77.4,-52.6,-241.7c0,0,0,-159.9,51.8,-240.2c0,0,51.8,-80.3,163,-80.3Zm1.5,-98.7c0,0,-176.8,0,-267.1,107.7c0,0,-90.2,107.8,-90.2,311.5c0,0,0,417.7,361.8,417.7c0,0,185,0,272.2,-101.8c0,0,87.3,-101.8,87.3,-315.9c0,0,0,-211.9,-93.2,-315.6C692.3,89,599,-14.6,421.5,-14.6Z" 
	id="f1_2b"
	transform="scale(0.001,-0.001)" />

	<path d="M412.5,-14.6c0,0,-169.3,0,-258.5,107c0,0,-89.1,107,-89.1,312.2c0,0,0,203.6,89.5,310.7c0,0,89.5,107,256.6,107c0,0,123.9,0,205.6,-64.1c0,0,81.6,-64.2,102.5,-176.8L581.1,571c0,0,-10.4,66.9,-52.9,106.3c0,0,-42.6,39.4,-120.9,39.4c0,0,-106.7,0,-154.4,-70.8c0,0,-47.7,-70.9,-47.7,-238.7c0,0,0,-161.1,50.7,-238.7c0,0,50.7,-77.6,152.9,-77.6c0,0,71.6,0,119.7,38.9c0,0,48.1,38.8,59.3,119.5l135.8,-8.9c0,0,-15.7,-116.4,-99.2,-185.7c0,0,-83.6,-69.3,-211.9,-69.3Z" 
	id="f1_1z"
	transform="scale(0.001,-0.001)" />

	<path d="M339.4,87c0,0,73.9,0,131.3,33.5c0,0,57.5,33.5,90.7,92c0,0,33.2,58.4,33.2,120.2l0,66.2L447.6,396c0,0,-94.7,-1.5,-143.6,-19.4c0,0,-48.9,-17.8,-75,-55.1c0,0,-26.1,-37.2,-26.1,-97.5c0,0,0,-65.5,35.4,-101.2c0,0,35.5,-35.8,101.1,-35.8ZM308.8,-14.6c0,0,-121.6,0,-182.7,64.1c0,0,-61.2,64.2,-61.2,176.1c0,0,0,125.4,82.4,192.6c0,0,82.5,67.1,266,71.6l181.3,3l0,44.1c0,0,0,98.6,-41.8,141.2c0,0,-41.8,42.5,-131.3,42.5c0,0,-90.3,0,-131.3,-30.7c0,0,-41,-30.8,-49.3,-98.3L100.7,604.2c0,0,34.3,218.1,323.8,218.1c0,0,152.1,0,229,-69.8c0,0,76.8,-69.9,76.8,-202.1l0,-348c0,0,0,-59.8,15.7,-90c0,0,15.7,-30.3,59.7,-30.3c0,0,19.4,0,44,5.3l0,-83.3C849.7,4.1,799,-7.7,746,-7.7c0,0,-74.6,0,-108.5,39.2c0,0,-34,39.3,-38.5,123.2l-4.4,0c0,0,-51.5,-92.5,-119.8,-130.9c0,0,-68.2,-38.4,-166,-38.4Z" 
	id="f1_1x"
	transform="scale(0.001,-0.001)" />

	<path d="M142.5,-316.7c0,0,-55.2,0,-92.5,8.2l0,100.9c0,0,28.3,-4.5,62.6,-4.5c0,0,125.4,0,198.5,184.3l12.7,32L3.7,807.6l143.3,0L317,361.5c0,0,3.8,-10.4,9,-24.9c0,0,5.2,-14.6,33.6,-97.4c0,0,28.3,-82.8,30.5,-92.5l52.3,147L619.2,807.6l141.7,0L450.6,0.3c0,0,-50,-129,-93.3,-192c0,0,-43.2,-63.1,-95.8,-94c0,0,-52.6,-31,-119,-31Z" 
	id="f1_2l"
	transform="scale(0.001,-0.001)" />

	<path d="M102.9,0l0,1106.8l134.3,0L237.2,0Z" 
	id="f1_28"
	transform="scale(0.001,-0.001)" />

	<path d="M102.2,0l0,807.6l134.3,0L236.5,0Zm0,978.8l0,128l134.3,0l0,-128Z" 
	id="f1_25"
	transform="scale(0.001,-0.001)" />

	<path d="M326.7,0l0,149.6l145.5,0L472.2,0Zm6,280.6c0,0,1.5,51.5,16,90.3c0,0,14.6,38.9,37.7,68.7c0,0,23.2,29.9,52.2,53.4c0,0,29.1,23.5,59,44.8c0,0,29.8,21.3,58.5,42.6c0,0,28.7,21.2,51.1,47.4c0,0,22.4,26.1,36.2,59c0,0,13.8,32.8,13.8,76.9c0,0,0,85.1,-57.8,134.5c0,0,-57.8,49.3,-162.3,49.3c0,0,-104.4,0,-165.6,-52.2c0,0,-61.1,-52.3,-71.6,-143.3L62.7,761c0,0,19.4,147.7,116.3,226.7c0,0,97,79.1,256.7,79.1c0,0,166.3,0,261.8,-78.8c0,0,95.5,-78.8,95.5,-218.4c0,0,0,-56,-16.4,-100c0,0,-16.4,-44.1,-47,-81.4c0,0,-30.6,-37.3,-100,-88.1l-59.7,-44c0,0,-53.7,-38.9,-79.8,-81.8c0,0,-26.1,-42.9,-26.8,-93.7Z" 
	id="f1_z"
	transform="scale(0.001,-0.001)" />

	<path d="M316.3,0L6.7,1051.1l148.5,0L343.9,383.5c0,0,33.6,-125.4,61.9,-258.2c0,0,17.9,82.1,41.4,179.1c0,0,23.5,97,207,746.7l136.5,0L973.5,396.9c0,0,41.8,-160.4,65.7,-271.6l6.7,26.1c0,0,20.1,85.8,32.8,139.9c0,0,12.7,54.1,209.6,759.8l148.5,0L1127.2,0L957.1,0l-182,667.7c0,0,-17.9,62.6,-52.2,224.5c0,0,-19.4,-86.5,-32.9,-144.7C690,747.5,676.6,689.3,486.4,0Z" 
	id="f1_1n"
	transform="scale(0.001,-0.001)" />

	<path d="M105.9,0l0,635.2c0,0,0,141.1,-4.4,172.4l126.8,0c0,0,0.7,-3.7,1.5,-20.2c0,0,0.7,-16.4,1.8,-37.7c0,0,1.1,-21.3,2.6,-80.4l2.3,0c0,0,43.3,85.8,99.2,119.4c0,0,55.9,33.6,136.5,33.6c0,0,91.8,0,145.1,-36.6c0,0,53.3,-36.5,74.2,-116.4l2.3,0c0,0,41.7,81.4,101,117.2c0,0,59.4,35.8,143.7,35.8c0,0,122.3,0,177.9,-66.4c0,0,55.5,-66.4,55.5,-217.9l0,-538L1039.2,0l0,512c0,0,0,117.1,-32.1,161.9c0,0,-32.1,44.8,-115.6,44.8c0,0,-88.1,0,-136.9,-65.3c0,0,-48.9,-65.3,-48.9,-185.5L705.7,0L572.9,0l0,512c0,0,0,117.1,-32.1,161.9c0,0,-32,44.8,-115.6,44.8c0,0,-85.8,0,-135.7,-65.7c0,0,-50,-65.7,-50,-185.1L239.5,0Z" 
	id="f1_29"
	transform="scale(0.001,-0.001)" />

	<path d="M298.4,0L5.2,807.6l143.3,0L326,282.5c0,0,9.7,-29.9,51.5,-176.8L403.6,193l29.1,88L616.2,807.6l142.5,0L457.3,0Z" 
	id="f1_2i"
	transform="scale(0.001,-0.001)" />

	<path d="M105.9,0l0,635.2c0,0,0,141.1,-4.4,172.4l126.8,0c0,0,0.7,-3.7,1.5,-20.2c0,0,0.7,-16.4,1.8,-37.7c0,0,1.1,-21.3,2.6,-80.4l2.3,0c0,0,46.2,83.6,107,118.3c0,0,60.8,34.7,151.1,34.7c0,0,132.8,0,194.3,-66c0,0,61.6,-66.1,61.6,-218.3l0,-538L615.4,0l0,512c0,0,0,79.8,-15.6,123.8c0,0,-15.7,44.1,-50,63.5c0,0,-34.3,19.4,-100.7,19.4c0,0,-97,0,-152.9,-66.4c0,0,-56,-66.5,-56,-184.4L240.2,0Z" 
	id="f1_2a"
	transform="scale(0.001,-0.001)" />

	<path d="M395.4,0l0,935.7l-361.1,0l0,115.4l863.9,0l0,-115.4l-361.1,0L537.1,0Z" 
	id="f1_1k"
	transform="scale(0.001,-0.001)" />

	<path d="M61.9,0l0,102.1L513.2,704L87.3,704l0,103.6l584.8,0l0,-102.1L220.1,103.6l467.7,0L687.8,0Z" 
	id="f1_2m"
	transform="scale(0.001,-0.001)" />

	<path d="M135,0l0,709.9l-113.4,0l0,97.7l113.4,0l0,91c0,0,0,110.3,48.5,158.8c0,0,48.5,48.5,148.5,48.5c0,0,55.9,0,94.7,-9l0,-102.6c0,0,-33.6,6,-59.7,6c0,0,-51.5,0,-74.6,-26.1c0,0,-23.1,-26,-23.1,-94.4l0,-72.2l157.4,0l0,-97.7l-157.4,0L269.3,0Z" 
	id="f1_22"
	transform="scale(0.001,-0.001)" />

	<path d="M137.3,-195.4c0,0,70.1,101.5,70.1,195.4L141.7,0l0,163.3l145.5,0L287.2,38c0,0,0,-79,-14.2,-132c0,0,-14.1,-52.9,-44,-101.4Z" 
	id="f1_g"
	transform="scale(0.001,-0.001)" />

	<path d="M223.8,0L-2.1,807.6l132.6,0L267.1,259.3c0,0,5.2,-17.9,32,-147.7l12.7,55.2L480.4,807.6l144,0l141,-554.2L799.7,111.6l23.1,103.7L975.7,807.6l131.3,0L875.8,0.5l-155.9,0l-141,570.7L552,697.2c0,0,-6.7,-33.6,-20.9,-96.6C531.1,600.6,517,537.5,379,0Z" 
	id="f1_2j"
	transform="scale(0.001,-0.001)" />

	<path d="M139.5,0l0,163.3l145.5,0L285,0Z" 
	id="f1_i"
	transform="scale(0.001,-0.001)" />

	<path d="M514.7,-14.6c0,0,-384.2,0,-445.3,267l138,27.6c0,0,23.9,-94.6,101.4,-138.9c0,0,77.6,-44.3,211.1,-44.3c0,0,138.1,0,213,47.3c0,0,75,47.2,75,138.8c0,0,0,51.5,-23.5,83.5c0,0,-23.5,32.1,-66,53c0,0,-42.5,20.9,-101.5,35c0,0,-58.9,14.2,-130.5,30.6c0,0,-124.6,27.6,-189.1,55.2c0,0,-64.6,27.6,-101.9,61.5c0,0,-37.2,34,-57,79.5c0,0,-19.8,45.5,-19.8,104.4c0,0,0,135,103.3,208.1c0,0,103.3,73.1,295.8,73.1c0,0,179,0,273.8,-54.9c0,0,94.7,-54.9,132.8,-187L784,800.3c0,0,-23.1,83.6,-88,121.2c0,0,-64.9,37.7,-179.8,37.7c0,0,-126.1,0,-192.4,-41.7c0,0,-66.4,-41.7,-66.4,-124.5c0,0,0,-48.5,25.7,-80.1c0,0,25.7,-31.7,74.2,-53.7c0,0,48.5,-22,193.2,-54.1c0,0,48.5,-11.2,96.6,-22.7c0,0,48.2,-11.6,92.2,-27.6c0,0,44,-16.1,82.4,-37.7c0,0,38.4,-21.6,66.8,-53c0,0,28.3,-31.3,44.3,-73.8c0,0,16.1,-42.5,16.1,-99.9c0,0,0,-145.5,-113.8,-225.3c0,0,-113.7,-79.7,-320.4,-79.7Z" 
	id="f1_1j"
	transform="scale(0.001,-0.001)" />

	<path d="M102.9,0l0,1106.8l134.3,0l0,-691L591.6,807.6l157.4,0L421.5,460.5L766.1,0L608.7,0l-273,368.7L237.2,287.4L237.2,0Z" 
	id="f1_27"
	transform="scale(0.001,-0.001)" />

	<path d="M593.1,100.7c0,0,182,0,279.3,112.4c0,0,97.4,112.4,97.4,317.8c0,0,0,196.4,-98.1,308.5c0,0,-98.1,112,-277.1,112c0,0,-180.6,0,-279,-110.5c0,0,-98.5,-110.6,-98.5,-310c0,0,0,-197.9,99.6,-314c0,0,99.6,-116.2,276.4,-116.2Zm0,-115.3c0,0,-161.9,0,-279.4,65.6c0,0,-117.5,65.6,-179.4,189.8c0,0,-61.9,124.2,-61.9,289.7c0,0,0,252.1,138,394.2c0,0,138,142.1,384.2,142.1c0,0,160.3,0,278.2,-63.8c0,0,117.9,-63.8,180.2,-185.3c0,0,62.2,-121.6,62.2,-287.2c0,0,0,-164.8,-63,-288.6c0,0,-63,-123.8,-180.9,-190.2c0,0,-117.9,-66.3,-278.2,-66.3Z" 
	id="f1_1f"
	transform="scale(0.001,-0.001)" />

	<path d="M57.4,-316.7c0,0,-57.4,0,-94.6,6.7l0,103.4L9,-211.1c0,0,51.4,0,72.3,26.9c0,0,20.9,26.8,20.9,104.5l0,887.3l134.3,0l0,-907.2c0,0,0,-114.1,-44.8,-165.6c0,0,-44.7,-51.5,-134.3,-51.5ZM102.2,978.8l0,128l134.3,0l0,-128Z" 
	id="f1_26"
	transform="scale(0.001,-0.001)" />

	<path d="M590.1,-14.6c0,0,-158.9,0,-274.9,65.9c0,0,-116,66,-176.8,188.7c0,0,-60.8,122.7,-60.8,290.5c0,0,0,251.4,135.8,393.8c0,0,135.7,142.5,375.9,142.5c0,0,167.9,0,280.5,-65.7c0,0,112.7,-65.6,165.6,-194.7l-135,-44.7c0,0,-36.5,92.2,-117.5,140.9c0,0,-80.9,48.8,-192.1,48.8c0,0,-174.5,0,-271.5,-112.3c0,0,-97,-112.4,-97,-308c0,0,0,-193.3,101.1,-310.9c0,0,101.1,-117.5,273.4,-117.5c0,0,220.8,0,332,218l116.3,-58.1c0,0,-64.9,-135.7,-182.4,-206.5c0,0,-117.5,-70.7,-272.6,-70.7Z" 
	id="f1_13"
	transform="scale(0.001,-0.001)" />

	<path d="M17.2,0L304.4,415L30.6,807.6l148.4,0L380.4,493.4l200,314.2l149.9,0L456.5,416.5L747.5,0.2l-150,0L380.4,331.4L161.9,0Z" 
	id="f1_2k"
	transform="scale(0.001,-0.001)" />

	<path d="M611.7,549.5c0,0,112.7,0,174.2,52.5c0,0,61.5,52.5,61.5,147.1c0,0,0,91.6,-62.2,139.6c0,0,-62.3,48,-179.5,48l-337.9,0l0,-387.2ZM125.3,0l0,1051.1l494.6,0c0,0,177.6,0,274.2,-79.4c0,0,96.6,-79.3,96.6,-220.9c0,0,0,-117,-68.3,-196.7c0,0,-68.2,-79.7,-188.3,-100.6L1032.4,0L868.3,0l-273,437.1l-327.5,0L267.8,0Z" 
	id="f1_1i"
	transform="scale(0.001,-0.001)" />


</defs>
</svg>